%TF.GenerationSoftware,KiCad,Pcbnew,9.0.0-rc2*%
%TF.CreationDate,2026-09-01T23:36:21+03:00*%
%TF.ProjectId,schematic,73636865-6d61-4746-9963-2e6b69636164,rev?*%
%TF.SameCoordinates,Original*%
%TF.FileFunction,Legend,Bot*%
%TF.FilePolarity,Positive*%
%FSLAX46Y46*%
G04 Gerber Fmt 4.6, Leading zero omitted, Abs format (unit mm)*
G04 Created by KiCad (PCBNEW 9.0.0-rc2) date 2026-09-01 23:36:21*
%MOMM*%
%LPD*%
G01*
G04 APERTURE LIST*
%ADD10C,0.100000*%
%ADD11C,0.254000*%
%ADD12C,0.150000*%
%ADD13C,0.200000*%
%ADD14C,0.120000*%
%ADD15C,0.152400*%
%ADD16C,0.508000*%
G04 APERTURE END LIST*
D10*
X103400000Y-93600000D02*
X104450000Y-93600000D01*
X103400000Y-93600000D02*
X103400000Y-94850000D01*
D11*
X139374318Y-96360237D02*
X138104318Y-96360237D01*
X139253365Y-97690714D02*
X139313842Y-97630238D01*
X139313842Y-97630238D02*
X139374318Y-97448809D01*
X139374318Y-97448809D02*
X139374318Y-97327857D01*
X139374318Y-97327857D02*
X139313842Y-97146428D01*
X139313842Y-97146428D02*
X139192889Y-97025476D01*
X139192889Y-97025476D02*
X139071937Y-96964999D01*
X139071937Y-96964999D02*
X138830032Y-96904523D01*
X138830032Y-96904523D02*
X138648603Y-96904523D01*
X138648603Y-96904523D02*
X138406699Y-96964999D01*
X138406699Y-96964999D02*
X138285746Y-97025476D01*
X138285746Y-97025476D02*
X138164794Y-97146428D01*
X138164794Y-97146428D02*
X138104318Y-97327857D01*
X138104318Y-97327857D02*
X138104318Y-97448809D01*
X138104318Y-97448809D02*
X138164794Y-97630238D01*
X138164794Y-97630238D02*
X138225270Y-97690714D01*
X138527651Y-98779285D02*
X139374318Y-98779285D01*
X138043842Y-98476904D02*
X138950984Y-98174523D01*
X138950984Y-98174523D02*
X138950984Y-98960714D01*
D12*
X100959580Y-118657142D02*
X101007200Y-118609523D01*
X101007200Y-118609523D02*
X101054819Y-118466666D01*
X101054819Y-118466666D02*
X101054819Y-118371428D01*
X101054819Y-118371428D02*
X101007200Y-118228571D01*
X101007200Y-118228571D02*
X100911961Y-118133333D01*
X100911961Y-118133333D02*
X100816723Y-118085714D01*
X100816723Y-118085714D02*
X100626247Y-118038095D01*
X100626247Y-118038095D02*
X100483390Y-118038095D01*
X100483390Y-118038095D02*
X100292914Y-118085714D01*
X100292914Y-118085714D02*
X100197676Y-118133333D01*
X100197676Y-118133333D02*
X100102438Y-118228571D01*
X100102438Y-118228571D02*
X100054819Y-118371428D01*
X100054819Y-118371428D02*
X100054819Y-118466666D01*
X100054819Y-118466666D02*
X100102438Y-118609523D01*
X100102438Y-118609523D02*
X100150057Y-118657142D01*
X100054819Y-119514285D02*
X100054819Y-119323809D01*
X100054819Y-119323809D02*
X100102438Y-119228571D01*
X100102438Y-119228571D02*
X100150057Y-119180952D01*
X100150057Y-119180952D02*
X100292914Y-119085714D01*
X100292914Y-119085714D02*
X100483390Y-119038095D01*
X100483390Y-119038095D02*
X100864342Y-119038095D01*
X100864342Y-119038095D02*
X100959580Y-119085714D01*
X100959580Y-119085714D02*
X101007200Y-119133333D01*
X101007200Y-119133333D02*
X101054819Y-119228571D01*
X101054819Y-119228571D02*
X101054819Y-119419047D01*
X101054819Y-119419047D02*
X101007200Y-119514285D01*
X101007200Y-119514285D02*
X100959580Y-119561904D01*
X100959580Y-119561904D02*
X100864342Y-119609523D01*
X100864342Y-119609523D02*
X100626247Y-119609523D01*
X100626247Y-119609523D02*
X100531009Y-119561904D01*
X100531009Y-119561904D02*
X100483390Y-119514285D01*
X100483390Y-119514285D02*
X100435771Y-119419047D01*
X100435771Y-119419047D02*
X100435771Y-119228571D01*
X100435771Y-119228571D02*
X100483390Y-119133333D01*
X100483390Y-119133333D02*
X100531009Y-119085714D01*
X100531009Y-119085714D02*
X100626247Y-119038095D01*
X100483390Y-120180952D02*
X100435771Y-120085714D01*
X100435771Y-120085714D02*
X100388152Y-120038095D01*
X100388152Y-120038095D02*
X100292914Y-119990476D01*
X100292914Y-119990476D02*
X100245295Y-119990476D01*
X100245295Y-119990476D02*
X100150057Y-120038095D01*
X100150057Y-120038095D02*
X100102438Y-120085714D01*
X100102438Y-120085714D02*
X100054819Y-120180952D01*
X100054819Y-120180952D02*
X100054819Y-120371428D01*
X100054819Y-120371428D02*
X100102438Y-120466666D01*
X100102438Y-120466666D02*
X100150057Y-120514285D01*
X100150057Y-120514285D02*
X100245295Y-120561904D01*
X100245295Y-120561904D02*
X100292914Y-120561904D01*
X100292914Y-120561904D02*
X100388152Y-120514285D01*
X100388152Y-120514285D02*
X100435771Y-120466666D01*
X100435771Y-120466666D02*
X100483390Y-120371428D01*
X100483390Y-120371428D02*
X100483390Y-120180952D01*
X100483390Y-120180952D02*
X100531009Y-120085714D01*
X100531009Y-120085714D02*
X100578628Y-120038095D01*
X100578628Y-120038095D02*
X100673866Y-119990476D01*
X100673866Y-119990476D02*
X100864342Y-119990476D01*
X100864342Y-119990476D02*
X100959580Y-120038095D01*
X100959580Y-120038095D02*
X101007200Y-120085714D01*
X101007200Y-120085714D02*
X101054819Y-120180952D01*
X101054819Y-120180952D02*
X101054819Y-120371428D01*
X101054819Y-120371428D02*
X101007200Y-120466666D01*
X101007200Y-120466666D02*
X100959580Y-120514285D01*
X100959580Y-120514285D02*
X100864342Y-120561904D01*
X100864342Y-120561904D02*
X100673866Y-120561904D01*
X100673866Y-120561904D02*
X100578628Y-120514285D01*
X100578628Y-120514285D02*
X100531009Y-120466666D01*
X100531009Y-120466666D02*
X100483390Y-120371428D01*
X116304819Y-60117142D02*
X115828628Y-59783809D01*
X116304819Y-59545714D02*
X115304819Y-59545714D01*
X115304819Y-59545714D02*
X115304819Y-59926666D01*
X115304819Y-59926666D02*
X115352438Y-60021904D01*
X115352438Y-60021904D02*
X115400057Y-60069523D01*
X115400057Y-60069523D02*
X115495295Y-60117142D01*
X115495295Y-60117142D02*
X115638152Y-60117142D01*
X115638152Y-60117142D02*
X115733390Y-60069523D01*
X115733390Y-60069523D02*
X115781009Y-60021904D01*
X115781009Y-60021904D02*
X115828628Y-59926666D01*
X115828628Y-59926666D02*
X115828628Y-59545714D01*
X116304819Y-61069523D02*
X116304819Y-60498095D01*
X116304819Y-60783809D02*
X115304819Y-60783809D01*
X115304819Y-60783809D02*
X115447676Y-60688571D01*
X115447676Y-60688571D02*
X115542914Y-60593333D01*
X115542914Y-60593333D02*
X115590533Y-60498095D01*
X116304819Y-62021904D02*
X116304819Y-61450476D01*
X116304819Y-61736190D02*
X115304819Y-61736190D01*
X115304819Y-61736190D02*
X115447676Y-61640952D01*
X115447676Y-61640952D02*
X115542914Y-61545714D01*
X115542914Y-61545714D02*
X115590533Y-61450476D01*
D11*
X111789762Y-81774318D02*
X111789762Y-80504318D01*
X110459285Y-81653365D02*
X110519761Y-81713842D01*
X110519761Y-81713842D02*
X110701190Y-81774318D01*
X110701190Y-81774318D02*
X110822142Y-81774318D01*
X110822142Y-81774318D02*
X111003571Y-81713842D01*
X111003571Y-81713842D02*
X111124523Y-81592889D01*
X111124523Y-81592889D02*
X111185000Y-81471937D01*
X111185000Y-81471937D02*
X111245476Y-81230032D01*
X111245476Y-81230032D02*
X111245476Y-81048603D01*
X111245476Y-81048603D02*
X111185000Y-80806699D01*
X111185000Y-80806699D02*
X111124523Y-80685746D01*
X111124523Y-80685746D02*
X111003571Y-80564794D01*
X111003571Y-80564794D02*
X110822142Y-80504318D01*
X110822142Y-80504318D02*
X110701190Y-80504318D01*
X110701190Y-80504318D02*
X110519761Y-80564794D01*
X110519761Y-80564794D02*
X110459285Y-80625270D01*
X109249761Y-81774318D02*
X109975476Y-81774318D01*
X109612619Y-81774318D02*
X109612619Y-80504318D01*
X109612619Y-80504318D02*
X109733571Y-80685746D01*
X109733571Y-80685746D02*
X109854523Y-80806699D01*
X109854523Y-80806699D02*
X109975476Y-80867175D01*
D12*
X110192857Y-65309580D02*
X110240476Y-65357200D01*
X110240476Y-65357200D02*
X110383333Y-65404819D01*
X110383333Y-65404819D02*
X110478571Y-65404819D01*
X110478571Y-65404819D02*
X110621428Y-65357200D01*
X110621428Y-65357200D02*
X110716666Y-65261961D01*
X110716666Y-65261961D02*
X110764285Y-65166723D01*
X110764285Y-65166723D02*
X110811904Y-64976247D01*
X110811904Y-64976247D02*
X110811904Y-64833390D01*
X110811904Y-64833390D02*
X110764285Y-64642914D01*
X110764285Y-64642914D02*
X110716666Y-64547676D01*
X110716666Y-64547676D02*
X110621428Y-64452438D01*
X110621428Y-64452438D02*
X110478571Y-64404819D01*
X110478571Y-64404819D02*
X110383333Y-64404819D01*
X110383333Y-64404819D02*
X110240476Y-64452438D01*
X110240476Y-64452438D02*
X110192857Y-64500057D01*
X109240476Y-65404819D02*
X109811904Y-65404819D01*
X109526190Y-65404819D02*
X109526190Y-64404819D01*
X109526190Y-64404819D02*
X109621428Y-64547676D01*
X109621428Y-64547676D02*
X109716666Y-64642914D01*
X109716666Y-64642914D02*
X109811904Y-64690533D01*
X108335714Y-64404819D02*
X108811904Y-64404819D01*
X108811904Y-64404819D02*
X108859523Y-64881009D01*
X108859523Y-64881009D02*
X108811904Y-64833390D01*
X108811904Y-64833390D02*
X108716666Y-64785771D01*
X108716666Y-64785771D02*
X108478571Y-64785771D01*
X108478571Y-64785771D02*
X108383333Y-64833390D01*
X108383333Y-64833390D02*
X108335714Y-64881009D01*
X108335714Y-64881009D02*
X108288095Y-64976247D01*
X108288095Y-64976247D02*
X108288095Y-65214342D01*
X108288095Y-65214342D02*
X108335714Y-65309580D01*
X108335714Y-65309580D02*
X108383333Y-65357200D01*
X108383333Y-65357200D02*
X108478571Y-65404819D01*
X108478571Y-65404819D02*
X108716666Y-65404819D01*
X108716666Y-65404819D02*
X108811904Y-65357200D01*
X108811904Y-65357200D02*
X108859523Y-65309580D01*
X102309580Y-118757142D02*
X102357200Y-118709523D01*
X102357200Y-118709523D02*
X102404819Y-118566666D01*
X102404819Y-118566666D02*
X102404819Y-118471428D01*
X102404819Y-118471428D02*
X102357200Y-118328571D01*
X102357200Y-118328571D02*
X102261961Y-118233333D01*
X102261961Y-118233333D02*
X102166723Y-118185714D01*
X102166723Y-118185714D02*
X101976247Y-118138095D01*
X101976247Y-118138095D02*
X101833390Y-118138095D01*
X101833390Y-118138095D02*
X101642914Y-118185714D01*
X101642914Y-118185714D02*
X101547676Y-118233333D01*
X101547676Y-118233333D02*
X101452438Y-118328571D01*
X101452438Y-118328571D02*
X101404819Y-118471428D01*
X101404819Y-118471428D02*
X101404819Y-118566666D01*
X101404819Y-118566666D02*
X101452438Y-118709523D01*
X101452438Y-118709523D02*
X101500057Y-118757142D01*
X101404819Y-119614285D02*
X101404819Y-119423809D01*
X101404819Y-119423809D02*
X101452438Y-119328571D01*
X101452438Y-119328571D02*
X101500057Y-119280952D01*
X101500057Y-119280952D02*
X101642914Y-119185714D01*
X101642914Y-119185714D02*
X101833390Y-119138095D01*
X101833390Y-119138095D02*
X102214342Y-119138095D01*
X102214342Y-119138095D02*
X102309580Y-119185714D01*
X102309580Y-119185714D02*
X102357200Y-119233333D01*
X102357200Y-119233333D02*
X102404819Y-119328571D01*
X102404819Y-119328571D02*
X102404819Y-119519047D01*
X102404819Y-119519047D02*
X102357200Y-119614285D01*
X102357200Y-119614285D02*
X102309580Y-119661904D01*
X102309580Y-119661904D02*
X102214342Y-119709523D01*
X102214342Y-119709523D02*
X101976247Y-119709523D01*
X101976247Y-119709523D02*
X101881009Y-119661904D01*
X101881009Y-119661904D02*
X101833390Y-119614285D01*
X101833390Y-119614285D02*
X101785771Y-119519047D01*
X101785771Y-119519047D02*
X101785771Y-119328571D01*
X101785771Y-119328571D02*
X101833390Y-119233333D01*
X101833390Y-119233333D02*
X101881009Y-119185714D01*
X101881009Y-119185714D02*
X101976247Y-119138095D01*
X101404819Y-120566666D02*
X101404819Y-120376190D01*
X101404819Y-120376190D02*
X101452438Y-120280952D01*
X101452438Y-120280952D02*
X101500057Y-120233333D01*
X101500057Y-120233333D02*
X101642914Y-120138095D01*
X101642914Y-120138095D02*
X101833390Y-120090476D01*
X101833390Y-120090476D02*
X102214342Y-120090476D01*
X102214342Y-120090476D02*
X102309580Y-120138095D01*
X102309580Y-120138095D02*
X102357200Y-120185714D01*
X102357200Y-120185714D02*
X102404819Y-120280952D01*
X102404819Y-120280952D02*
X102404819Y-120471428D01*
X102404819Y-120471428D02*
X102357200Y-120566666D01*
X102357200Y-120566666D02*
X102309580Y-120614285D01*
X102309580Y-120614285D02*
X102214342Y-120661904D01*
X102214342Y-120661904D02*
X101976247Y-120661904D01*
X101976247Y-120661904D02*
X101881009Y-120614285D01*
X101881009Y-120614285D02*
X101833390Y-120566666D01*
X101833390Y-120566666D02*
X101785771Y-120471428D01*
X101785771Y-120471428D02*
X101785771Y-120280952D01*
X101785771Y-120280952D02*
X101833390Y-120185714D01*
X101833390Y-120185714D02*
X101881009Y-120138095D01*
X101881009Y-120138095D02*
X101976247Y-120090476D01*
X129204819Y-66885714D02*
X128204819Y-66885714D01*
X128204819Y-66885714D02*
X128204819Y-67123809D01*
X128204819Y-67123809D02*
X128252438Y-67266666D01*
X128252438Y-67266666D02*
X128347676Y-67361904D01*
X128347676Y-67361904D02*
X128442914Y-67409523D01*
X128442914Y-67409523D02*
X128633390Y-67457142D01*
X128633390Y-67457142D02*
X128776247Y-67457142D01*
X128776247Y-67457142D02*
X128966723Y-67409523D01*
X128966723Y-67409523D02*
X129061961Y-67361904D01*
X129061961Y-67361904D02*
X129157200Y-67266666D01*
X129157200Y-67266666D02*
X129204819Y-67123809D01*
X129204819Y-67123809D02*
X129204819Y-66885714D01*
X129204819Y-68409523D02*
X129204819Y-67838095D01*
X129204819Y-68123809D02*
X128204819Y-68123809D01*
X128204819Y-68123809D02*
X128347676Y-68028571D01*
X128347676Y-68028571D02*
X128442914Y-67933333D01*
X128442914Y-67933333D02*
X128490533Y-67838095D01*
X128204819Y-68742857D02*
X128204819Y-69361904D01*
X128204819Y-69361904D02*
X128585771Y-69028571D01*
X128585771Y-69028571D02*
X128585771Y-69171428D01*
X128585771Y-69171428D02*
X128633390Y-69266666D01*
X128633390Y-69266666D02*
X128681009Y-69314285D01*
X128681009Y-69314285D02*
X128776247Y-69361904D01*
X128776247Y-69361904D02*
X129014342Y-69361904D01*
X129014342Y-69361904D02*
X129109580Y-69314285D01*
X129109580Y-69314285D02*
X129157200Y-69266666D01*
X129157200Y-69266666D02*
X129204819Y-69171428D01*
X129204819Y-69171428D02*
X129204819Y-68885714D01*
X129204819Y-68885714D02*
X129157200Y-68790476D01*
X129157200Y-68790476D02*
X129109580Y-68742857D01*
X113842857Y-60009580D02*
X113890476Y-60057200D01*
X113890476Y-60057200D02*
X114033333Y-60104819D01*
X114033333Y-60104819D02*
X114128571Y-60104819D01*
X114128571Y-60104819D02*
X114271428Y-60057200D01*
X114271428Y-60057200D02*
X114366666Y-59961961D01*
X114366666Y-59961961D02*
X114414285Y-59866723D01*
X114414285Y-59866723D02*
X114461904Y-59676247D01*
X114461904Y-59676247D02*
X114461904Y-59533390D01*
X114461904Y-59533390D02*
X114414285Y-59342914D01*
X114414285Y-59342914D02*
X114366666Y-59247676D01*
X114366666Y-59247676D02*
X114271428Y-59152438D01*
X114271428Y-59152438D02*
X114128571Y-59104819D01*
X114128571Y-59104819D02*
X114033333Y-59104819D01*
X114033333Y-59104819D02*
X113890476Y-59152438D01*
X113890476Y-59152438D02*
X113842857Y-59200057D01*
X112890476Y-60104819D02*
X113461904Y-60104819D01*
X113176190Y-60104819D02*
X113176190Y-59104819D01*
X113176190Y-59104819D02*
X113271428Y-59247676D01*
X113271428Y-59247676D02*
X113366666Y-59342914D01*
X113366666Y-59342914D02*
X113461904Y-59390533D01*
X112033333Y-59438152D02*
X112033333Y-60104819D01*
X112271428Y-59057200D02*
X112509523Y-59771485D01*
X112509523Y-59771485D02*
X111890476Y-59771485D01*
X116622857Y-92169580D02*
X116670476Y-92217200D01*
X116670476Y-92217200D02*
X116813333Y-92264819D01*
X116813333Y-92264819D02*
X116908571Y-92264819D01*
X116908571Y-92264819D02*
X117051428Y-92217200D01*
X117051428Y-92217200D02*
X117146666Y-92121961D01*
X117146666Y-92121961D02*
X117194285Y-92026723D01*
X117194285Y-92026723D02*
X117241904Y-91836247D01*
X117241904Y-91836247D02*
X117241904Y-91693390D01*
X117241904Y-91693390D02*
X117194285Y-91502914D01*
X117194285Y-91502914D02*
X117146666Y-91407676D01*
X117146666Y-91407676D02*
X117051428Y-91312438D01*
X117051428Y-91312438D02*
X116908571Y-91264819D01*
X116908571Y-91264819D02*
X116813333Y-91264819D01*
X116813333Y-91264819D02*
X116670476Y-91312438D01*
X116670476Y-91312438D02*
X116622857Y-91360057D01*
X116289523Y-91264819D02*
X115622857Y-91264819D01*
X115622857Y-91264819D02*
X116051428Y-92264819D01*
X115289523Y-91360057D02*
X115241904Y-91312438D01*
X115241904Y-91312438D02*
X115146666Y-91264819D01*
X115146666Y-91264819D02*
X114908571Y-91264819D01*
X114908571Y-91264819D02*
X114813333Y-91312438D01*
X114813333Y-91312438D02*
X114765714Y-91360057D01*
X114765714Y-91360057D02*
X114718095Y-91455295D01*
X114718095Y-91455295D02*
X114718095Y-91550533D01*
X114718095Y-91550533D02*
X114765714Y-91693390D01*
X114765714Y-91693390D02*
X115337142Y-92264819D01*
X115337142Y-92264819D02*
X114718095Y-92264819D01*
X115792857Y-78699580D02*
X115840476Y-78747200D01*
X115840476Y-78747200D02*
X115983333Y-78794819D01*
X115983333Y-78794819D02*
X116078571Y-78794819D01*
X116078571Y-78794819D02*
X116221428Y-78747200D01*
X116221428Y-78747200D02*
X116316666Y-78651961D01*
X116316666Y-78651961D02*
X116364285Y-78556723D01*
X116364285Y-78556723D02*
X116411904Y-78366247D01*
X116411904Y-78366247D02*
X116411904Y-78223390D01*
X116411904Y-78223390D02*
X116364285Y-78032914D01*
X116364285Y-78032914D02*
X116316666Y-77937676D01*
X116316666Y-77937676D02*
X116221428Y-77842438D01*
X116221428Y-77842438D02*
X116078571Y-77794819D01*
X116078571Y-77794819D02*
X115983333Y-77794819D01*
X115983333Y-77794819D02*
X115840476Y-77842438D01*
X115840476Y-77842438D02*
X115792857Y-77890057D01*
X115459523Y-77794819D02*
X114792857Y-77794819D01*
X114792857Y-77794819D02*
X115221428Y-78794819D01*
X114507142Y-77794819D02*
X113888095Y-77794819D01*
X113888095Y-77794819D02*
X114221428Y-78175771D01*
X114221428Y-78175771D02*
X114078571Y-78175771D01*
X114078571Y-78175771D02*
X113983333Y-78223390D01*
X113983333Y-78223390D02*
X113935714Y-78271009D01*
X113935714Y-78271009D02*
X113888095Y-78366247D01*
X113888095Y-78366247D02*
X113888095Y-78604342D01*
X113888095Y-78604342D02*
X113935714Y-78699580D01*
X113935714Y-78699580D02*
X113983333Y-78747200D01*
X113983333Y-78747200D02*
X114078571Y-78794819D01*
X114078571Y-78794819D02*
X114364285Y-78794819D01*
X114364285Y-78794819D02*
X114459523Y-78747200D01*
X114459523Y-78747200D02*
X114507142Y-78699580D01*
X105892857Y-90304819D02*
X106226190Y-89828628D01*
X106464285Y-90304819D02*
X106464285Y-89304819D01*
X106464285Y-89304819D02*
X106083333Y-89304819D01*
X106083333Y-89304819D02*
X105988095Y-89352438D01*
X105988095Y-89352438D02*
X105940476Y-89400057D01*
X105940476Y-89400057D02*
X105892857Y-89495295D01*
X105892857Y-89495295D02*
X105892857Y-89638152D01*
X105892857Y-89638152D02*
X105940476Y-89733390D01*
X105940476Y-89733390D02*
X105988095Y-89781009D01*
X105988095Y-89781009D02*
X106083333Y-89828628D01*
X106083333Y-89828628D02*
X106464285Y-89828628D01*
X105321428Y-89733390D02*
X105416666Y-89685771D01*
X105416666Y-89685771D02*
X105464285Y-89638152D01*
X105464285Y-89638152D02*
X105511904Y-89542914D01*
X105511904Y-89542914D02*
X105511904Y-89495295D01*
X105511904Y-89495295D02*
X105464285Y-89400057D01*
X105464285Y-89400057D02*
X105416666Y-89352438D01*
X105416666Y-89352438D02*
X105321428Y-89304819D01*
X105321428Y-89304819D02*
X105130952Y-89304819D01*
X105130952Y-89304819D02*
X105035714Y-89352438D01*
X105035714Y-89352438D02*
X104988095Y-89400057D01*
X104988095Y-89400057D02*
X104940476Y-89495295D01*
X104940476Y-89495295D02*
X104940476Y-89542914D01*
X104940476Y-89542914D02*
X104988095Y-89638152D01*
X104988095Y-89638152D02*
X105035714Y-89685771D01*
X105035714Y-89685771D02*
X105130952Y-89733390D01*
X105130952Y-89733390D02*
X105321428Y-89733390D01*
X105321428Y-89733390D02*
X105416666Y-89781009D01*
X105416666Y-89781009D02*
X105464285Y-89828628D01*
X105464285Y-89828628D02*
X105511904Y-89923866D01*
X105511904Y-89923866D02*
X105511904Y-90114342D01*
X105511904Y-90114342D02*
X105464285Y-90209580D01*
X105464285Y-90209580D02*
X105416666Y-90257200D01*
X105416666Y-90257200D02*
X105321428Y-90304819D01*
X105321428Y-90304819D02*
X105130952Y-90304819D01*
X105130952Y-90304819D02*
X105035714Y-90257200D01*
X105035714Y-90257200D02*
X104988095Y-90209580D01*
X104988095Y-90209580D02*
X104940476Y-90114342D01*
X104940476Y-90114342D02*
X104940476Y-89923866D01*
X104940476Y-89923866D02*
X104988095Y-89828628D01*
X104988095Y-89828628D02*
X105035714Y-89781009D01*
X105035714Y-89781009D02*
X105130952Y-89733390D01*
X104559523Y-89400057D02*
X104511904Y-89352438D01*
X104511904Y-89352438D02*
X104416666Y-89304819D01*
X104416666Y-89304819D02*
X104178571Y-89304819D01*
X104178571Y-89304819D02*
X104083333Y-89352438D01*
X104083333Y-89352438D02*
X104035714Y-89400057D01*
X104035714Y-89400057D02*
X103988095Y-89495295D01*
X103988095Y-89495295D02*
X103988095Y-89590533D01*
X103988095Y-89590533D02*
X104035714Y-89733390D01*
X104035714Y-89733390D02*
X104607142Y-90304819D01*
X104607142Y-90304819D02*
X103988095Y-90304819D01*
X116554819Y-53650595D02*
X117364342Y-53650595D01*
X117364342Y-53650595D02*
X117459580Y-53698214D01*
X117459580Y-53698214D02*
X117507200Y-53745833D01*
X117507200Y-53745833D02*
X117554819Y-53841071D01*
X117554819Y-53841071D02*
X117554819Y-54031547D01*
X117554819Y-54031547D02*
X117507200Y-54126785D01*
X117507200Y-54126785D02*
X117459580Y-54174404D01*
X117459580Y-54174404D02*
X117364342Y-54222023D01*
X117364342Y-54222023D02*
X116554819Y-54222023D01*
X116983390Y-54841071D02*
X116935771Y-54745833D01*
X116935771Y-54745833D02*
X116888152Y-54698214D01*
X116888152Y-54698214D02*
X116792914Y-54650595D01*
X116792914Y-54650595D02*
X116745295Y-54650595D01*
X116745295Y-54650595D02*
X116650057Y-54698214D01*
X116650057Y-54698214D02*
X116602438Y-54745833D01*
X116602438Y-54745833D02*
X116554819Y-54841071D01*
X116554819Y-54841071D02*
X116554819Y-55031547D01*
X116554819Y-55031547D02*
X116602438Y-55126785D01*
X116602438Y-55126785D02*
X116650057Y-55174404D01*
X116650057Y-55174404D02*
X116745295Y-55222023D01*
X116745295Y-55222023D02*
X116792914Y-55222023D01*
X116792914Y-55222023D02*
X116888152Y-55174404D01*
X116888152Y-55174404D02*
X116935771Y-55126785D01*
X116935771Y-55126785D02*
X116983390Y-55031547D01*
X116983390Y-55031547D02*
X116983390Y-54841071D01*
X116983390Y-54841071D02*
X117031009Y-54745833D01*
X117031009Y-54745833D02*
X117078628Y-54698214D01*
X117078628Y-54698214D02*
X117173866Y-54650595D01*
X117173866Y-54650595D02*
X117364342Y-54650595D01*
X117364342Y-54650595D02*
X117459580Y-54698214D01*
X117459580Y-54698214D02*
X117507200Y-54745833D01*
X117507200Y-54745833D02*
X117554819Y-54841071D01*
X117554819Y-54841071D02*
X117554819Y-55031547D01*
X117554819Y-55031547D02*
X117507200Y-55126785D01*
X117507200Y-55126785D02*
X117459580Y-55174404D01*
X117459580Y-55174404D02*
X117364342Y-55222023D01*
X117364342Y-55222023D02*
X117173866Y-55222023D01*
X117173866Y-55222023D02*
X117078628Y-55174404D01*
X117078628Y-55174404D02*
X117031009Y-55126785D01*
X117031009Y-55126785D02*
X116983390Y-55031547D01*
X122614285Y-64554819D02*
X122614285Y-63554819D01*
X122614285Y-63554819D02*
X122376190Y-63554819D01*
X122376190Y-63554819D02*
X122233333Y-63602438D01*
X122233333Y-63602438D02*
X122138095Y-63697676D01*
X122138095Y-63697676D02*
X122090476Y-63792914D01*
X122090476Y-63792914D02*
X122042857Y-63983390D01*
X122042857Y-63983390D02*
X122042857Y-64126247D01*
X122042857Y-64126247D02*
X122090476Y-64316723D01*
X122090476Y-64316723D02*
X122138095Y-64411961D01*
X122138095Y-64411961D02*
X122233333Y-64507200D01*
X122233333Y-64507200D02*
X122376190Y-64554819D01*
X122376190Y-64554819D02*
X122614285Y-64554819D01*
X121090476Y-64554819D02*
X121661904Y-64554819D01*
X121376190Y-64554819D02*
X121376190Y-63554819D01*
X121376190Y-63554819D02*
X121471428Y-63697676D01*
X121471428Y-63697676D02*
X121566666Y-63792914D01*
X121566666Y-63792914D02*
X121661904Y-63840533D01*
X120471428Y-63554819D02*
X120376190Y-63554819D01*
X120376190Y-63554819D02*
X120280952Y-63602438D01*
X120280952Y-63602438D02*
X120233333Y-63650057D01*
X120233333Y-63650057D02*
X120185714Y-63745295D01*
X120185714Y-63745295D02*
X120138095Y-63935771D01*
X120138095Y-63935771D02*
X120138095Y-64173866D01*
X120138095Y-64173866D02*
X120185714Y-64364342D01*
X120185714Y-64364342D02*
X120233333Y-64459580D01*
X120233333Y-64459580D02*
X120280952Y-64507200D01*
X120280952Y-64507200D02*
X120376190Y-64554819D01*
X120376190Y-64554819D02*
X120471428Y-64554819D01*
X120471428Y-64554819D02*
X120566666Y-64507200D01*
X120566666Y-64507200D02*
X120614285Y-64459580D01*
X120614285Y-64459580D02*
X120661904Y-64364342D01*
X120661904Y-64364342D02*
X120709523Y-64173866D01*
X120709523Y-64173866D02*
X120709523Y-63935771D01*
X120709523Y-63935771D02*
X120661904Y-63745295D01*
X120661904Y-63745295D02*
X120614285Y-63650057D01*
X120614285Y-63650057D02*
X120566666Y-63602438D01*
X120566666Y-63602438D02*
X120471428Y-63554819D01*
X120134819Y-55657142D02*
X119658628Y-55323809D01*
X120134819Y-55085714D02*
X119134819Y-55085714D01*
X119134819Y-55085714D02*
X119134819Y-55466666D01*
X119134819Y-55466666D02*
X119182438Y-55561904D01*
X119182438Y-55561904D02*
X119230057Y-55609523D01*
X119230057Y-55609523D02*
X119325295Y-55657142D01*
X119325295Y-55657142D02*
X119468152Y-55657142D01*
X119468152Y-55657142D02*
X119563390Y-55609523D01*
X119563390Y-55609523D02*
X119611009Y-55561904D01*
X119611009Y-55561904D02*
X119658628Y-55466666D01*
X119658628Y-55466666D02*
X119658628Y-55085714D01*
X119230057Y-56038095D02*
X119182438Y-56085714D01*
X119182438Y-56085714D02*
X119134819Y-56180952D01*
X119134819Y-56180952D02*
X119134819Y-56419047D01*
X119134819Y-56419047D02*
X119182438Y-56514285D01*
X119182438Y-56514285D02*
X119230057Y-56561904D01*
X119230057Y-56561904D02*
X119325295Y-56609523D01*
X119325295Y-56609523D02*
X119420533Y-56609523D01*
X119420533Y-56609523D02*
X119563390Y-56561904D01*
X119563390Y-56561904D02*
X120134819Y-55990476D01*
X120134819Y-55990476D02*
X120134819Y-56609523D01*
X119134819Y-57228571D02*
X119134819Y-57323809D01*
X119134819Y-57323809D02*
X119182438Y-57419047D01*
X119182438Y-57419047D02*
X119230057Y-57466666D01*
X119230057Y-57466666D02*
X119325295Y-57514285D01*
X119325295Y-57514285D02*
X119515771Y-57561904D01*
X119515771Y-57561904D02*
X119753866Y-57561904D01*
X119753866Y-57561904D02*
X119944342Y-57514285D01*
X119944342Y-57514285D02*
X120039580Y-57466666D01*
X120039580Y-57466666D02*
X120087200Y-57419047D01*
X120087200Y-57419047D02*
X120134819Y-57323809D01*
X120134819Y-57323809D02*
X120134819Y-57228571D01*
X120134819Y-57228571D02*
X120087200Y-57133333D01*
X120087200Y-57133333D02*
X120039580Y-57085714D01*
X120039580Y-57085714D02*
X119944342Y-57038095D01*
X119944342Y-57038095D02*
X119753866Y-56990476D01*
X119753866Y-56990476D02*
X119515771Y-56990476D01*
X119515771Y-56990476D02*
X119325295Y-57038095D01*
X119325295Y-57038095D02*
X119230057Y-57085714D01*
X119230057Y-57085714D02*
X119182438Y-57133333D01*
X119182438Y-57133333D02*
X119134819Y-57228571D01*
X113702857Y-66474819D02*
X114036190Y-65998628D01*
X114274285Y-66474819D02*
X114274285Y-65474819D01*
X114274285Y-65474819D02*
X113893333Y-65474819D01*
X113893333Y-65474819D02*
X113798095Y-65522438D01*
X113798095Y-65522438D02*
X113750476Y-65570057D01*
X113750476Y-65570057D02*
X113702857Y-65665295D01*
X113702857Y-65665295D02*
X113702857Y-65808152D01*
X113702857Y-65808152D02*
X113750476Y-65903390D01*
X113750476Y-65903390D02*
X113798095Y-65951009D01*
X113798095Y-65951009D02*
X113893333Y-65998628D01*
X113893333Y-65998628D02*
X114274285Y-65998628D01*
X112750476Y-66474819D02*
X113321904Y-66474819D01*
X113036190Y-66474819D02*
X113036190Y-65474819D01*
X113036190Y-65474819D02*
X113131428Y-65617676D01*
X113131428Y-65617676D02*
X113226666Y-65712914D01*
X113226666Y-65712914D02*
X113321904Y-65760533D01*
X112274285Y-66474819D02*
X112083809Y-66474819D01*
X112083809Y-66474819D02*
X111988571Y-66427200D01*
X111988571Y-66427200D02*
X111940952Y-66379580D01*
X111940952Y-66379580D02*
X111845714Y-66236723D01*
X111845714Y-66236723D02*
X111798095Y-66046247D01*
X111798095Y-66046247D02*
X111798095Y-65665295D01*
X111798095Y-65665295D02*
X111845714Y-65570057D01*
X111845714Y-65570057D02*
X111893333Y-65522438D01*
X111893333Y-65522438D02*
X111988571Y-65474819D01*
X111988571Y-65474819D02*
X112179047Y-65474819D01*
X112179047Y-65474819D02*
X112274285Y-65522438D01*
X112274285Y-65522438D02*
X112321904Y-65570057D01*
X112321904Y-65570057D02*
X112369523Y-65665295D01*
X112369523Y-65665295D02*
X112369523Y-65903390D01*
X112369523Y-65903390D02*
X112321904Y-65998628D01*
X112321904Y-65998628D02*
X112274285Y-66046247D01*
X112274285Y-66046247D02*
X112179047Y-66093866D01*
X112179047Y-66093866D02*
X111988571Y-66093866D01*
X111988571Y-66093866D02*
X111893333Y-66046247D01*
X111893333Y-66046247D02*
X111845714Y-65998628D01*
X111845714Y-65998628D02*
X111798095Y-65903390D01*
X105909580Y-60407142D02*
X105957200Y-60359523D01*
X105957200Y-60359523D02*
X106004819Y-60216666D01*
X106004819Y-60216666D02*
X106004819Y-60121428D01*
X106004819Y-60121428D02*
X105957200Y-59978571D01*
X105957200Y-59978571D02*
X105861961Y-59883333D01*
X105861961Y-59883333D02*
X105766723Y-59835714D01*
X105766723Y-59835714D02*
X105576247Y-59788095D01*
X105576247Y-59788095D02*
X105433390Y-59788095D01*
X105433390Y-59788095D02*
X105242914Y-59835714D01*
X105242914Y-59835714D02*
X105147676Y-59883333D01*
X105147676Y-59883333D02*
X105052438Y-59978571D01*
X105052438Y-59978571D02*
X105004819Y-60121428D01*
X105004819Y-60121428D02*
X105004819Y-60216666D01*
X105004819Y-60216666D02*
X105052438Y-60359523D01*
X105052438Y-60359523D02*
X105100057Y-60407142D01*
X106004819Y-61359523D02*
X106004819Y-60788095D01*
X106004819Y-61073809D02*
X105004819Y-61073809D01*
X105004819Y-61073809D02*
X105147676Y-60978571D01*
X105147676Y-60978571D02*
X105242914Y-60883333D01*
X105242914Y-60883333D02*
X105290533Y-60788095D01*
X105004819Y-62216666D02*
X105004819Y-62026190D01*
X105004819Y-62026190D02*
X105052438Y-61930952D01*
X105052438Y-61930952D02*
X105100057Y-61883333D01*
X105100057Y-61883333D02*
X105242914Y-61788095D01*
X105242914Y-61788095D02*
X105433390Y-61740476D01*
X105433390Y-61740476D02*
X105814342Y-61740476D01*
X105814342Y-61740476D02*
X105909580Y-61788095D01*
X105909580Y-61788095D02*
X105957200Y-61835714D01*
X105957200Y-61835714D02*
X106004819Y-61930952D01*
X106004819Y-61930952D02*
X106004819Y-62121428D01*
X106004819Y-62121428D02*
X105957200Y-62216666D01*
X105957200Y-62216666D02*
X105909580Y-62264285D01*
X105909580Y-62264285D02*
X105814342Y-62311904D01*
X105814342Y-62311904D02*
X105576247Y-62311904D01*
X105576247Y-62311904D02*
X105481009Y-62264285D01*
X105481009Y-62264285D02*
X105433390Y-62216666D01*
X105433390Y-62216666D02*
X105385771Y-62121428D01*
X105385771Y-62121428D02*
X105385771Y-61930952D01*
X105385771Y-61930952D02*
X105433390Y-61835714D01*
X105433390Y-61835714D02*
X105481009Y-61788095D01*
X105481009Y-61788095D02*
X105576247Y-61740476D01*
X128250057Y-60728571D02*
X128202438Y-60633333D01*
X128202438Y-60633333D02*
X128107200Y-60538095D01*
X128107200Y-60538095D02*
X127964342Y-60395238D01*
X127964342Y-60395238D02*
X127916723Y-60300000D01*
X127916723Y-60300000D02*
X127916723Y-60204762D01*
X128154819Y-60252381D02*
X128107200Y-60157143D01*
X128107200Y-60157143D02*
X128011961Y-60061905D01*
X128011961Y-60061905D02*
X127821485Y-60014286D01*
X127821485Y-60014286D02*
X127488152Y-60014286D01*
X127488152Y-60014286D02*
X127297676Y-60061905D01*
X127297676Y-60061905D02*
X127202438Y-60157143D01*
X127202438Y-60157143D02*
X127154819Y-60252381D01*
X127154819Y-60252381D02*
X127154819Y-60442857D01*
X127154819Y-60442857D02*
X127202438Y-60538095D01*
X127202438Y-60538095D02*
X127297676Y-60633333D01*
X127297676Y-60633333D02*
X127488152Y-60680952D01*
X127488152Y-60680952D02*
X127821485Y-60680952D01*
X127821485Y-60680952D02*
X128011961Y-60633333D01*
X128011961Y-60633333D02*
X128107200Y-60538095D01*
X128107200Y-60538095D02*
X128154819Y-60442857D01*
X128154819Y-60442857D02*
X128154819Y-60252381D01*
X128154819Y-61633333D02*
X128154819Y-61061905D01*
X128154819Y-61347619D02*
X127154819Y-61347619D01*
X127154819Y-61347619D02*
X127297676Y-61252381D01*
X127297676Y-61252381D02*
X127392914Y-61157143D01*
X127392914Y-61157143D02*
X127440533Y-61061905D01*
X128154819Y-62585714D02*
X128154819Y-62014286D01*
X128154819Y-62300000D02*
X127154819Y-62300000D01*
X127154819Y-62300000D02*
X127297676Y-62204762D01*
X127297676Y-62204762D02*
X127392914Y-62109524D01*
X127392914Y-62109524D02*
X127440533Y-62014286D01*
X107576190Y-58528628D02*
X107576190Y-59004819D01*
X107909523Y-58004819D02*
X107576190Y-58528628D01*
X107576190Y-58528628D02*
X107242857Y-58004819D01*
X106385714Y-59004819D02*
X106957142Y-59004819D01*
X106671428Y-59004819D02*
X106671428Y-58004819D01*
X106671428Y-58004819D02*
X106766666Y-58147676D01*
X106766666Y-58147676D02*
X106861904Y-58242914D01*
X106861904Y-58242914D02*
X106957142Y-58290533D01*
X108292857Y-92659580D02*
X108340476Y-92707200D01*
X108340476Y-92707200D02*
X108483333Y-92754819D01*
X108483333Y-92754819D02*
X108578571Y-92754819D01*
X108578571Y-92754819D02*
X108721428Y-92707200D01*
X108721428Y-92707200D02*
X108816666Y-92611961D01*
X108816666Y-92611961D02*
X108864285Y-92516723D01*
X108864285Y-92516723D02*
X108911904Y-92326247D01*
X108911904Y-92326247D02*
X108911904Y-92183390D01*
X108911904Y-92183390D02*
X108864285Y-91992914D01*
X108864285Y-91992914D02*
X108816666Y-91897676D01*
X108816666Y-91897676D02*
X108721428Y-91802438D01*
X108721428Y-91802438D02*
X108578571Y-91754819D01*
X108578571Y-91754819D02*
X108483333Y-91754819D01*
X108483333Y-91754819D02*
X108340476Y-91802438D01*
X108340476Y-91802438D02*
X108292857Y-91850057D01*
X107959523Y-91754819D02*
X107292857Y-91754819D01*
X107292857Y-91754819D02*
X107721428Y-92754819D01*
X106388095Y-92754819D02*
X106959523Y-92754819D01*
X106673809Y-92754819D02*
X106673809Y-91754819D01*
X106673809Y-91754819D02*
X106769047Y-91897676D01*
X106769047Y-91897676D02*
X106864285Y-91992914D01*
X106864285Y-91992914D02*
X106959523Y-92040533D01*
X128404819Y-57757142D02*
X127928628Y-57423809D01*
X128404819Y-57185714D02*
X127404819Y-57185714D01*
X127404819Y-57185714D02*
X127404819Y-57566666D01*
X127404819Y-57566666D02*
X127452438Y-57661904D01*
X127452438Y-57661904D02*
X127500057Y-57709523D01*
X127500057Y-57709523D02*
X127595295Y-57757142D01*
X127595295Y-57757142D02*
X127738152Y-57757142D01*
X127738152Y-57757142D02*
X127833390Y-57709523D01*
X127833390Y-57709523D02*
X127881009Y-57661904D01*
X127881009Y-57661904D02*
X127928628Y-57566666D01*
X127928628Y-57566666D02*
X127928628Y-57185714D01*
X127500057Y-58138095D02*
X127452438Y-58185714D01*
X127452438Y-58185714D02*
X127404819Y-58280952D01*
X127404819Y-58280952D02*
X127404819Y-58519047D01*
X127404819Y-58519047D02*
X127452438Y-58614285D01*
X127452438Y-58614285D02*
X127500057Y-58661904D01*
X127500057Y-58661904D02*
X127595295Y-58709523D01*
X127595295Y-58709523D02*
X127690533Y-58709523D01*
X127690533Y-58709523D02*
X127833390Y-58661904D01*
X127833390Y-58661904D02*
X128404819Y-58090476D01*
X128404819Y-58090476D02*
X128404819Y-58709523D01*
X128404819Y-59661904D02*
X128404819Y-59090476D01*
X128404819Y-59376190D02*
X127404819Y-59376190D01*
X127404819Y-59376190D02*
X127547676Y-59280952D01*
X127547676Y-59280952D02*
X127642914Y-59185714D01*
X127642914Y-59185714D02*
X127690533Y-59090476D01*
X122314285Y-50454819D02*
X122314285Y-49454819D01*
X122314285Y-49454819D02*
X122076190Y-49454819D01*
X122076190Y-49454819D02*
X121933333Y-49502438D01*
X121933333Y-49502438D02*
X121838095Y-49597676D01*
X121838095Y-49597676D02*
X121790476Y-49692914D01*
X121790476Y-49692914D02*
X121742857Y-49883390D01*
X121742857Y-49883390D02*
X121742857Y-50026247D01*
X121742857Y-50026247D02*
X121790476Y-50216723D01*
X121790476Y-50216723D02*
X121838095Y-50311961D01*
X121838095Y-50311961D02*
X121933333Y-50407200D01*
X121933333Y-50407200D02*
X122076190Y-50454819D01*
X122076190Y-50454819D02*
X122314285Y-50454819D01*
X120790476Y-50454819D02*
X121361904Y-50454819D01*
X121076190Y-50454819D02*
X121076190Y-49454819D01*
X121076190Y-49454819D02*
X121171428Y-49597676D01*
X121171428Y-49597676D02*
X121266666Y-49692914D01*
X121266666Y-49692914D02*
X121361904Y-49740533D01*
X120409523Y-49550057D02*
X120361904Y-49502438D01*
X120361904Y-49502438D02*
X120266666Y-49454819D01*
X120266666Y-49454819D02*
X120028571Y-49454819D01*
X120028571Y-49454819D02*
X119933333Y-49502438D01*
X119933333Y-49502438D02*
X119885714Y-49550057D01*
X119885714Y-49550057D02*
X119838095Y-49645295D01*
X119838095Y-49645295D02*
X119838095Y-49740533D01*
X119838095Y-49740533D02*
X119885714Y-49883390D01*
X119885714Y-49883390D02*
X120457142Y-50454819D01*
X120457142Y-50454819D02*
X119838095Y-50454819D01*
X105416666Y-80517262D02*
X104940476Y-80517262D01*
X105511904Y-80802977D02*
X105178571Y-79802977D01*
X105178571Y-79802977D02*
X104845238Y-80802977D01*
X104511904Y-80279167D02*
X104178571Y-80279167D01*
X104035714Y-80802977D02*
X104511904Y-80802977D01*
X104511904Y-80802977D02*
X104511904Y-79802977D01*
X104511904Y-79802977D02*
X104035714Y-79802977D01*
X103178571Y-80136310D02*
X103178571Y-80802977D01*
X103416666Y-79755358D02*
X103654761Y-80469643D01*
X103654761Y-80469643D02*
X103035714Y-80469643D01*
X143959580Y-116807142D02*
X144007200Y-116759523D01*
X144007200Y-116759523D02*
X144054819Y-116616666D01*
X144054819Y-116616666D02*
X144054819Y-116521428D01*
X144054819Y-116521428D02*
X144007200Y-116378571D01*
X144007200Y-116378571D02*
X143911961Y-116283333D01*
X143911961Y-116283333D02*
X143816723Y-116235714D01*
X143816723Y-116235714D02*
X143626247Y-116188095D01*
X143626247Y-116188095D02*
X143483390Y-116188095D01*
X143483390Y-116188095D02*
X143292914Y-116235714D01*
X143292914Y-116235714D02*
X143197676Y-116283333D01*
X143197676Y-116283333D02*
X143102438Y-116378571D01*
X143102438Y-116378571D02*
X143054819Y-116521428D01*
X143054819Y-116521428D02*
X143054819Y-116616666D01*
X143054819Y-116616666D02*
X143102438Y-116759523D01*
X143102438Y-116759523D02*
X143150057Y-116807142D01*
X143150057Y-117188095D02*
X143102438Y-117235714D01*
X143102438Y-117235714D02*
X143054819Y-117330952D01*
X143054819Y-117330952D02*
X143054819Y-117569047D01*
X143054819Y-117569047D02*
X143102438Y-117664285D01*
X143102438Y-117664285D02*
X143150057Y-117711904D01*
X143150057Y-117711904D02*
X143245295Y-117759523D01*
X143245295Y-117759523D02*
X143340533Y-117759523D01*
X143340533Y-117759523D02*
X143483390Y-117711904D01*
X143483390Y-117711904D02*
X144054819Y-117140476D01*
X144054819Y-117140476D02*
X144054819Y-117759523D01*
X143054819Y-118092857D02*
X143054819Y-118711904D01*
X143054819Y-118711904D02*
X143435771Y-118378571D01*
X143435771Y-118378571D02*
X143435771Y-118521428D01*
X143435771Y-118521428D02*
X143483390Y-118616666D01*
X143483390Y-118616666D02*
X143531009Y-118664285D01*
X143531009Y-118664285D02*
X143626247Y-118711904D01*
X143626247Y-118711904D02*
X143864342Y-118711904D01*
X143864342Y-118711904D02*
X143959580Y-118664285D01*
X143959580Y-118664285D02*
X144007200Y-118616666D01*
X144007200Y-118616666D02*
X144054819Y-118521428D01*
X144054819Y-118521428D02*
X144054819Y-118235714D01*
X144054819Y-118235714D02*
X144007200Y-118140476D01*
X144007200Y-118140476D02*
X143959580Y-118092857D01*
X120369047Y-84104819D02*
X120702380Y-83628628D01*
X120940475Y-84104819D02*
X120940475Y-83104819D01*
X120940475Y-83104819D02*
X120559523Y-83104819D01*
X120559523Y-83104819D02*
X120464285Y-83152438D01*
X120464285Y-83152438D02*
X120416666Y-83200057D01*
X120416666Y-83200057D02*
X120369047Y-83295295D01*
X120369047Y-83295295D02*
X120369047Y-83438152D01*
X120369047Y-83438152D02*
X120416666Y-83533390D01*
X120416666Y-83533390D02*
X120464285Y-83581009D01*
X120464285Y-83581009D02*
X120559523Y-83628628D01*
X120559523Y-83628628D02*
X120940475Y-83628628D01*
X119416666Y-84104819D02*
X119988094Y-84104819D01*
X119702380Y-84104819D02*
X119702380Y-83104819D01*
X119702380Y-83104819D02*
X119797618Y-83247676D01*
X119797618Y-83247676D02*
X119892856Y-83342914D01*
X119892856Y-83342914D02*
X119988094Y-83390533D01*
X118464285Y-84104819D02*
X119035713Y-84104819D01*
X118749999Y-84104819D02*
X118749999Y-83104819D01*
X118749999Y-83104819D02*
X118845237Y-83247676D01*
X118845237Y-83247676D02*
X118940475Y-83342914D01*
X118940475Y-83342914D02*
X119035713Y-83390533D01*
X118083332Y-83200057D02*
X118035713Y-83152438D01*
X118035713Y-83152438D02*
X117940475Y-83104819D01*
X117940475Y-83104819D02*
X117702380Y-83104819D01*
X117702380Y-83104819D02*
X117607142Y-83152438D01*
X117607142Y-83152438D02*
X117559523Y-83200057D01*
X117559523Y-83200057D02*
X117511904Y-83295295D01*
X117511904Y-83295295D02*
X117511904Y-83390533D01*
X117511904Y-83390533D02*
X117559523Y-83533390D01*
X117559523Y-83533390D02*
X118130951Y-84104819D01*
X118130951Y-84104819D02*
X117511904Y-84104819D01*
X149009580Y-116657142D02*
X149057200Y-116609523D01*
X149057200Y-116609523D02*
X149104819Y-116466666D01*
X149104819Y-116466666D02*
X149104819Y-116371428D01*
X149104819Y-116371428D02*
X149057200Y-116228571D01*
X149057200Y-116228571D02*
X148961961Y-116133333D01*
X148961961Y-116133333D02*
X148866723Y-116085714D01*
X148866723Y-116085714D02*
X148676247Y-116038095D01*
X148676247Y-116038095D02*
X148533390Y-116038095D01*
X148533390Y-116038095D02*
X148342914Y-116085714D01*
X148342914Y-116085714D02*
X148247676Y-116133333D01*
X148247676Y-116133333D02*
X148152438Y-116228571D01*
X148152438Y-116228571D02*
X148104819Y-116371428D01*
X148104819Y-116371428D02*
X148104819Y-116466666D01*
X148104819Y-116466666D02*
X148152438Y-116609523D01*
X148152438Y-116609523D02*
X148200057Y-116657142D01*
X148104819Y-117514285D02*
X148104819Y-117323809D01*
X148104819Y-117323809D02*
X148152438Y-117228571D01*
X148152438Y-117228571D02*
X148200057Y-117180952D01*
X148200057Y-117180952D02*
X148342914Y-117085714D01*
X148342914Y-117085714D02*
X148533390Y-117038095D01*
X148533390Y-117038095D02*
X148914342Y-117038095D01*
X148914342Y-117038095D02*
X149009580Y-117085714D01*
X149009580Y-117085714D02*
X149057200Y-117133333D01*
X149057200Y-117133333D02*
X149104819Y-117228571D01*
X149104819Y-117228571D02*
X149104819Y-117419047D01*
X149104819Y-117419047D02*
X149057200Y-117514285D01*
X149057200Y-117514285D02*
X149009580Y-117561904D01*
X149009580Y-117561904D02*
X148914342Y-117609523D01*
X148914342Y-117609523D02*
X148676247Y-117609523D01*
X148676247Y-117609523D02*
X148581009Y-117561904D01*
X148581009Y-117561904D02*
X148533390Y-117514285D01*
X148533390Y-117514285D02*
X148485771Y-117419047D01*
X148485771Y-117419047D02*
X148485771Y-117228571D01*
X148485771Y-117228571D02*
X148533390Y-117133333D01*
X148533390Y-117133333D02*
X148581009Y-117085714D01*
X148581009Y-117085714D02*
X148676247Y-117038095D01*
X148104819Y-117942857D02*
X148104819Y-118609523D01*
X148104819Y-118609523D02*
X149104819Y-118180952D01*
X119729047Y-89474819D02*
X120062380Y-88998628D01*
X120300475Y-89474819D02*
X120300475Y-88474819D01*
X120300475Y-88474819D02*
X119919523Y-88474819D01*
X119919523Y-88474819D02*
X119824285Y-88522438D01*
X119824285Y-88522438D02*
X119776666Y-88570057D01*
X119776666Y-88570057D02*
X119729047Y-88665295D01*
X119729047Y-88665295D02*
X119729047Y-88808152D01*
X119729047Y-88808152D02*
X119776666Y-88903390D01*
X119776666Y-88903390D02*
X119824285Y-88951009D01*
X119824285Y-88951009D02*
X119919523Y-88998628D01*
X119919523Y-88998628D02*
X120300475Y-88998628D01*
X118776666Y-89474819D02*
X119348094Y-89474819D01*
X119062380Y-89474819D02*
X119062380Y-88474819D01*
X119062380Y-88474819D02*
X119157618Y-88617676D01*
X119157618Y-88617676D02*
X119252856Y-88712914D01*
X119252856Y-88712914D02*
X119348094Y-88760533D01*
X117824285Y-89474819D02*
X118395713Y-89474819D01*
X118109999Y-89474819D02*
X118109999Y-88474819D01*
X118109999Y-88474819D02*
X118205237Y-88617676D01*
X118205237Y-88617676D02*
X118300475Y-88712914D01*
X118300475Y-88712914D02*
X118395713Y-88760533D01*
X116871904Y-89474819D02*
X117443332Y-89474819D01*
X117157618Y-89474819D02*
X117157618Y-88474819D01*
X117157618Y-88474819D02*
X117252856Y-88617676D01*
X117252856Y-88617676D02*
X117348094Y-88712914D01*
X117348094Y-88712914D02*
X117443332Y-88760533D01*
X107354819Y-86333333D02*
X107354819Y-85857143D01*
X107354819Y-85857143D02*
X106354819Y-85857143D01*
X107354819Y-86714286D02*
X107354819Y-86904762D01*
X107354819Y-86904762D02*
X107307200Y-87000000D01*
X107307200Y-87000000D02*
X107259580Y-87047619D01*
X107259580Y-87047619D02*
X107116723Y-87142857D01*
X107116723Y-87142857D02*
X106926247Y-87190476D01*
X106926247Y-87190476D02*
X106545295Y-87190476D01*
X106545295Y-87190476D02*
X106450057Y-87142857D01*
X106450057Y-87142857D02*
X106402438Y-87095238D01*
X106402438Y-87095238D02*
X106354819Y-87000000D01*
X106354819Y-87000000D02*
X106354819Y-86809524D01*
X106354819Y-86809524D02*
X106402438Y-86714286D01*
X106402438Y-86714286D02*
X106450057Y-86666667D01*
X106450057Y-86666667D02*
X106545295Y-86619048D01*
X106545295Y-86619048D02*
X106783390Y-86619048D01*
X106783390Y-86619048D02*
X106878628Y-86666667D01*
X106878628Y-86666667D02*
X106926247Y-86714286D01*
X106926247Y-86714286D02*
X106973866Y-86809524D01*
X106973866Y-86809524D02*
X106973866Y-87000000D01*
X106973866Y-87000000D02*
X106926247Y-87095238D01*
X106926247Y-87095238D02*
X106878628Y-87142857D01*
X106878628Y-87142857D02*
X106783390Y-87190476D01*
X147680895Y-126216666D02*
X147680895Y-125740476D01*
X147395180Y-126311904D02*
X148395180Y-125978571D01*
X148395180Y-125978571D02*
X147395180Y-125645238D01*
X147918990Y-125311904D02*
X147918990Y-124978571D01*
X147395180Y-124835714D02*
X147395180Y-125311904D01*
X147395180Y-125311904D02*
X148395180Y-125311904D01*
X148395180Y-125311904D02*
X148395180Y-124835714D01*
X148395180Y-124502380D02*
X148395180Y-123883333D01*
X148395180Y-123883333D02*
X148014228Y-124216666D01*
X148014228Y-124216666D02*
X148014228Y-124073809D01*
X148014228Y-124073809D02*
X147966609Y-123978571D01*
X147966609Y-123978571D02*
X147918990Y-123930952D01*
X147918990Y-123930952D02*
X147823752Y-123883333D01*
X147823752Y-123883333D02*
X147585657Y-123883333D01*
X147585657Y-123883333D02*
X147490419Y-123930952D01*
X147490419Y-123930952D02*
X147442800Y-123978571D01*
X147442800Y-123978571D02*
X147395180Y-124073809D01*
X147395180Y-124073809D02*
X147395180Y-124359523D01*
X147395180Y-124359523D02*
X147442800Y-124454761D01*
X147442800Y-124454761D02*
X147490419Y-124502380D01*
X140232857Y-126524819D02*
X140566190Y-126048628D01*
X140804285Y-126524819D02*
X140804285Y-125524819D01*
X140804285Y-125524819D02*
X140423333Y-125524819D01*
X140423333Y-125524819D02*
X140328095Y-125572438D01*
X140328095Y-125572438D02*
X140280476Y-125620057D01*
X140280476Y-125620057D02*
X140232857Y-125715295D01*
X140232857Y-125715295D02*
X140232857Y-125858152D01*
X140232857Y-125858152D02*
X140280476Y-125953390D01*
X140280476Y-125953390D02*
X140328095Y-126001009D01*
X140328095Y-126001009D02*
X140423333Y-126048628D01*
X140423333Y-126048628D02*
X140804285Y-126048628D01*
X139661428Y-125953390D02*
X139756666Y-125905771D01*
X139756666Y-125905771D02*
X139804285Y-125858152D01*
X139804285Y-125858152D02*
X139851904Y-125762914D01*
X139851904Y-125762914D02*
X139851904Y-125715295D01*
X139851904Y-125715295D02*
X139804285Y-125620057D01*
X139804285Y-125620057D02*
X139756666Y-125572438D01*
X139756666Y-125572438D02*
X139661428Y-125524819D01*
X139661428Y-125524819D02*
X139470952Y-125524819D01*
X139470952Y-125524819D02*
X139375714Y-125572438D01*
X139375714Y-125572438D02*
X139328095Y-125620057D01*
X139328095Y-125620057D02*
X139280476Y-125715295D01*
X139280476Y-125715295D02*
X139280476Y-125762914D01*
X139280476Y-125762914D02*
X139328095Y-125858152D01*
X139328095Y-125858152D02*
X139375714Y-125905771D01*
X139375714Y-125905771D02*
X139470952Y-125953390D01*
X139470952Y-125953390D02*
X139661428Y-125953390D01*
X139661428Y-125953390D02*
X139756666Y-126001009D01*
X139756666Y-126001009D02*
X139804285Y-126048628D01*
X139804285Y-126048628D02*
X139851904Y-126143866D01*
X139851904Y-126143866D02*
X139851904Y-126334342D01*
X139851904Y-126334342D02*
X139804285Y-126429580D01*
X139804285Y-126429580D02*
X139756666Y-126477200D01*
X139756666Y-126477200D02*
X139661428Y-126524819D01*
X139661428Y-126524819D02*
X139470952Y-126524819D01*
X139470952Y-126524819D02*
X139375714Y-126477200D01*
X139375714Y-126477200D02*
X139328095Y-126429580D01*
X139328095Y-126429580D02*
X139280476Y-126334342D01*
X139280476Y-126334342D02*
X139280476Y-126143866D01*
X139280476Y-126143866D02*
X139328095Y-126048628D01*
X139328095Y-126048628D02*
X139375714Y-126001009D01*
X139375714Y-126001009D02*
X139470952Y-125953390D01*
X138423333Y-125524819D02*
X138613809Y-125524819D01*
X138613809Y-125524819D02*
X138709047Y-125572438D01*
X138709047Y-125572438D02*
X138756666Y-125620057D01*
X138756666Y-125620057D02*
X138851904Y-125762914D01*
X138851904Y-125762914D02*
X138899523Y-125953390D01*
X138899523Y-125953390D02*
X138899523Y-126334342D01*
X138899523Y-126334342D02*
X138851904Y-126429580D01*
X138851904Y-126429580D02*
X138804285Y-126477200D01*
X138804285Y-126477200D02*
X138709047Y-126524819D01*
X138709047Y-126524819D02*
X138518571Y-126524819D01*
X138518571Y-126524819D02*
X138423333Y-126477200D01*
X138423333Y-126477200D02*
X138375714Y-126429580D01*
X138375714Y-126429580D02*
X138328095Y-126334342D01*
X138328095Y-126334342D02*
X138328095Y-126096247D01*
X138328095Y-126096247D02*
X138375714Y-126001009D01*
X138375714Y-126001009D02*
X138423333Y-125953390D01*
X138423333Y-125953390D02*
X138518571Y-125905771D01*
X138518571Y-125905771D02*
X138709047Y-125905771D01*
X138709047Y-125905771D02*
X138804285Y-125953390D01*
X138804285Y-125953390D02*
X138851904Y-126001009D01*
X138851904Y-126001009D02*
X138899523Y-126096247D01*
X128600057Y-54328571D02*
X128552438Y-54233333D01*
X128552438Y-54233333D02*
X128457200Y-54138095D01*
X128457200Y-54138095D02*
X128314342Y-53995238D01*
X128314342Y-53995238D02*
X128266723Y-53900000D01*
X128266723Y-53900000D02*
X128266723Y-53804762D01*
X128504819Y-53852381D02*
X128457200Y-53757143D01*
X128457200Y-53757143D02*
X128361961Y-53661905D01*
X128361961Y-53661905D02*
X128171485Y-53614286D01*
X128171485Y-53614286D02*
X127838152Y-53614286D01*
X127838152Y-53614286D02*
X127647676Y-53661905D01*
X127647676Y-53661905D02*
X127552438Y-53757143D01*
X127552438Y-53757143D02*
X127504819Y-53852381D01*
X127504819Y-53852381D02*
X127504819Y-54042857D01*
X127504819Y-54042857D02*
X127552438Y-54138095D01*
X127552438Y-54138095D02*
X127647676Y-54233333D01*
X127647676Y-54233333D02*
X127838152Y-54280952D01*
X127838152Y-54280952D02*
X128171485Y-54280952D01*
X128171485Y-54280952D02*
X128361961Y-54233333D01*
X128361961Y-54233333D02*
X128457200Y-54138095D01*
X128457200Y-54138095D02*
X128504819Y-54042857D01*
X128504819Y-54042857D02*
X128504819Y-53852381D01*
X128504819Y-55233333D02*
X128504819Y-54661905D01*
X128504819Y-54947619D02*
X127504819Y-54947619D01*
X127504819Y-54947619D02*
X127647676Y-54852381D01*
X127647676Y-54852381D02*
X127742914Y-54757143D01*
X127742914Y-54757143D02*
X127790533Y-54661905D01*
X127504819Y-55852381D02*
X127504819Y-55947619D01*
X127504819Y-55947619D02*
X127552438Y-56042857D01*
X127552438Y-56042857D02*
X127600057Y-56090476D01*
X127600057Y-56090476D02*
X127695295Y-56138095D01*
X127695295Y-56138095D02*
X127885771Y-56185714D01*
X127885771Y-56185714D02*
X128123866Y-56185714D01*
X128123866Y-56185714D02*
X128314342Y-56138095D01*
X128314342Y-56138095D02*
X128409580Y-56090476D01*
X128409580Y-56090476D02*
X128457200Y-56042857D01*
X128457200Y-56042857D02*
X128504819Y-55947619D01*
X128504819Y-55947619D02*
X128504819Y-55852381D01*
X128504819Y-55852381D02*
X128457200Y-55757143D01*
X128457200Y-55757143D02*
X128409580Y-55709524D01*
X128409580Y-55709524D02*
X128314342Y-55661905D01*
X128314342Y-55661905D02*
X128123866Y-55614286D01*
X128123866Y-55614286D02*
X127885771Y-55614286D01*
X127885771Y-55614286D02*
X127695295Y-55661905D01*
X127695295Y-55661905D02*
X127600057Y-55709524D01*
X127600057Y-55709524D02*
X127552438Y-55757143D01*
X127552438Y-55757143D02*
X127504819Y-55852381D01*
X122464285Y-67354819D02*
X122464285Y-66354819D01*
X122464285Y-66354819D02*
X122226190Y-66354819D01*
X122226190Y-66354819D02*
X122083333Y-66402438D01*
X122083333Y-66402438D02*
X121988095Y-66497676D01*
X121988095Y-66497676D02*
X121940476Y-66592914D01*
X121940476Y-66592914D02*
X121892857Y-66783390D01*
X121892857Y-66783390D02*
X121892857Y-66926247D01*
X121892857Y-66926247D02*
X121940476Y-67116723D01*
X121940476Y-67116723D02*
X121988095Y-67211961D01*
X121988095Y-67211961D02*
X122083333Y-67307200D01*
X122083333Y-67307200D02*
X122226190Y-67354819D01*
X122226190Y-67354819D02*
X122464285Y-67354819D01*
X120940476Y-67354819D02*
X121511904Y-67354819D01*
X121226190Y-67354819D02*
X121226190Y-66354819D01*
X121226190Y-66354819D02*
X121321428Y-66497676D01*
X121321428Y-66497676D02*
X121416666Y-66592914D01*
X121416666Y-66592914D02*
X121511904Y-66640533D01*
X119988095Y-67354819D02*
X120559523Y-67354819D01*
X120273809Y-67354819D02*
X120273809Y-66354819D01*
X120273809Y-66354819D02*
X120369047Y-66497676D01*
X120369047Y-66497676D02*
X120464285Y-66592914D01*
X120464285Y-66592914D02*
X120559523Y-66640533D01*
X127354819Y-63707142D02*
X126878628Y-63373809D01*
X127354819Y-63135714D02*
X126354819Y-63135714D01*
X126354819Y-63135714D02*
X126354819Y-63516666D01*
X126354819Y-63516666D02*
X126402438Y-63611904D01*
X126402438Y-63611904D02*
X126450057Y-63659523D01*
X126450057Y-63659523D02*
X126545295Y-63707142D01*
X126545295Y-63707142D02*
X126688152Y-63707142D01*
X126688152Y-63707142D02*
X126783390Y-63659523D01*
X126783390Y-63659523D02*
X126831009Y-63611904D01*
X126831009Y-63611904D02*
X126878628Y-63516666D01*
X126878628Y-63516666D02*
X126878628Y-63135714D01*
X126450057Y-64088095D02*
X126402438Y-64135714D01*
X126402438Y-64135714D02*
X126354819Y-64230952D01*
X126354819Y-64230952D02*
X126354819Y-64469047D01*
X126354819Y-64469047D02*
X126402438Y-64564285D01*
X126402438Y-64564285D02*
X126450057Y-64611904D01*
X126450057Y-64611904D02*
X126545295Y-64659523D01*
X126545295Y-64659523D02*
X126640533Y-64659523D01*
X126640533Y-64659523D02*
X126783390Y-64611904D01*
X126783390Y-64611904D02*
X127354819Y-64040476D01*
X127354819Y-64040476D02*
X127354819Y-64659523D01*
X126450057Y-65040476D02*
X126402438Y-65088095D01*
X126402438Y-65088095D02*
X126354819Y-65183333D01*
X126354819Y-65183333D02*
X126354819Y-65421428D01*
X126354819Y-65421428D02*
X126402438Y-65516666D01*
X126402438Y-65516666D02*
X126450057Y-65564285D01*
X126450057Y-65564285D02*
X126545295Y-65611904D01*
X126545295Y-65611904D02*
X126640533Y-65611904D01*
X126640533Y-65611904D02*
X126783390Y-65564285D01*
X126783390Y-65564285D02*
X127354819Y-64992857D01*
X127354819Y-64992857D02*
X127354819Y-65611904D01*
X112819047Y-90354819D02*
X113152380Y-89878628D01*
X113390475Y-90354819D02*
X113390475Y-89354819D01*
X113390475Y-89354819D02*
X113009523Y-89354819D01*
X113009523Y-89354819D02*
X112914285Y-89402438D01*
X112914285Y-89402438D02*
X112866666Y-89450057D01*
X112866666Y-89450057D02*
X112819047Y-89545295D01*
X112819047Y-89545295D02*
X112819047Y-89688152D01*
X112819047Y-89688152D02*
X112866666Y-89783390D01*
X112866666Y-89783390D02*
X112914285Y-89831009D01*
X112914285Y-89831009D02*
X113009523Y-89878628D01*
X113009523Y-89878628D02*
X113390475Y-89878628D01*
X111866666Y-90354819D02*
X112438094Y-90354819D01*
X112152380Y-90354819D02*
X112152380Y-89354819D01*
X112152380Y-89354819D02*
X112247618Y-89497676D01*
X112247618Y-89497676D02*
X112342856Y-89592914D01*
X112342856Y-89592914D02*
X112438094Y-89640533D01*
X110914285Y-90354819D02*
X111485713Y-90354819D01*
X111199999Y-90354819D02*
X111199999Y-89354819D01*
X111199999Y-89354819D02*
X111295237Y-89497676D01*
X111295237Y-89497676D02*
X111390475Y-89592914D01*
X111390475Y-89592914D02*
X111485713Y-89640533D01*
X110295237Y-89354819D02*
X110199999Y-89354819D01*
X110199999Y-89354819D02*
X110104761Y-89402438D01*
X110104761Y-89402438D02*
X110057142Y-89450057D01*
X110057142Y-89450057D02*
X110009523Y-89545295D01*
X110009523Y-89545295D02*
X109961904Y-89735771D01*
X109961904Y-89735771D02*
X109961904Y-89973866D01*
X109961904Y-89973866D02*
X110009523Y-90164342D01*
X110009523Y-90164342D02*
X110057142Y-90259580D01*
X110057142Y-90259580D02*
X110104761Y-90307200D01*
X110104761Y-90307200D02*
X110199999Y-90354819D01*
X110199999Y-90354819D02*
X110295237Y-90354819D01*
X110295237Y-90354819D02*
X110390475Y-90307200D01*
X110390475Y-90307200D02*
X110438094Y-90259580D01*
X110438094Y-90259580D02*
X110485713Y-90164342D01*
X110485713Y-90164342D02*
X110533332Y-89973866D01*
X110533332Y-89973866D02*
X110533332Y-89735771D01*
X110533332Y-89735771D02*
X110485713Y-89545295D01*
X110485713Y-89545295D02*
X110438094Y-89450057D01*
X110438094Y-89450057D02*
X110390475Y-89402438D01*
X110390475Y-89402438D02*
X110295237Y-89354819D01*
X112509580Y-62107142D02*
X112557200Y-62059523D01*
X112557200Y-62059523D02*
X112604819Y-61916666D01*
X112604819Y-61916666D02*
X112604819Y-61821428D01*
X112604819Y-61821428D02*
X112557200Y-61678571D01*
X112557200Y-61678571D02*
X112461961Y-61583333D01*
X112461961Y-61583333D02*
X112366723Y-61535714D01*
X112366723Y-61535714D02*
X112176247Y-61488095D01*
X112176247Y-61488095D02*
X112033390Y-61488095D01*
X112033390Y-61488095D02*
X111842914Y-61535714D01*
X111842914Y-61535714D02*
X111747676Y-61583333D01*
X111747676Y-61583333D02*
X111652438Y-61678571D01*
X111652438Y-61678571D02*
X111604819Y-61821428D01*
X111604819Y-61821428D02*
X111604819Y-61916666D01*
X111604819Y-61916666D02*
X111652438Y-62059523D01*
X111652438Y-62059523D02*
X111700057Y-62107142D01*
X112604819Y-63059523D02*
X112604819Y-62488095D01*
X112604819Y-62773809D02*
X111604819Y-62773809D01*
X111604819Y-62773809D02*
X111747676Y-62678571D01*
X111747676Y-62678571D02*
X111842914Y-62583333D01*
X111842914Y-62583333D02*
X111890533Y-62488095D01*
X111604819Y-63392857D02*
X111604819Y-64011904D01*
X111604819Y-64011904D02*
X111985771Y-63678571D01*
X111985771Y-63678571D02*
X111985771Y-63821428D01*
X111985771Y-63821428D02*
X112033390Y-63916666D01*
X112033390Y-63916666D02*
X112081009Y-63964285D01*
X112081009Y-63964285D02*
X112176247Y-64011904D01*
X112176247Y-64011904D02*
X112414342Y-64011904D01*
X112414342Y-64011904D02*
X112509580Y-63964285D01*
X112509580Y-63964285D02*
X112557200Y-63916666D01*
X112557200Y-63916666D02*
X112604819Y-63821428D01*
X112604819Y-63821428D02*
X112604819Y-63535714D01*
X112604819Y-63535714D02*
X112557200Y-63440476D01*
X112557200Y-63440476D02*
X112509580Y-63392857D01*
X102209580Y-87907142D02*
X102257200Y-87859523D01*
X102257200Y-87859523D02*
X102304819Y-87716666D01*
X102304819Y-87716666D02*
X102304819Y-87621428D01*
X102304819Y-87621428D02*
X102257200Y-87478571D01*
X102257200Y-87478571D02*
X102161961Y-87383333D01*
X102161961Y-87383333D02*
X102066723Y-87335714D01*
X102066723Y-87335714D02*
X101876247Y-87288095D01*
X101876247Y-87288095D02*
X101733390Y-87288095D01*
X101733390Y-87288095D02*
X101542914Y-87335714D01*
X101542914Y-87335714D02*
X101447676Y-87383333D01*
X101447676Y-87383333D02*
X101352438Y-87478571D01*
X101352438Y-87478571D02*
X101304819Y-87621428D01*
X101304819Y-87621428D02*
X101304819Y-87716666D01*
X101304819Y-87716666D02*
X101352438Y-87859523D01*
X101352438Y-87859523D02*
X101400057Y-87907142D01*
X101304819Y-88240476D02*
X101304819Y-88907142D01*
X101304819Y-88907142D02*
X102304819Y-88478571D01*
X101304819Y-89478571D02*
X101304819Y-89573809D01*
X101304819Y-89573809D02*
X101352438Y-89669047D01*
X101352438Y-89669047D02*
X101400057Y-89716666D01*
X101400057Y-89716666D02*
X101495295Y-89764285D01*
X101495295Y-89764285D02*
X101685771Y-89811904D01*
X101685771Y-89811904D02*
X101923866Y-89811904D01*
X101923866Y-89811904D02*
X102114342Y-89764285D01*
X102114342Y-89764285D02*
X102209580Y-89716666D01*
X102209580Y-89716666D02*
X102257200Y-89669047D01*
X102257200Y-89669047D02*
X102304819Y-89573809D01*
X102304819Y-89573809D02*
X102304819Y-89478571D01*
X102304819Y-89478571D02*
X102257200Y-89383333D01*
X102257200Y-89383333D02*
X102209580Y-89335714D01*
X102209580Y-89335714D02*
X102114342Y-89288095D01*
X102114342Y-89288095D02*
X101923866Y-89240476D01*
X101923866Y-89240476D02*
X101685771Y-89240476D01*
X101685771Y-89240476D02*
X101495295Y-89288095D01*
X101495295Y-89288095D02*
X101400057Y-89335714D01*
X101400057Y-89335714D02*
X101352438Y-89383333D01*
X101352438Y-89383333D02*
X101304819Y-89478571D01*
D10*
%TO.C,IC4*%
X110450000Y-93650000D02*
G75*
G02*
X110450000Y-93550000I0J50000D01*
G01*
X110450000Y-93550000D02*
G75*
G02*
X110450000Y-93650000I0J-50000D01*
G01*
D13*
X134950000Y-125050000D02*
X134950000Y-121250000D01*
X134950000Y-98850000D02*
X134950000Y-95050000D01*
X134950000Y-95050000D02*
X131150000Y-95050000D01*
X131150000Y-125050000D02*
X134950000Y-125050000D01*
D10*
X110450000Y-93650000D02*
X110450000Y-93650000D01*
X110450000Y-93550000D02*
X110450000Y-93550000D01*
D13*
X109750000Y-95050000D02*
X104950000Y-95050000D01*
X104950000Y-125050000D02*
X108750000Y-125050000D01*
X104950000Y-121250000D02*
X104950000Y-125050000D01*
X104950000Y-95050000D02*
X104950000Y-98850000D01*
D14*
%TO.C,C68*%
X100290000Y-116937836D02*
X100290000Y-116722164D01*
X101010000Y-116937836D02*
X101010000Y-116722164D01*
%TO.C,R11*%
X113920000Y-60913641D02*
X113920000Y-60606359D01*
X114680000Y-60913641D02*
X114680000Y-60606359D01*
D13*
%TO.C,IC1*%
X110000000Y-83050000D02*
X110000000Y-86750000D01*
X110000000Y-86750000D02*
X116500000Y-86750000D01*
X116500000Y-83050000D02*
X110000000Y-83050000D01*
X116500000Y-86750000D02*
X116500000Y-83050000D01*
X116750000Y-88575000D02*
X116750000Y-87100000D01*
D14*
%TO.C,C15*%
X109827836Y-62940000D02*
X109612164Y-62940000D01*
X109827836Y-63660000D02*
X109612164Y-63660000D01*
%TO.C,C66*%
X101640000Y-117027836D02*
X101640000Y-116812164D01*
X102360000Y-117027836D02*
X102360000Y-116812164D01*
%TO.C,D13*%
X125000000Y-66540000D02*
X124350000Y-66540000D01*
X125000000Y-66540000D02*
X125650000Y-66540000D01*
X125000000Y-69660000D02*
X124350000Y-69660000D01*
X125000000Y-69660000D02*
X125650000Y-69660000D01*
X126162500Y-66590000D02*
X125922500Y-66260000D01*
X126402500Y-66260000D01*
X126162500Y-66590000D01*
G36*
X126162500Y-66590000D02*
G01*
X125922500Y-66260000D01*
X126402500Y-66260000D01*
X126162500Y-66590000D01*
G37*
%TO.C,C14*%
X112390000Y-60712164D02*
X112390000Y-60927836D01*
X113110000Y-60712164D02*
X113110000Y-60927836D01*
%TO.C,C72*%
X115872164Y-90290000D02*
X116087836Y-90290000D01*
X115872164Y-91010000D02*
X116087836Y-91010000D01*
%TO.C,C73*%
X115257836Y-79140000D02*
X115042164Y-79140000D01*
X115257836Y-79860000D02*
X115042164Y-79860000D01*
%TO.C,R82*%
X108253641Y-89220000D02*
X107946359Y-89220000D01*
X108253641Y-89980000D02*
X107946359Y-89980000D01*
%TO.C,U8*%
X108840000Y-51652500D02*
X109115000Y-51652500D01*
X108840000Y-54412500D02*
X108840000Y-51652500D01*
X108840000Y-54412500D02*
X108840000Y-57172500D01*
X108840000Y-57172500D02*
X109115000Y-57172500D01*
X116260000Y-51652500D02*
X115985000Y-51652500D01*
X116260000Y-54412500D02*
X116260000Y-51652500D01*
X116260000Y-54412500D02*
X116260000Y-57172500D01*
X116260000Y-57172500D02*
X115985000Y-57172500D01*
X116315000Y-58202500D02*
X115985000Y-57962500D01*
X116315000Y-57722500D01*
X116315000Y-58202500D01*
G36*
X116315000Y-58202500D02*
G01*
X115985000Y-57962500D01*
X116315000Y-57722500D01*
X116315000Y-58202500D01*
G37*
%TO.C,D10*%
X119610000Y-62750000D02*
X115600000Y-62750000D01*
X119610000Y-62750000D02*
X119610000Y-64750000D01*
X119610000Y-64750000D02*
X115600000Y-64750000D01*
%TO.C,R20*%
X120470000Y-56146359D02*
X120470000Y-56453641D01*
X121230000Y-56146359D02*
X121230000Y-56453641D01*
%TO.C,R19*%
X112906359Y-64470000D02*
X113213641Y-64470000D01*
X112906359Y-65230000D02*
X113213641Y-65230000D01*
%TO.C,C16*%
X106740000Y-60842164D02*
X106740000Y-61057836D01*
X107460000Y-60842164D02*
X107460000Y-61057836D01*
%TO.C,Q11*%
X124387500Y-59590000D02*
X123737500Y-59590000D01*
X124387500Y-59590000D02*
X125037500Y-59590000D01*
X124387500Y-62710000D02*
X123737500Y-62710000D01*
X124387500Y-62710000D02*
X125037500Y-62710000D01*
X125550000Y-59640000D02*
X125310000Y-59310000D01*
X125790000Y-59310000D01*
X125550000Y-59640000D01*
G36*
X125550000Y-59640000D02*
G01*
X125310000Y-59310000D01*
X125790000Y-59310000D01*
X125550000Y-59640000D01*
G37*
%TO.C,Y1*%
X111125000Y-59550000D02*
X111125000Y-62350000D01*
X111125000Y-62350000D02*
X107825000Y-62350000D01*
%TO.C,C71*%
X108137836Y-90640000D02*
X107922164Y-90640000D01*
X108137836Y-91360000D02*
X107922164Y-91360000D01*
%TO.C,R21*%
X123463641Y-58370000D02*
X123156359Y-58370000D01*
X123463641Y-59130000D02*
X123156359Y-59130000D01*
%TO.C,D12*%
X123460000Y-51000000D02*
X119450000Y-51000000D01*
X123460000Y-51000000D02*
X123460000Y-53000000D01*
X123460000Y-53000000D02*
X119450000Y-53000000D01*
D15*
%TO.C,AE4*%
X102717200Y-81423600D02*
X105562000Y-81423600D01*
X103311560Y-84776400D02*
X102717200Y-84776400D01*
X105562000Y-84776400D02*
X104967640Y-84776400D01*
D16*
X107532300Y-84625016D02*
G75*
G02*
X106770300Y-84625016I-381000J0D01*
G01*
X106770300Y-84625016D02*
G75*
G02*
X107532300Y-84625016I381000J0D01*
G01*
D14*
%TO.C,C23*%
X139740000Y-119910000D02*
X139740000Y-115700000D01*
X142760000Y-115700000D02*
X142760000Y-119910000D01*
X142760000Y-119910000D02*
X139740000Y-119910000D01*
%TO.C,R112*%
X118236359Y-81520000D02*
X118543641Y-81520000D01*
X118236359Y-82280000D02*
X118543641Y-82280000D01*
%TO.C,C67*%
X144790000Y-119760000D02*
X144790000Y-115550000D01*
X147810000Y-115550000D02*
X147810000Y-119760000D01*
X147810000Y-119760000D02*
X144790000Y-119760000D01*
%TO.C,R111*%
X118456359Y-87470000D02*
X118763641Y-87470000D01*
X118456359Y-88230000D02*
X118763641Y-88230000D01*
D15*
%TO.C,AE3*%
X143373600Y-124246961D02*
X143373600Y-123652601D01*
X143373600Y-126497401D02*
X143373600Y-125903041D01*
X146726400Y-123652601D02*
X146726400Y-126497401D01*
D16*
X143905984Y-128086701D02*
G75*
G02*
X143143984Y-128086701I-381000J0D01*
G01*
X143143984Y-128086701D02*
G75*
G02*
X143905984Y-128086701I381000J0D01*
G01*
D14*
%TO.C,R86*%
X139436359Y-124520000D02*
X139743641Y-124520000D01*
X139436359Y-125280000D02*
X139743641Y-125280000D01*
%TO.C,Q10*%
X124400000Y-54590000D02*
X123750000Y-54590000D01*
X124400000Y-54590000D02*
X125050000Y-54590000D01*
X124400000Y-57710000D02*
X123750000Y-57710000D01*
X124400000Y-57710000D02*
X125050000Y-57710000D01*
X125562500Y-54640000D02*
X125322500Y-54310000D01*
X125802500Y-54310000D01*
X125562500Y-54640000D01*
G36*
X125562500Y-54640000D02*
G01*
X125322500Y-54310000D01*
X125802500Y-54310000D01*
X125562500Y-54640000D01*
G37*
%TO.C,D11*%
X119360000Y-65800000D02*
X115350000Y-65800000D01*
X119360000Y-65800000D02*
X119360000Y-67800000D01*
X119360000Y-67800000D02*
X115350000Y-67800000D01*
%TO.C,R22*%
X123670000Y-64713641D02*
X123670000Y-64406359D01*
X124430000Y-64713641D02*
X124430000Y-64406359D01*
%TO.C,R110*%
X108096359Y-87370000D02*
X108403641Y-87370000D01*
X108096359Y-88130000D02*
X108403641Y-88130000D01*
%TO.C,C13*%
X113907836Y-62040000D02*
X113692164Y-62040000D01*
X113907836Y-62760000D02*
X113692164Y-62760000D01*
%TO.C,C70*%
X103990000Y-88327836D02*
X103990000Y-88112164D01*
X104710000Y-88327836D02*
X104710000Y-88112164D01*
%TD*%
M02*
