%TF.GenerationSoftware,KiCad,Pcbnew,9.0.0-rc2*%
%TF.CreationDate,2026-08-26T19:50:12+03:00*%
%TF.ProjectId,schematic,73636865-6d61-4746-9963-2e6b69636164,rev?*%
%TF.SameCoordinates,Original*%
%TF.FileFunction,Paste,Bot*%
%TF.FilePolarity,Positive*%
%FSLAX46Y46*%
G04 Gerber Fmt 4.6, Leading zero omitted, Abs format (unit mm)*
G04 Created by KiCad (PCBNEW 9.0.0-rc2) date 2026-08-26 19:50:12*
%MOMM*%
%LPD*%
G01*
G04 APERTURE LIST*
G04 Aperture macros list*
%AMRoundRect*
0 Rectangle with rounded corners*
0 $1 Rounding radius*
0 $2 $3 $4 $5 $6 $7 $8 $9 X,Y pos of 4 corners*
0 Add a 4 corners polygon primitive as box body*
4,1,4,$2,$3,$4,$5,$6,$7,$8,$9,$2,$3,0*
0 Add four circle primitives for the rounded corners*
1,1,$1+$1,$2,$3*
1,1,$1+$1,$4,$5*
1,1,$1+$1,$6,$7*
1,1,$1+$1,$8,$9*
0 Add four rect primitives between the rounded corners*
20,1,$1+$1,$2,$3,$4,$5,0*
20,1,$1+$1,$4,$5,$6,$7,0*
20,1,$1+$1,$6,$7,$8,$9,0*
20,1,$1+$1,$8,$9,$2,$3,0*%
G04 Aperture macros list end*
%ADD10RoundRect,0.135000X-0.135000X-0.185000X0.135000X-0.185000X0.135000X0.185000X-0.135000X0.185000X0*%
%ADD11RoundRect,0.140000X0.170000X-0.140000X0.170000X0.140000X-0.170000X0.140000X-0.170000X-0.140000X0*%
%ADD12R,0.990600X1.041400*%
%ADD13R,1.041400X2.209800*%
%ADD14RoundRect,0.250000X0.925000X-0.412500X0.925000X0.412500X-0.925000X0.412500X-0.925000X-0.412500X0*%
%ADD15RoundRect,0.147500X0.172500X-0.147500X0.172500X0.147500X-0.172500X0.147500X-0.172500X-0.147500X0*%
%ADD16R,1.041400X0.990600*%
%ADD17R,2.209800X1.041400*%
%ADD18R,0.600000X2.000000*%
%ADD19R,2.000000X0.600000*%
%ADD20R,1.100000X1.600000*%
%ADD21R,1.600000X1.100000*%
%ADD22R,3.100000X3.100000*%
%ADD23RoundRect,0.140000X-0.140000X-0.170000X0.140000X-0.170000X0.140000X0.170000X-0.140000X0.170000X0*%
G04 APERTURE END LIST*
D10*
%TO.C,R86*%
X139080000Y-124900000D03*
X140100000Y-124900000D03*
%TD*%
D11*
%TO.C,C68*%
X100650000Y-117310000D03*
X100650000Y-116350000D03*
%TD*%
%TO.C,C66*%
X102000000Y-117400000D03*
X102000000Y-116440000D03*
%TD*%
D10*
%TO.C,R82*%
X108300000Y-89950000D03*
X109320000Y-89950000D03*
%TD*%
D12*
%TO.C,AE4*%
X104139600Y-84625016D03*
D13*
X105614601Y-83100000D03*
X102664599Y-83100000D03*
%TD*%
D14*
%TO.C,C23*%
X141250000Y-118987500D03*
X141250000Y-115912500D03*
%TD*%
%TO.C,C67*%
X146300000Y-118837500D03*
X146300000Y-115762500D03*
%TD*%
D15*
%TO.C,L9*%
X106350000Y-87620000D03*
X106350000Y-86650000D03*
%TD*%
D16*
%TO.C,AE3*%
X143524984Y-125075001D03*
D17*
X145050000Y-126550002D03*
X145050000Y-123600000D03*
%TD*%
D18*
%TO.C,IC4*%
X110450000Y-95050000D03*
X111450000Y-95050000D03*
X112450000Y-95050000D03*
X113450000Y-95050000D03*
X114450000Y-95050000D03*
X115450000Y-95050000D03*
X116450000Y-95050000D03*
X117450000Y-95050000D03*
X118450000Y-95050000D03*
X119450000Y-95050000D03*
X120450000Y-95050000D03*
X121450000Y-95050000D03*
X122450000Y-95050000D03*
X123450000Y-95050000D03*
X124450000Y-95050000D03*
X125450000Y-95050000D03*
X126450000Y-95050000D03*
X127450000Y-95050000D03*
X128450000Y-95050000D03*
X129450000Y-95050000D03*
D19*
X134950000Y-100550000D03*
X134950000Y-101550000D03*
X134950000Y-102550000D03*
X134950000Y-103550000D03*
X134950000Y-104550000D03*
X134950000Y-105550000D03*
X134950000Y-106550000D03*
X134950000Y-107550000D03*
X134950000Y-108550000D03*
X134950000Y-109550000D03*
X134950000Y-110550000D03*
X134950000Y-111550000D03*
X134950000Y-112550000D03*
X134950000Y-113550000D03*
X134950000Y-114550000D03*
X134950000Y-115550000D03*
X134950000Y-116550000D03*
X134950000Y-117550000D03*
X134950000Y-118550000D03*
X134950000Y-119550000D03*
D18*
X129450000Y-125050000D03*
X128450000Y-125050000D03*
X127450000Y-125050000D03*
X126450000Y-125050000D03*
X125450000Y-125050000D03*
X124450000Y-125050000D03*
X123450000Y-125050000D03*
X122450000Y-125050000D03*
X121450000Y-125050000D03*
X120450000Y-125050000D03*
X119450000Y-125050000D03*
X118450000Y-125050000D03*
X117450000Y-125050000D03*
X116450000Y-125050000D03*
X115450000Y-125050000D03*
X114450000Y-125050000D03*
X113450000Y-125050000D03*
X112450000Y-125050000D03*
X111450000Y-125050000D03*
X110450000Y-125050000D03*
D19*
X104950000Y-119550000D03*
X104950000Y-118550000D03*
X104950000Y-117550000D03*
X104950000Y-116550000D03*
X104950000Y-115550000D03*
X104950000Y-114550000D03*
X104950000Y-113550000D03*
X104950000Y-112550000D03*
X104950000Y-111550000D03*
X104950000Y-110550000D03*
X104950000Y-109550000D03*
X104950000Y-108550000D03*
X104950000Y-107550000D03*
X104950000Y-106550000D03*
X104950000Y-105550000D03*
X104950000Y-104550000D03*
X104950000Y-103550000D03*
X104950000Y-102550000D03*
X104950000Y-101550000D03*
X104950000Y-100550000D03*
D18*
X130450000Y-95050000D03*
X130450000Y-125050000D03*
D19*
X134950000Y-120550000D03*
X134950000Y-99550000D03*
D18*
X109450000Y-125050000D03*
D19*
X104950000Y-99550000D03*
X104950000Y-120550000D03*
D20*
X113650000Y-98050000D03*
X115450000Y-98050000D03*
X117250000Y-98050000D03*
X119050000Y-98050000D03*
X120850000Y-98050000D03*
X122650000Y-98050000D03*
X124450000Y-98050000D03*
X126250000Y-98050000D03*
D21*
X131950000Y-103750000D03*
X131950000Y-105550000D03*
X131950000Y-107350000D03*
X131950000Y-109150000D03*
X131950000Y-110950000D03*
X131950000Y-112750000D03*
X131950000Y-114550000D03*
X131950000Y-116350000D03*
D20*
X126250000Y-122050000D03*
X124450000Y-122050000D03*
X122650000Y-122050000D03*
X120850000Y-122050000D03*
X119050000Y-122050000D03*
X117250000Y-122050000D03*
X115450000Y-122050000D03*
X113650000Y-122050000D03*
D21*
X107950000Y-116350000D03*
X107950000Y-114550000D03*
X107950000Y-112750000D03*
X107950000Y-110950000D03*
X107950000Y-109150000D03*
X107950000Y-107350000D03*
X107950000Y-105550000D03*
X107950000Y-103750000D03*
D22*
X113950000Y-104050000D03*
X113950000Y-108050000D03*
X113950000Y-112050000D03*
X113950000Y-116050000D03*
X117950000Y-104050000D03*
X117950000Y-108050000D03*
X117950000Y-112050000D03*
X117950000Y-116050000D03*
X121950000Y-104050000D03*
X121950000Y-108050000D03*
X121950000Y-112050000D03*
X121950000Y-116050000D03*
X125950000Y-104050000D03*
X125950000Y-108050000D03*
X125950000Y-112050000D03*
X125950000Y-116050000D03*
%TD*%
D23*
%TO.C,C71*%
X113750000Y-90250000D03*
X114710000Y-90250000D03*
%TD*%
D11*
%TO.C,C70*%
X104350000Y-88700000D03*
X104350000Y-87740000D03*
%TD*%
M02*
