M48
; DRILL file {KiCad 9.0.0-rc2} date 2026-08-26T19:50:22+0300
; FORMAT={-:-/ absolute / metric / decimal}
; #@! TF.CreationDate,2026-08-26T19:50:22+03:00
; #@! TF.GenerationSoftware,Kicad,Pcbnew,9.0.0-rc2
; #@! TF.FileFunction,Plated,1,4,PTH
FMAT,2
METRIC
; #@! TA.AperFunction,Plated,PTH,ComponentDrill
T1C0.200
; #@! TA.AperFunction,Plated,PTH,ViaDrill
T2C0.300
; #@! TA.AperFunction,Plated,PTH,ComponentDrill
T3C0.600
; #@! TA.AperFunction,Plated,PTH,ComponentDrill
T4C0.650
; #@! TA.AperFunction,Plated,PTH,ComponentDrill
T5C0.800
; #@! TA.AperFunction,Plated,PTH,ComponentDrill
T6C1.850
%
G90
G05
T1
X134.15Y-56.95
X134.15Y-58.35
X134.85Y-56.25
X134.85Y-57.65
X134.85Y-59.05
X135.55Y-56.95
X135.55Y-58.35
X136.25Y-56.25
X136.25Y-57.65
X136.25Y-59.05
X136.95Y-56.95
X136.95Y-58.35
T2
X100.785Y-118.315
X102.05Y-118.9
X102.1Y-114.5
X102.65Y-109.6
X102.9Y-100.15
X102.9Y-102.5
X102.9Y-112.4
X103.225Y-54.975
X103.25Y-88.9
X103.3Y-97.75
X103.5Y-87.75
X103.8Y-90.15
X104.5Y-80.55
X104.7Y-91.2
X105.0Y-86.0
X105.1Y-91.85
X105.4Y-87.65
X105.65Y-92.15
X105.95Y-75.15
X106.45Y-93.15
X106.653Y-82.285
X107.1Y-93.8
X107.2Y-94.7
X107.25Y-90.75
X107.4Y-86.25
X107.45Y-88.05
X107.65Y-91.95
X107.75Y-119.1
X107.9Y-51.1
X108.45Y-92.75
X108.85Y-63.5
X109.0Y-57.55
X109.15Y-94.6
X109.2Y-93.6
X110.2Y-84.35
X111.7Y-75.75
X112.45Y-127.0
X115.2Y-55.05
X116.6Y-87.0
X116.65Y-118.6
X116.95Y-83.65
X117.1Y-53.6
X121.45Y-127.7
X121.65Y-119.55
X121.75Y-63.1
X122.55Y-60.25
X122.75Y-49.95
X122.95Y-54.85
X123.0Y-65.65
X123.25Y-67.85
X123.7Y-96.65
X125.2Y-92.15
X125.25Y-119.3
X125.55Y-116.55
X125.85Y-59.05
X126.05Y-91.2
X126.15Y-57.7
X126.35Y-61.8
X126.45Y-70.9
X127.5Y-78.5
X127.6Y-80.5
X128.044Y-91.405
X128.05Y-85.95
X128.45Y-118.55
X128.9Y-120.75
X129.4Y-106.7
X129.55Y-128.1
X129.6Y-91.65
X129.7Y-69.95
X129.7Y-81.1
X131.2Y-93.25
X131.4Y-65.7
X131.75Y-123.95
X131.9Y-126.05
X132.25Y-73.05
X132.45Y-123.1
X132.5Y-126.55
X132.8Y-124.0
X133.0Y-126.0
X133.35Y-123.25
X133.75Y-90.15
X134.05Y-126.65
X134.1Y-124.0
X134.15Y-64.9
X134.15Y-70.05
X134.65Y-126.05
X134.8Y-123.5
X135.4Y-126.75
X135.45Y-124.0
X135.6Y-64.85
X136.0Y-126.05
X136.1Y-123.35
X136.35Y-126.9
X136.5Y-124.1
X136.9Y-70.7
X136.95Y-123.2
X137.05Y-125.95
X137.1Y-65.4
X137.5Y-124.0
X137.6Y-111.5
X137.65Y-109.7
X137.8Y-113.35
X137.8Y-126.9
X138.05Y-72.15
X138.05Y-86.1
X138.1Y-115.15
X138.25Y-123.35
X138.3Y-118.95
X138.3Y-126.1
X138.5Y-82.25
X138.65Y-95.5
X138.75Y-65.9
X138.8Y-123.9
X138.9Y-72.75
X139.15Y-119.8
X139.3Y-121.15
X139.3Y-126.8
X139.35Y-82.9
X139.45Y-73.35
X139.75Y-126.05
X139.8Y-123.95
X140.05Y-120.7
X140.15Y-70.55
X140.4Y-82.25
X140.55Y-126.75
X140.7Y-123.9
X141.15Y-83.3
X141.25Y-105.4
X141.25Y-121.25
X141.25Y-126.25
X141.25Y-127.35
X141.5Y-82.25
X141.6Y-123.65
X141.6Y-124.35
X142.05Y-83.25
X142.1Y-122.8
X142.2Y-126.2
X142.25Y-127.0
X142.4Y-124.25
X142.5Y-127.95
X142.55Y-121.15
X142.65Y-122.0
X143.2Y-107.1
X143.2Y-122.6
X143.35Y-120.4
X143.6Y-63.9
X143.6Y-121.05
X143.65Y-127.9
X143.85Y-98.95
X143.95Y-119.9
X144.1Y-70.45
X144.15Y-79.4
X144.634Y-127.784
X144.65Y-75.35
X144.65Y-80.15
X144.95Y-81.1
X145.15Y-79.3
X145.5Y-123.35
X145.5Y-123.35
X145.7Y-80.7
X146.0Y-79.7
X146.25Y-91.6
X146.35Y-100.3
X146.6Y-128.25
X147.2Y-122.65
X147.2Y-127.75
X147.5Y-70.05
X147.65Y-124.05
X147.85Y-127.35
X147.95Y-123.4
X148.05Y-49.7
X148.3Y-72.7
X148.65Y-91.6
X150.2Y-115.65
X150.35Y-100.7
X150.55Y-52.75
X150.55Y-90.85
X151.9Y-61.7
X152.2Y-50.3
X153.25Y-64.4
X153.3Y-60.4
X153.3Y-61.1
X153.35Y-58.9
X153.35Y-62.05
X153.4Y-63.1
X153.4Y-68.15
X153.4Y-69.35
X153.45Y-66.65
X153.55Y-65.7
X153.65Y-57.85
X154.0Y-60.7
X154.0Y-63.8
X154.0Y-64.9
X154.05Y-59.35
X154.05Y-62.35
X154.1Y-54.3
X154.1Y-61.6
X154.1Y-67.45
X154.15Y-101.85
X154.2Y-66.25
X154.2Y-103.85
X154.25Y-56.9
X154.35Y-89.15
X154.6Y-57.85
X154.6Y-69.7
X155.1Y-57.1
X155.15Y-79.65
X155.9Y-57.65
X156.2Y-56.9
X156.65Y-79.4
X157.1Y-57.6
X157.85Y-56.6
X158.1Y-79.6
X158.6Y-57.6
X159.0Y-71.95
X159.8Y-56.55
X160.05Y-87.75
X160.3Y-57.65
X160.3Y-104.1
X160.5Y-78.95
X161.3Y-56.75
X162.1Y-57.6
X162.2Y-114.95
X162.25Y-112.4
X162.45Y-119.4
X162.45Y-127.75
X162.5Y-120.6
X162.55Y-117.5
X162.65Y-125.1
X162.9Y-56.7
X163.15Y-105.3
X163.3Y-102.35
X163.5Y-57.7
X163.55Y-89.4
X163.65Y-128.95
X164.1Y-100.15
X164.3Y-56.55
X165.05Y-128.9
X165.45Y-58.0
X166.4Y-56.75
X166.8Y-57.7
X167.05Y-110.7
X167.6Y-56.85
X167.6Y-69.85
X167.95Y-128.7
X168.0Y-57.95
X168.15Y-59.35
X168.2Y-110.95
X168.3Y-68.7
X168.35Y-60.4
X168.35Y-66.9
X168.4Y-92.25
X168.75Y-61.7
X168.8Y-57.85
X168.8Y-64.05
X168.8Y-65.65
X168.85Y-57.15
X168.85Y-58.8
X169.0Y-62.8
X169.1Y-59.8
X169.4Y-67.65
X169.6Y-59.1
X169.6Y-66.8
X169.65Y-65.8
X169.65Y-69.2
X169.75Y-99.35
X169.75Y-128.75
X169.8Y-61.35
X169.8Y-63.0
X169.85Y-64.4
X169.9Y-51.2
X169.9Y-52.15
X169.95Y-53.2
X170.0Y-60.3
X170.5Y-49.85
X171.3Y-74.45
X171.85Y-100.75
X172.15Y-128.7
X172.55Y-114.5
X172.65Y-62.8
X172.85Y-107.35
X172.9Y-111.6
X173.05Y-118.1
X173.05Y-127.8
X173.3Y-103.8
X173.45Y-123.4
X173.5Y-125.15
T4
X165.63Y-104.6
X168.17Y-107.14
X170.71Y-104.6
T5
X166.45Y-115.81
X166.45Y-118.35
X166.45Y-120.89
X166.45Y-123.43
T6
X152.1Y-110.95
X158.8Y-113.9
T3
G00X101.225Y-51.28
M15
G01X100.425Y-51.28
M16
G05
G00X101.225Y-59.92
M15
G01X100.425Y-59.92
M16
G05
G00X105.555Y-51.28
M15
G01X104.455Y-51.28
M16
G05
G00X105.555Y-59.92
M15
G01X104.455Y-59.92
M16
G05
M30
