%TF.GenerationSoftware,KiCad,Pcbnew,9.0.0-rc2*%
%TF.CreationDate,2026-09-01T23:36:21+03:00*%
%TF.ProjectId,schematic,73636865-6d61-4746-9963-2e6b69636164,rev?*%
%TF.SameCoordinates,Original*%
%TF.FileFunction,Soldermask,Bot*%
%TF.FilePolarity,Negative*%
%FSLAX46Y46*%
G04 Gerber Fmt 4.6, Leading zero omitted, Abs format (unit mm)*
G04 Created by KiCad (PCBNEW 9.0.0-rc2) date 2026-09-01 23:36:21*
%MOMM*%
%LPD*%
G01*
G04 APERTURE LIST*
G04 Aperture macros list*
%AMRoundRect*
0 Rectangle with rounded corners*
0 $1 Rounding radius*
0 $2 $3 $4 $5 $6 $7 $8 $9 X,Y pos of 4 corners*
0 Add a 4 corners polygon primitive as box body*
4,1,4,$2,$3,$4,$5,$6,$7,$8,$9,$2,$3,0*
0 Add four circle primitives for the rounded corners*
1,1,$1+$1,$2,$3*
1,1,$1+$1,$4,$5*
1,1,$1+$1,$6,$7*
1,1,$1+$1,$8,$9*
0 Add four rect primitives between the rounded corners*
20,1,$1+$1,$2,$3,$4,$5,0*
20,1,$1+$1,$4,$5,$6,$7,0*
20,1,$1+$1,$6,$7,$8,$9,0*
20,1,$1+$1,$8,$9,$2,$3,0*%
G04 Aperture macros list end*
%ADD10R,3.100000X3.100000*%
%ADD11R,1.600000X1.100000*%
%ADD12R,1.100000X1.600000*%
%ADD13R,2.000000X0.600000*%
%ADD14R,0.600000X2.000000*%
%ADD15C,0.650000*%
%ADD16O,2.100000X1.000000*%
%ADD17O,1.800000X1.000000*%
%ADD18C,3.400000*%
%ADD19C,1.192000*%
%ADD20R,1.500000X1.500000*%
%ADD21C,1.500000*%
%ADD22RoundRect,0.140000X0.170000X-0.140000X0.170000X0.140000X-0.170000X0.140000X-0.170000X-0.140000X0*%
%ADD23RoundRect,0.135000X0.185000X-0.135000X0.185000X0.135000X-0.185000X0.135000X-0.185000X-0.135000X0*%
%ADD24R,0.450000X1.475000*%
%ADD25RoundRect,0.140000X0.140000X0.170000X-0.140000X0.170000X-0.140000X-0.170000X0.140000X-0.170000X0*%
%ADD26RoundRect,0.150000X0.587500X0.150000X-0.587500X0.150000X-0.587500X-0.150000X0.587500X-0.150000X0*%
%ADD27RoundRect,0.140000X-0.170000X0.140000X-0.170000X-0.140000X0.170000X-0.140000X0.170000X0.140000X0*%
%ADD28RoundRect,0.140000X-0.140000X-0.170000X0.140000X-0.170000X0.140000X0.170000X-0.140000X0.170000X0*%
%ADD29RoundRect,0.135000X0.135000X0.185000X-0.135000X0.185000X-0.135000X-0.185000X0.135000X-0.185000X0*%
%ADD30RoundRect,0.125000X0.125000X-0.825000X0.125000X0.825000X-0.125000X0.825000X-0.125000X-0.825000X0*%
%ADD31RoundRect,0.225000X0.225000X0.375000X-0.225000X0.375000X-0.225000X-0.375000X0.225000X-0.375000X0*%
%ADD32RoundRect,0.135000X-0.185000X0.135000X-0.185000X-0.135000X0.185000X-0.135000X0.185000X0.135000X0*%
%ADD33RoundRect,0.135000X-0.135000X-0.185000X0.135000X-0.185000X0.135000X0.185000X-0.135000X0.185000X0*%
%ADD34R,1.150000X1.000000*%
%ADD35R,0.990600X1.041400*%
%ADD36R,1.041400X2.209800*%
%ADD37RoundRect,0.250000X0.925000X-0.412500X0.925000X0.412500X-0.925000X0.412500X-0.925000X-0.412500X0*%
%ADD38RoundRect,0.147500X0.172500X-0.147500X0.172500X0.147500X-0.172500X0.147500X-0.172500X-0.147500X0*%
%ADD39R,1.041400X0.990600*%
%ADD40R,2.209800X1.041400*%
G04 APERTURE END LIST*
D10*
%TO.C,IC4*%
X125950000Y-116050000D03*
X125950000Y-112050000D03*
X125950000Y-108050000D03*
X125950000Y-104050000D03*
X121950000Y-116050000D03*
X121950000Y-112050000D03*
X121950000Y-108050000D03*
X121950000Y-104050000D03*
X117950000Y-116050000D03*
X117950000Y-112050000D03*
X117950000Y-108050000D03*
X117950000Y-104050000D03*
X113950000Y-116050000D03*
X113950000Y-112050000D03*
X113950000Y-108050000D03*
X113950000Y-104050000D03*
D11*
X107950000Y-103750000D03*
X107950000Y-105550000D03*
X107950000Y-107350000D03*
X107950000Y-109150000D03*
X107950000Y-110950000D03*
X107950000Y-112750000D03*
X107950000Y-114550000D03*
X107950000Y-116350000D03*
D12*
X113650000Y-122050000D03*
X115450000Y-122050000D03*
X117250000Y-122050000D03*
X119050000Y-122050000D03*
X120850000Y-122050000D03*
X122650000Y-122050000D03*
X124450000Y-122050000D03*
X126250000Y-122050000D03*
D11*
X131950000Y-116350000D03*
X131950000Y-114550000D03*
X131950000Y-112750000D03*
X131950000Y-110950000D03*
X131950000Y-109150000D03*
X131950000Y-107350000D03*
X131950000Y-105550000D03*
X131950000Y-103750000D03*
D12*
X126250000Y-98050000D03*
X124450000Y-98050000D03*
X122650000Y-98050000D03*
X120850000Y-98050000D03*
X119050000Y-98050000D03*
X117250000Y-98050000D03*
X115450000Y-98050000D03*
X113650000Y-98050000D03*
D13*
X104950000Y-120550000D03*
X104950000Y-99550000D03*
D14*
X109450000Y-125050000D03*
D13*
X134950000Y-99550000D03*
X134950000Y-120550000D03*
D14*
X130450000Y-125050000D03*
X130450000Y-95050000D03*
D13*
X104950000Y-100550000D03*
X104950000Y-101550000D03*
X104950000Y-102550000D03*
X104950000Y-103550000D03*
X104950000Y-104550000D03*
X104950000Y-105550000D03*
X104950000Y-106550000D03*
X104950000Y-107550000D03*
X104950000Y-108550000D03*
X104950000Y-109550000D03*
X104950000Y-110550000D03*
X104950000Y-111550000D03*
X104950000Y-112550000D03*
X104950000Y-113550000D03*
X104950000Y-114550000D03*
X104950000Y-115550000D03*
X104950000Y-116550000D03*
X104950000Y-117550000D03*
X104950000Y-118550000D03*
X104950000Y-119550000D03*
D14*
X110450000Y-125050000D03*
X111450000Y-125050000D03*
X112450000Y-125050000D03*
X113450000Y-125050000D03*
X114450000Y-125050000D03*
X115450000Y-125050000D03*
X116450000Y-125050000D03*
X117450000Y-125050000D03*
X118450000Y-125050000D03*
X119450000Y-125050000D03*
X120450000Y-125050000D03*
X121450000Y-125050000D03*
X122450000Y-125050000D03*
X123450000Y-125050000D03*
X124450000Y-125050000D03*
X125450000Y-125050000D03*
X126450000Y-125050000D03*
X127450000Y-125050000D03*
X128450000Y-125050000D03*
X129450000Y-125050000D03*
D13*
X134950000Y-119550000D03*
X134950000Y-118550000D03*
X134950000Y-117550000D03*
X134950000Y-116550000D03*
X134950000Y-115550000D03*
X134950000Y-114550000D03*
X134950000Y-113550000D03*
X134950000Y-112550000D03*
X134950000Y-111550000D03*
X134950000Y-110550000D03*
X134950000Y-109550000D03*
X134950000Y-108550000D03*
X134950000Y-107550000D03*
X134950000Y-106550000D03*
X134950000Y-105550000D03*
X134950000Y-104550000D03*
X134950000Y-103550000D03*
X134950000Y-102550000D03*
X134950000Y-101550000D03*
X134950000Y-100550000D03*
D14*
X129450000Y-95050000D03*
X128450000Y-95050000D03*
X127450000Y-95050000D03*
X126450000Y-95050000D03*
X125450000Y-95050000D03*
X124450000Y-95050000D03*
X123450000Y-95050000D03*
X122450000Y-95050000D03*
X121450000Y-95050000D03*
X120450000Y-95050000D03*
X119450000Y-95050000D03*
X118450000Y-95050000D03*
X117450000Y-95050000D03*
X116450000Y-95050000D03*
X115450000Y-95050000D03*
X114450000Y-95050000D03*
X113450000Y-95050000D03*
X112450000Y-95050000D03*
X111450000Y-95050000D03*
X110450000Y-95050000D03*
%TD*%
D15*
%TO.C,J3*%
X104505000Y-52710000D03*
X104505000Y-58490000D03*
D16*
X105005000Y-51280000D03*
D17*
X100825000Y-51280000D03*
D16*
X105005000Y-59920000D03*
D17*
X100825000Y-59920000D03*
%TD*%
D18*
%TO.C,BAT-1*%
X151950000Y-125900000D03*
%TD*%
D19*
%TO.C,IC2*%
X165630000Y-104600000D03*
X168170000Y-107140000D03*
X170710000Y-104600000D03*
%TD*%
D18*
%TO.C,GND*%
X172700000Y-85000000D03*
%TD*%
%TO.C,+5V*%
X172700000Y-92600000D03*
%TD*%
D20*
%TO.C,U3*%
X166450000Y-123430000D03*
D21*
X166450000Y-120890000D03*
X166450000Y-118350000D03*
X166450000Y-115810000D03*
%TD*%
D18*
%TO.C,BAT+1*%
X158150000Y-125900000D03*
%TD*%
D22*
%TO.C,C68*%
X100650000Y-117310000D03*
X100650000Y-116350000D03*
%TD*%
D23*
%TO.C,R11*%
X114300000Y-61270000D03*
X114300000Y-60250000D03*
%TD*%
D24*
%TO.C,IC1*%
X116175000Y-87838000D03*
X115525000Y-87838000D03*
X114875000Y-87838000D03*
X114225000Y-87838000D03*
X113575000Y-87838000D03*
X112925000Y-87838000D03*
X112275000Y-87838000D03*
X111625000Y-87838000D03*
X110975000Y-87838000D03*
X110325000Y-87838000D03*
X110325000Y-81962000D03*
X110975000Y-81962000D03*
X111625000Y-81962000D03*
X112275000Y-81962000D03*
X112925000Y-81962000D03*
X113575000Y-81962000D03*
X114225000Y-81962000D03*
X114875000Y-81962000D03*
X115525000Y-81962000D03*
X116175000Y-81962000D03*
%TD*%
D25*
%TO.C,C15*%
X110200000Y-63300000D03*
X109240000Y-63300000D03*
%TD*%
D22*
%TO.C,C66*%
X102000000Y-117400000D03*
X102000000Y-116440000D03*
%TD*%
D26*
%TO.C,D13*%
X125937500Y-67150000D03*
X125937500Y-69050000D03*
X124062500Y-68100000D03*
%TD*%
D27*
%TO.C,C14*%
X112750000Y-60340000D03*
X112750000Y-61300000D03*
%TD*%
D28*
%TO.C,C72*%
X115500000Y-90650000D03*
X116460000Y-90650000D03*
%TD*%
D25*
%TO.C,C73*%
X115630000Y-79500000D03*
X114670000Y-79500000D03*
%TD*%
D29*
%TO.C,R82*%
X108610000Y-89600000D03*
X107590000Y-89600000D03*
%TD*%
D30*
%TO.C,U8*%
X115475000Y-57912500D03*
X114825000Y-57912500D03*
X114175000Y-57912500D03*
X113525000Y-57912500D03*
X112875000Y-57912500D03*
X112225000Y-57912500D03*
X111575000Y-57912500D03*
X110925000Y-57912500D03*
X110275000Y-57912500D03*
X109625000Y-57912500D03*
X109625000Y-50912500D03*
X110275000Y-50912500D03*
X110925000Y-50912500D03*
X111575000Y-50912500D03*
X112225000Y-50912500D03*
X112875000Y-50912500D03*
X113525000Y-50912500D03*
X114175000Y-50912500D03*
X114825000Y-50912500D03*
X115475000Y-50912500D03*
%TD*%
D31*
%TO.C,D10*%
X118900000Y-63750000D03*
X115600000Y-63750000D03*
%TD*%
D32*
%TO.C,R20*%
X120850000Y-55790000D03*
X120850000Y-56810000D03*
%TD*%
D33*
%TO.C,R19*%
X112550000Y-64850000D03*
X113570000Y-64850000D03*
%TD*%
D27*
%TO.C,C16*%
X107100000Y-60470000D03*
X107100000Y-61430000D03*
%TD*%
D26*
%TO.C,Q11*%
X125325000Y-60200000D03*
X125325000Y-62100000D03*
X123450000Y-61150000D03*
%TD*%
D34*
%TO.C,Y1*%
X110350000Y-61650000D03*
X108600000Y-61650000D03*
X108600000Y-60250000D03*
X110350000Y-60250000D03*
%TD*%
D25*
%TO.C,C71*%
X108510000Y-91000000D03*
X107550000Y-91000000D03*
%TD*%
D29*
%TO.C,R21*%
X123820000Y-58750000D03*
X122800000Y-58750000D03*
%TD*%
D31*
%TO.C,D12*%
X122750000Y-52000000D03*
X119450000Y-52000000D03*
%TD*%
D35*
%TO.C,AE4*%
X104139600Y-84625016D03*
D36*
X105614601Y-83100000D03*
X102664599Y-83100000D03*
%TD*%
D37*
%TO.C,C23*%
X141250000Y-118987500D03*
X141250000Y-115912500D03*
%TD*%
D33*
%TO.C,R112*%
X117880000Y-81900000D03*
X118900000Y-81900000D03*
%TD*%
D37*
%TO.C,C67*%
X146300000Y-118837500D03*
X146300000Y-115762500D03*
%TD*%
D33*
%TO.C,R111*%
X118100000Y-87850000D03*
X119120000Y-87850000D03*
%TD*%
D38*
%TO.C,L9*%
X106350000Y-87620000D03*
X106350000Y-86650000D03*
%TD*%
D39*
%TO.C,AE3*%
X143524984Y-125075001D03*
D40*
X145050000Y-126550002D03*
X145050000Y-123600000D03*
%TD*%
D33*
%TO.C,R86*%
X139080000Y-124900000D03*
X140100000Y-124900000D03*
%TD*%
D26*
%TO.C,Q10*%
X125337500Y-55200000D03*
X125337500Y-57100000D03*
X123462500Y-56150000D03*
%TD*%
D31*
%TO.C,D11*%
X118650000Y-66800000D03*
X115350000Y-66800000D03*
%TD*%
D23*
%TO.C,R22*%
X124050000Y-65070000D03*
X124050000Y-64050000D03*
%TD*%
D33*
%TO.C,R110*%
X107740000Y-87750000D03*
X108760000Y-87750000D03*
%TD*%
D25*
%TO.C,C13*%
X114280000Y-62400000D03*
X113320000Y-62400000D03*
%TD*%
D22*
%TO.C,C70*%
X104350000Y-88700000D03*
X104350000Y-87740000D03*
%TD*%
M02*
