%TF.GenerationSoftware,KiCad,Pcbnew,9.0.0-rc2*%
%TF.CreationDate,2026-09-01T23:36:21+03:00*%
%TF.ProjectId,schematic,73636865-6d61-4746-9963-2e6b69636164,rev?*%
%TF.SameCoordinates,Original*%
%TF.FileFunction,Soldermask,Top*%
%TF.FilePolarity,Negative*%
%FSLAX46Y46*%
G04 Gerber Fmt 4.6, Leading zero omitted, Abs format (unit mm)*
G04 Created by KiCad (PCBNEW 9.0.0-rc2) date 2026-09-01 23:36:21*
%MOMM*%
%LPD*%
G01*
G04 APERTURE LIST*
G04 Aperture macros list*
%AMRoundRect*
0 Rectangle with rounded corners*
0 $1 Rounding radius*
0 $2 $3 $4 $5 $6 $7 $8 $9 X,Y pos of 4 corners*
0 Add a 4 corners polygon primitive as box body*
4,1,4,$2,$3,$4,$5,$6,$7,$8,$9,$2,$3,0*
0 Add four circle primitives for the rounded corners*
1,1,$1+$1,$2,$3*
1,1,$1+$1,$4,$5*
1,1,$1+$1,$6,$7*
1,1,$1+$1,$8,$9*
0 Add four rect primitives between the rounded corners*
20,1,$1+$1,$2,$3,$4,$5,0*
20,1,$1+$1,$4,$5,$6,$7,0*
20,1,$1+$1,$6,$7,$8,$9,0*
20,1,$1+$1,$8,$9,$2,$3,0*%
G04 Aperture macros list end*
%ADD10C,0.650000*%
%ADD11RoundRect,0.150000X-0.425000X0.150000X-0.425000X-0.150000X0.425000X-0.150000X0.425000X0.150000X0*%
%ADD12RoundRect,0.075000X-0.500000X0.075000X-0.500000X-0.075000X0.500000X-0.075000X0.500000X0.075000X0*%
%ADD13O,2.100000X1.000000*%
%ADD14O,1.800000X1.000000*%
%ADD15RoundRect,0.225000X-0.250000X0.225000X-0.250000X-0.225000X0.250000X-0.225000X0.250000X0.225000X0*%
%ADD16RoundRect,0.135000X-0.185000X0.135000X-0.185000X-0.135000X0.185000X-0.135000X0.185000X0.135000X0*%
%ADD17RoundRect,0.150000X-0.587500X-0.150000X0.587500X-0.150000X0.587500X0.150000X-0.587500X0.150000X0*%
%ADD18RoundRect,0.218750X0.218750X0.256250X-0.218750X0.256250X-0.218750X-0.256250X0.218750X-0.256250X0*%
%ADD19C,3.400000*%
%ADD20R,1.050000X0.650000*%
%ADD21RoundRect,0.135000X-0.135000X-0.185000X0.135000X-0.185000X0.135000X0.185000X-0.135000X0.185000X0*%
%ADD22RoundRect,0.140000X-0.140000X-0.170000X0.140000X-0.170000X0.140000X0.170000X-0.140000X0.170000X0*%
%ADD23RoundRect,0.155000X-0.155000X0.212500X-0.155000X-0.212500X0.155000X-0.212500X0.155000X0.212500X0*%
%ADD24RoundRect,0.200000X-0.275000X0.200000X-0.275000X-0.200000X0.275000X-0.200000X0.275000X0.200000X0*%
%ADD25RoundRect,0.140000X-0.170000X0.140000X-0.170000X-0.140000X0.170000X-0.140000X0.170000X0.140000X0*%
%ADD26RoundRect,0.135000X0.185000X-0.135000X0.185000X0.135000X-0.185000X0.135000X-0.185000X-0.135000X0*%
%ADD27R,0.508000X0.558800*%
%ADD28R,2.387600X0.990600*%
%ADD29R,3.403600X0.990600*%
%ADD30RoundRect,0.140000X0.140000X0.170000X-0.140000X0.170000X-0.140000X-0.170000X0.140000X-0.170000X0*%
%ADD31RoundRect,0.150000X-0.512500X-0.150000X0.512500X-0.150000X0.512500X0.150000X-0.512500X0.150000X0*%
%ADD32RoundRect,0.218750X0.256250X-0.218750X0.256250X0.218750X-0.256250X0.218750X-0.256250X-0.218750X0*%
%ADD33RoundRect,0.200000X-0.200000X-0.275000X0.200000X-0.275000X0.200000X0.275000X-0.200000X0.275000X0*%
%ADD34C,1.500000*%
%ADD35RoundRect,0.250000X-1.000000X0.700000X-1.000000X-0.700000X1.000000X-0.700000X1.000000X0.700000X0*%
%ADD36RoundRect,0.250000X1.000000X0.650000X-1.000000X0.650000X-1.000000X-0.650000X1.000000X-0.650000X0*%
%ADD37RoundRect,0.225000X-0.225000X-0.250000X0.225000X-0.250000X0.225000X0.250000X-0.225000X0.250000X0*%
%ADD38RoundRect,0.140000X0.170000X-0.140000X0.170000X0.140000X-0.170000X0.140000X-0.170000X-0.140000X0*%
%ADD39RoundRect,0.250000X-0.475000X0.250000X-0.475000X-0.250000X0.475000X-0.250000X0.475000X0.250000X0*%
%ADD40C,2.500000*%
%ADD41RoundRect,0.135000X0.135000X0.185000X-0.135000X0.185000X-0.135000X-0.185000X0.135000X-0.185000X0*%
%ADD42RoundRect,0.160000X-0.565000X-0.240000X0.565000X-0.240000X0.565000X0.240000X-0.565000X0.240000X0*%
%ADD43RoundRect,0.120000X-0.605000X-0.180000X0.605000X-0.180000X0.605000X0.180000X-0.605000X0.180000X0*%
%ADD44RoundRect,0.225000X0.250000X-0.225000X0.250000X0.225000X-0.250000X0.225000X-0.250000X-0.225000X0*%
%ADD45RoundRect,0.100000X0.100000X-0.225000X0.100000X0.225000X-0.100000X0.225000X-0.100000X-0.225000X0*%
%ADD46RoundRect,0.250000X-1.500000X-0.550000X1.500000X-0.550000X1.500000X0.550000X-1.500000X0.550000X0*%
%ADD47C,1.192000*%
%ADD48RoundRect,0.218750X-0.218750X-0.256250X0.218750X-0.256250X0.218750X0.256250X-0.218750X0.256250X0*%
%ADD49R,0.650000X1.050000*%
%ADD50RoundRect,0.375000X-0.625000X-0.375000X0.625000X-0.375000X0.625000X0.375000X-0.625000X0.375000X0*%
%ADD51RoundRect,0.500000X-0.500000X-1.400000X0.500000X-1.400000X0.500000X1.400000X-0.500000X1.400000X0*%
%ADD52RoundRect,0.155000X0.212500X0.155000X-0.212500X0.155000X-0.212500X-0.155000X0.212500X-0.155000X0*%
%ADD53RoundRect,0.150000X0.587500X0.150000X-0.587500X0.150000X-0.587500X-0.150000X0.587500X-0.150000X0*%
%ADD54RoundRect,0.250002X1.499998X1.749998X-1.499998X1.749998X-1.499998X-1.749998X1.499998X-1.749998X0*%
%ADD55RoundRect,0.250000X0.925000X-0.412500X0.925000X0.412500X-0.925000X0.412500X-0.925000X-0.412500X0*%
%ADD56R,1.500000X1.500000*%
%ADD57RoundRect,0.250000X-0.700000X-1.000000X0.700000X-1.000000X0.700000X1.000000X-0.700000X1.000000X0*%
%ADD58RoundRect,0.225000X0.225000X0.375000X-0.225000X0.375000X-0.225000X-0.375000X0.225000X-0.375000X0*%
%ADD59R,1.525000X0.700000*%
%ADD60R,2.513000X3.402000*%
%ADD61RoundRect,0.250000X-0.550000X1.500000X-0.550000X-1.500000X0.550000X-1.500000X0.550000X1.500000X0*%
%ADD62R,1.790000X0.220000*%
%ADD63R,1.790000X0.240000*%
%ADD64R,0.240000X0.600000*%
%ADD65R,0.600000X0.240000*%
%ADD66RoundRect,0.150000X0.150000X-0.587500X0.150000X0.587500X-0.150000X0.587500X-0.150000X-0.587500X0*%
%ADD67RoundRect,0.250000X0.650000X-1.000000X0.650000X1.000000X-0.650000X1.000000X-0.650000X-1.000000X0*%
%ADD68R,1.500000X0.900000*%
%ADD69R,0.900000X1.500000*%
%ADD70C,0.600000*%
%ADD71R,4.200000X4.200000*%
G04 APERTURE END LIST*
D10*
%TO.C,J3*%
X104505000Y-52710000D03*
X104505000Y-58490000D03*
D11*
X105580000Y-52400000D03*
X105580000Y-53200000D03*
D12*
X105580000Y-54350000D03*
X105580000Y-55350000D03*
X105580000Y-55850000D03*
X105580000Y-56850000D03*
D11*
X105580000Y-58000000D03*
X105580000Y-58800000D03*
X105580000Y-58800000D03*
X105580000Y-58000000D03*
D12*
X105580000Y-57350000D03*
X105580000Y-56350000D03*
X105580000Y-54850000D03*
X105580000Y-53850000D03*
D11*
X105580000Y-53200000D03*
X105580000Y-52400000D03*
D13*
X105005000Y-51280000D03*
D14*
X100825000Y-51280000D03*
D13*
X105005000Y-59920000D03*
D14*
X100825000Y-59920000D03*
%TD*%
D15*
%TO.C,C21*%
X112000000Y-79225000D03*
X112000000Y-80775000D03*
%TD*%
D16*
%TO.C,R3*%
X160550000Y-76750000D03*
X160550000Y-77770000D03*
%TD*%
D17*
%TO.C,D15*%
X111612500Y-53550000D03*
X111612500Y-55450000D03*
X113487500Y-54500000D03*
%TD*%
D18*
%TO.C,D26*%
X109500000Y-96400000D03*
X107925000Y-96400000D03*
%TD*%
D19*
%TO.C,BAT-1*%
X151950000Y-125900000D03*
%TD*%
D20*
%TO.C,RESET1*%
X117450000Y-59500000D03*
X121600000Y-59500000D03*
X117450000Y-61650000D03*
X121600000Y-61650000D03*
%TD*%
D21*
%TO.C,R94*%
X118505000Y-102150000D03*
X119525000Y-102150000D03*
%TD*%
D22*
%TO.C,C69*%
X120440000Y-96600000D03*
X121400000Y-96600000D03*
%TD*%
D23*
%TO.C,C26*%
X118100000Y-51782500D03*
X118100000Y-52917500D03*
%TD*%
D24*
%TO.C,R24*%
X100250000Y-66075000D03*
X100250000Y-67725000D03*
%TD*%
D25*
%TO.C,C24*%
X137050000Y-82970000D03*
X137050000Y-83930000D03*
%TD*%
D26*
%TO.C,R89*%
X122500000Y-114860000D03*
X122500000Y-113840000D03*
%TD*%
D27*
%TO.C,J1*%
X115122000Y-117234984D03*
X115122000Y-115234988D03*
X115122000Y-111044999D03*
X115122000Y-118234977D03*
X115122000Y-116234986D03*
X115122000Y-112045002D03*
X115122000Y-113450000D03*
D28*
X114222000Y-107400000D03*
X114222000Y-122500000D03*
D29*
X105822001Y-107400000D03*
X105822001Y-122500000D03*
X100722001Y-107400000D03*
X100722001Y-122500000D03*
%TD*%
D23*
%TO.C,C28*%
X120000000Y-53750000D03*
X120000000Y-54885000D03*
%TD*%
D30*
%TO.C,C6*%
X120030000Y-57900000D03*
X119070000Y-57900000D03*
%TD*%
D31*
%TO.C,U2*%
X160975000Y-70350000D03*
X160975000Y-71300000D03*
X160975000Y-72250000D03*
X163250000Y-72250000D03*
X163250000Y-71300000D03*
X163250000Y-70350000D03*
%TD*%
D30*
%TO.C,C65*%
X148380000Y-109700000D03*
X147420000Y-109700000D03*
%TD*%
D32*
%TO.C,D23*%
X165450000Y-83737500D03*
X165450000Y-82162500D03*
%TD*%
D33*
%TO.C,R25*%
X103100000Y-64300000D03*
X104750000Y-64300000D03*
%TD*%
D34*
%TO.C,TP19*%
X143050000Y-112650000D03*
%TD*%
D18*
%TO.C,L3*%
X121337500Y-51732500D03*
X119762500Y-51732500D03*
%TD*%
D26*
%TO.C,R58*%
X159350000Y-84710000D03*
X159350000Y-83690000D03*
%TD*%
D25*
%TO.C,C52*%
X161200000Y-90400000D03*
X161200000Y-91360000D03*
%TD*%
D26*
%TO.C,R98*%
X111900000Y-83950000D03*
X111900000Y-82930000D03*
%TD*%
D18*
%TO.C,D27*%
X121562500Y-98750000D03*
X119987500Y-98750000D03*
%TD*%
D21*
%TO.C,R59*%
X158550000Y-95200000D03*
X159570000Y-95200000D03*
%TD*%
D26*
%TO.C,R90*%
X120900000Y-114850000D03*
X120900000Y-113830000D03*
%TD*%
D21*
%TO.C,R92*%
X123615000Y-99200000D03*
X124635000Y-99200000D03*
%TD*%
%TO.C,R13*%
X150600000Y-70650000D03*
X151620000Y-70650000D03*
%TD*%
D25*
%TO.C,C74*%
X119000000Y-118470000D03*
X119000000Y-119430000D03*
%TD*%
D21*
%TO.C,R88*%
X123880000Y-118450000D03*
X124900000Y-118450000D03*
%TD*%
D35*
%TO.C,L2*%
X140750000Y-75900000D03*
X140750000Y-80000000D03*
%TD*%
D36*
%TO.C,D17*%
X107350000Y-77850000D03*
X103350000Y-77850000D03*
%TD*%
D37*
%TO.C,C58*%
X161400000Y-84750000D03*
X162950000Y-84750000D03*
%TD*%
D38*
%TO.C,C10*%
X125100000Y-51550000D03*
X125100000Y-50590000D03*
%TD*%
D21*
%TO.C,R2*%
X159580000Y-75450000D03*
X160600000Y-75450000D03*
%TD*%
D39*
%TO.C,C55*%
X148600000Y-88300000D03*
X148600000Y-90200000D03*
%TD*%
D40*
%TO.C,Switch-1*%
X173250000Y-59150000D03*
%TD*%
D41*
%TO.C,R78*%
X139260000Y-105650000D03*
X138240000Y-105650000D03*
%TD*%
D25*
%TO.C,C9*%
X158150000Y-77100000D03*
X158150000Y-78060000D03*
%TD*%
D21*
%TO.C,R87*%
X103690000Y-84950000D03*
X104710000Y-84950000D03*
%TD*%
D41*
%TO.C,R80*%
X139700000Y-96700000D03*
X138680000Y-96700000D03*
%TD*%
D42*
%TO.C,D3*%
X164325000Y-51207500D03*
D43*
X164325000Y-52257500D03*
D42*
X164325000Y-53307500D03*
X167375000Y-53307500D03*
D43*
X167375000Y-52257500D03*
D42*
X167375000Y-51207500D03*
%TD*%
D21*
%TO.C,R76*%
X161230000Y-80550000D03*
X162250000Y-80550000D03*
%TD*%
D44*
%TO.C,C61*%
X133400000Y-103025000D03*
X133400000Y-101475000D03*
%TD*%
D26*
%TO.C,R1*%
X165500000Y-72660000D03*
X165500000Y-71640000D03*
%TD*%
%TO.C,R26*%
X133850000Y-81720000D03*
X133850000Y-80700000D03*
%TD*%
D45*
%TO.C,D25*%
X120850000Y-118300000D03*
X121500000Y-118300000D03*
X122150000Y-118300000D03*
X122150000Y-116400000D03*
X121500000Y-116400000D03*
X120850000Y-116400000D03*
%TD*%
D34*
%TO.C,TP18*%
X139300000Y-93100000D03*
%TD*%
D46*
%TO.C,C35*%
X130850000Y-88850000D03*
X136450000Y-88850000D03*
%TD*%
D47*
%TO.C,IC2*%
X165630000Y-104600000D03*
X168170000Y-107140000D03*
X170710000Y-104600000D03*
%TD*%
D25*
%TO.C,C8*%
X156700000Y-77100000D03*
X156700000Y-78060000D03*
%TD*%
%TO.C,C76*%
X115850000Y-85440000D03*
X115850000Y-86400000D03*
%TD*%
D15*
%TO.C,C22*%
X116200000Y-79425000D03*
X116200000Y-80975000D03*
%TD*%
D16*
%TO.C,R12*%
X122850000Y-52600000D03*
X122850000Y-53620000D03*
%TD*%
D17*
%TO.C,Q16*%
X122800000Y-101950000D03*
X122800000Y-103850000D03*
X124675000Y-102900000D03*
%TD*%
D48*
%TO.C,D24*%
X151200000Y-104150000D03*
X152775000Y-104150000D03*
%TD*%
D25*
%TO.C,C53*%
X150600000Y-88270000D03*
X150600000Y-89230000D03*
%TD*%
D26*
%TO.C,R95*%
X106625000Y-103620000D03*
X106625000Y-102600000D03*
%TD*%
D23*
%TO.C,C25*%
X116250000Y-51732500D03*
X116250000Y-52867500D03*
%TD*%
D25*
%TO.C,C3*%
X168550000Y-71670000D03*
X168550000Y-72630000D03*
%TD*%
D38*
%TO.C,C11*%
X123950000Y-51530000D03*
X123950000Y-50570000D03*
%TD*%
D39*
%TO.C,C54*%
X146200000Y-88250000D03*
X146200000Y-90150000D03*
%TD*%
D49*
%TO.C,BOOT1*%
X151675000Y-63404685D03*
X151675000Y-67554685D03*
X149525000Y-63404685D03*
X149525000Y-67554685D03*
%TD*%
D21*
%TO.C,R77*%
X151700000Y-101350000D03*
X152720000Y-101350000D03*
%TD*%
D26*
%TO.C,R14*%
X160850000Y-123590000D03*
X160850000Y-122570000D03*
%TD*%
D19*
%TO.C,GND*%
X172700000Y-85000000D03*
%TD*%
D38*
%TO.C,C62*%
X131650000Y-102630000D03*
X131650000Y-101670000D03*
%TD*%
D50*
%TO.C,Q9*%
X103250000Y-68250000D03*
X103250000Y-70550000D03*
D51*
X109550000Y-70550000D03*
D50*
X103250000Y-72850000D03*
%TD*%
D30*
%TO.C,C75*%
X120850000Y-112400000D03*
X119890000Y-112400000D03*
%TD*%
D31*
%TO.C,U10*%
X154162500Y-90437500D03*
X154162500Y-91387500D03*
X154162500Y-92337500D03*
X156437500Y-92337500D03*
X156437500Y-91387500D03*
X156437500Y-90437500D03*
%TD*%
D52*
%TO.C,C32*%
X168030000Y-97450000D03*
X166895000Y-97450000D03*
%TD*%
D41*
%TO.C,R31*%
X111960000Y-63500000D03*
X110940000Y-63500000D03*
%TD*%
D23*
%TO.C,C29*%
X175200000Y-119870000D03*
X175200000Y-121005000D03*
%TD*%
D40*
%TO.C,Switch+1*%
X173200000Y-52750000D03*
%TD*%
D53*
%TO.C,D16*%
X113625000Y-60512500D03*
X113625000Y-58612500D03*
X111750000Y-59562500D03*
%TD*%
D54*
%TO.C,L1*%
X166100000Y-63600000D03*
X156600000Y-63600000D03*
%TD*%
D55*
%TO.C,C59*%
X138300000Y-103737500D03*
X138300000Y-100662500D03*
%TD*%
D21*
%TO.C,R17*%
X159930000Y-52260000D03*
X160950000Y-52260000D03*
%TD*%
D30*
%TO.C,C63*%
X148330000Y-107150000D03*
X147370000Y-107150000D03*
%TD*%
D25*
%TO.C,C7*%
X155150000Y-77100000D03*
X155150000Y-78060000D03*
%TD*%
D26*
%TO.C,R79*%
X142800000Y-99150000D03*
X142800000Y-98130000D03*
%TD*%
D50*
%TO.C,Q8*%
X115550000Y-67950000D03*
X115550000Y-70250000D03*
D51*
X121850000Y-70250000D03*
D50*
X115550000Y-72550000D03*
%TD*%
D21*
%TO.C,R91*%
X110205000Y-99250000D03*
X111225000Y-99250000D03*
%TD*%
D22*
%TO.C,C1*%
X165570000Y-69850000D03*
X166530000Y-69850000D03*
%TD*%
D19*
%TO.C,+5V*%
X172700000Y-92600000D03*
%TD*%
D41*
%TO.C,R27*%
X132210000Y-80600000D03*
X131190000Y-80600000D03*
%TD*%
D21*
%TO.C,R18*%
X159930000Y-54250000D03*
X160950000Y-54250000D03*
%TD*%
D56*
%TO.C,U3*%
X166450000Y-123430000D03*
D34*
X166450000Y-120890000D03*
X166450000Y-118350000D03*
X166450000Y-115810000D03*
%TD*%
D16*
%TO.C,R15*%
X161350000Y-105440000D03*
X161350000Y-106460000D03*
%TD*%
D26*
%TO.C,R96*%
X119225000Y-105320000D03*
X119225000Y-104300000D03*
%TD*%
D57*
%TO.C,L5*%
X153050000Y-85500000D03*
X157150000Y-85500000D03*
%TD*%
D44*
%TO.C,C60*%
X135150000Y-103125000D03*
X135150000Y-101575000D03*
%TD*%
D30*
%TO.C,C64*%
X148350000Y-108500000D03*
X147390000Y-108500000D03*
%TD*%
D16*
%TO.C,R81*%
X115700000Y-58900000D03*
X115700000Y-59920000D03*
%TD*%
D58*
%TO.C,D28*%
X126000000Y-89100000D03*
X122700000Y-89100000D03*
%TD*%
D22*
%TO.C,C57*%
X161620000Y-88650000D03*
X162580000Y-88650000D03*
%TD*%
D21*
%TO.C,R16*%
X159930000Y-50270000D03*
X160950000Y-50270000D03*
%TD*%
D59*
%TO.C,U4*%
X142850000Y-101640000D03*
X142850000Y-102910000D03*
X142850000Y-104180000D03*
X142850000Y-105450000D03*
X148274000Y-105450000D03*
X148274000Y-104180000D03*
X148274000Y-102910000D03*
X148274000Y-101640000D03*
D60*
X145562000Y-103545000D03*
%TD*%
D25*
%TO.C,C2*%
X167100000Y-71690000D03*
X167100000Y-72650000D03*
%TD*%
D21*
%TO.C,R93*%
X105725000Y-100150000D03*
X106745000Y-100150000D03*
%TD*%
D17*
%TO.C,Q15*%
X109437500Y-101987500D03*
X109437500Y-103887500D03*
X111312500Y-102937500D03*
%TD*%
D21*
%TO.C,R57*%
X158430000Y-90400000D03*
X159450000Y-90400000D03*
%TD*%
D61*
%TO.C,C31*%
X122650000Y-77000000D03*
X122650000Y-82600000D03*
%TD*%
D26*
%TO.C,R100*%
X109800000Y-87520000D03*
X109800000Y-86500000D03*
%TD*%
D62*
%TO.C,IC3*%
X132855000Y-77540000D03*
D63*
X132855000Y-77050000D03*
D62*
X132855000Y-76560000D03*
D64*
X133050000Y-75650000D03*
X132550000Y-75650000D03*
X132050000Y-75650000D03*
X131550000Y-75650000D03*
D65*
X131150000Y-76550000D03*
X131150000Y-77050000D03*
X131150000Y-77550000D03*
D64*
X131550000Y-78450000D03*
X132050000Y-78450000D03*
X132550000Y-78450000D03*
X133050000Y-78450000D03*
%TD*%
D66*
%TO.C,Q1*%
X111550000Y-87525000D03*
X113450000Y-87525000D03*
X112500000Y-85650000D03*
%TD*%
D67*
%TO.C,D1*%
X156350000Y-74700000D03*
X156350000Y-70700000D03*
%TD*%
D19*
%TO.C,BAT+1*%
X158150000Y-125900000D03*
%TD*%
D25*
%TO.C,C30*%
X127500000Y-76570000D03*
X127500000Y-77530000D03*
%TD*%
D18*
%TO.C,D8*%
X140537500Y-107000000D03*
X138962500Y-107000000D03*
%TD*%
D21*
%TO.C,R101*%
X110430000Y-89600000D03*
X111450000Y-89600000D03*
%TD*%
D23*
%TO.C,C27*%
X121400000Y-53600000D03*
X121400000Y-54735000D03*
%TD*%
D37*
%TO.C,C56*%
X161400000Y-86800000D03*
X162950000Y-86800000D03*
%TD*%
D16*
%TO.C,R75*%
X140950000Y-103180000D03*
X140950000Y-104200000D03*
%TD*%
D68*
%TO.C,U6*%
X128605000Y-49885000D03*
X128605000Y-51155000D03*
X128605000Y-52425000D03*
X128605000Y-53695000D03*
X128605000Y-54965000D03*
X128605000Y-56235000D03*
X128605000Y-57505000D03*
X128605000Y-58775000D03*
X128605000Y-60045000D03*
X128605000Y-61315000D03*
X128605000Y-62585000D03*
X128605000Y-63855000D03*
X128605000Y-65125000D03*
X128605000Y-66395000D03*
D69*
X131645000Y-67645000D03*
X132915000Y-67645000D03*
X134185000Y-67645000D03*
X135455000Y-67645000D03*
X136725000Y-67645000D03*
X137995000Y-67645000D03*
X139265000Y-67645000D03*
X140535000Y-67645000D03*
X141805000Y-67645000D03*
X143075000Y-67645000D03*
D68*
X146105000Y-66395000D03*
X146105000Y-65125000D03*
X146105000Y-63855000D03*
X146105000Y-62585000D03*
X146105000Y-61315000D03*
X146105000Y-60045000D03*
X146105000Y-58775000D03*
X146105000Y-57505000D03*
X146105000Y-56235000D03*
X146105000Y-54965000D03*
X146105000Y-53695000D03*
X146105000Y-52425000D03*
X146105000Y-51155000D03*
X146105000Y-49885000D03*
D70*
X135150000Y-56462500D03*
X135150000Y-57987500D03*
X135912500Y-55700000D03*
X135912500Y-57225000D03*
X135912500Y-58750000D03*
X136675000Y-56462500D03*
D71*
X136675000Y-57225000D03*
D70*
X136675000Y-57987500D03*
X137437500Y-55700000D03*
X137437500Y-57225000D03*
X137437500Y-58750000D03*
X138200000Y-56462500D03*
X138200000Y-57987500D03*
%TD*%
M02*
