M48
; DRILL file {KiCad 9.0.0-rc2} date 2026-08-29T18:58:26+0300
; FORMAT={-:-/ absolute / metric / decimal}
; #@! TF.CreationDate,2026-08-29T18:58:26+03:00
; #@! TF.GenerationSoftware,Kicad,Pcbnew,9.0.0-rc2
; #@! TF.FileFunction,Plated,1,4,PTH
FMAT,2
METRIC
; #@! TA.AperFunction,Plated,PTH,ComponentDrill
T1C0.200
; #@! TA.AperFunction,Plated,PTH,ViaDrill
T2C0.300
; #@! TA.AperFunction,Plated,PTH,ComponentDrill
T3C0.600
; #@! TA.AperFunction,Plated,PTH,ComponentDrill
T4C0.650
; #@! TA.AperFunction,Plated,PTH,ComponentDrill
T5C0.800
; #@! TA.AperFunction,Plated,PTH,ComponentDrill
T6C1.850
%
G90
G05
T1
X135.15Y-56.462
X135.15Y-57.987
X135.912Y-55.7
X135.912Y-57.225
X135.912Y-58.75
X136.675Y-56.462
X136.675Y-57.987
X137.438Y-55.7
X137.438Y-57.225
X137.438Y-58.75
X138.2Y-56.462
X138.2Y-57.987
T2
X100.785Y-118.315
X100.9Y-80.6
X100.9Y-81.5
X100.95Y-82.55
X101.0Y-83.5
X101.0Y-84.4
X101.05Y-85.25
X101.2Y-111.15
X101.35Y-86.25
X101.9Y-113.05
X101.95Y-85.65
X102.0Y-80.45
X102.05Y-108.65
X102.05Y-118.9
X102.1Y-114.5
X102.25Y-86.5
X102.65Y-109.6
X102.9Y-100.15
X102.9Y-102.5
X103.1Y-80.5
X103.1Y-86.1
X103.2Y-86.85
X103.225Y-54.975
X103.25Y-88.9
X103.3Y-97.75
X103.5Y-87.75
X103.8Y-90.15
X103.9Y-80.45
X103.95Y-91.05
X104.4Y-91.95
X104.7Y-91.2
X104.8Y-80.5
X105.0Y-86.0
X105.1Y-91.85
X105.3Y-88.55
X105.6Y-92.95
X105.65Y-92.15
X105.95Y-75.15
X106.0Y-85.48
X106.15Y-90.05
X106.25Y-94.45
X106.4Y-97.15
X106.4Y-98.3
X106.45Y-93.15
X106.653Y-82.285
X106.8Y-95.7
X107.1Y-93.8
X107.1Y-97.75
X107.1Y-99.15
X107.2Y-94.7
X107.65Y-91.95
X107.75Y-119.1
X107.8Y-84.0
X107.9Y-51.1
X108.1Y-63.95
X108.4Y-57.3
X108.45Y-86.55
X108.45Y-92.75
X109.1Y-84.35
X109.15Y-94.6
X109.2Y-93.6
X109.3Y-92.75
X109.453Y-90.347
X110.0Y-79.5
X110.05Y-55.1
X110.131Y-92.308
X110.7Y-79.3
X110.9Y-54.3
X111.0Y-84.25
X111.125Y-97.3
X111.2Y-85.9
X111.7Y-75.75
X111.75Y-90.9
X112.45Y-127.0
X112.641Y-90.047
X113.05Y-80.1
X113.05Y-83.6
X113.283Y-78.983
X113.4Y-63.45
X113.4Y-90.3
X113.5Y-56.0
X113.9Y-83.6
X114.25Y-90.3
X114.6Y-76.45
X114.65Y-52.95
X114.9Y-86.0
X115.0Y-83.55
X115.1Y-56.3
X115.15Y-62.35
X115.3Y-65.4
X115.85Y-84.5
X116.25Y-126.95
X116.65Y-118.6
X116.95Y-83.65
X117.2Y-53.9
X117.45Y-113.45
X118.3Y-90.85
X118.45Y-100.95
X118.65Y-113.45
X120.152Y-50.547
X120.35Y-66.0
X120.75Y-105.32
X121.45Y-127.7
X121.65Y-119.55
X121.75Y-58.35
X121.75Y-63.1
X121.775Y-104.875
X121.9Y-65.95
X122.05Y-57.25
X122.75Y-49.95
X123.0Y-65.65
X123.7Y-96.65
X123.9Y-53.549
X125.25Y-119.3
X125.55Y-116.55
X126.3Y-96.65
X126.45Y-65.55
X126.6Y-90.9
X126.7Y-63.2
X126.8Y-59.05
X126.9Y-64.35
X127.004Y-61.64
X127.05Y-56.65
X127.05Y-60.25
X127.5Y-78.5
X127.55Y-69.05
X127.6Y-80.5
X127.7Y-71.95
X128.044Y-91.405
X128.05Y-85.95
X128.45Y-118.55
X128.9Y-120.75
X129.4Y-106.7
X129.55Y-128.1
X129.6Y-91.65
X129.7Y-69.95
X129.7Y-81.1
X130.0Y-76.7
X131.2Y-93.25
X131.4Y-65.7
X131.75Y-123.95
X131.9Y-126.05
X132.25Y-73.05
X132.45Y-123.1
X132.5Y-126.55
X132.8Y-124.0
X133.35Y-123.25
X133.35Y-125.85
X133.75Y-90.15
X134.05Y-126.65
X134.067Y-65.967
X134.1Y-124.0
X134.15Y-70.05
X134.6Y-125.95
X134.8Y-123.5
X135.4Y-126.75
X135.45Y-124.0
X136.0Y-126.05
X136.1Y-123.35
X136.35Y-126.9
X136.5Y-124.1
X136.65Y-77.8
X136.9Y-70.7
X136.95Y-123.2
X137.05Y-125.95
X137.3Y-116.55
X137.5Y-124.0
X137.6Y-111.5
X137.65Y-109.7
X137.8Y-113.35
X137.8Y-126.9
X138.05Y-72.15
X138.05Y-86.1
X138.25Y-123.35
X138.3Y-118.95
X138.3Y-126.1
X138.5Y-82.25
X138.65Y-95.5
X138.8Y-98.75
X138.8Y-123.9
X138.9Y-72.75
X139.15Y-119.8
X139.3Y-121.15
X139.3Y-126.8
X139.35Y-82.9
X139.45Y-73.35
X139.75Y-126.05
X139.8Y-123.95
X140.05Y-120.7
X140.15Y-70.55
X140.2Y-65.074
X140.4Y-82.25
X140.55Y-126.75
X140.7Y-123.9
X141.05Y-122.8
X141.15Y-83.3
X141.25Y-105.4
X141.25Y-121.25
X141.25Y-126.25
X141.25Y-127.35
X141.5Y-82.25
X141.6Y-123.65
X141.6Y-124.35
X142.05Y-83.25
X142.1Y-122.8
X142.2Y-126.2
X142.25Y-127.0
X142.4Y-124.25
X142.5Y-127.95
X142.55Y-121.15
X142.6Y-54.5
X142.65Y-122.0
X142.9Y-59.35
X143.15Y-71.0
X143.2Y-122.6
X143.35Y-120.4
X143.5Y-55.65
X143.6Y-63.9
X143.6Y-121.05
X143.65Y-127.9
X143.85Y-98.95
X143.9Y-107.2
X143.95Y-119.9
X144.1Y-70.45
X144.15Y-79.4
X144.2Y-122.05
X144.634Y-127.784
X144.65Y-75.35
X144.65Y-80.15
X144.8Y-121.25
X144.95Y-81.1
X145.15Y-79.3
X145.25Y-122.15
X145.5Y-128.25
X145.65Y-121.3
X145.7Y-80.7
X146.0Y-79.7
X146.2Y-122.15
X146.25Y-91.6
X146.35Y-100.3
X146.6Y-128.25
X146.85Y-121.0
X147.2Y-122.65
X147.2Y-127.75
X147.4Y-121.7
X147.5Y-70.05
X147.6Y-126.15
X147.65Y-124.05
X147.65Y-125.15
X147.85Y-127.35
X147.95Y-66.65
X147.95Y-123.4
X147.95Y-128.1
X148.05Y-49.7
X148.1Y-122.4
X148.3Y-72.7
X148.4Y-53.3
X148.4Y-124.7
X148.45Y-125.8
X148.45Y-126.75
X148.6Y-65.5
X148.65Y-91.6
X149.376Y-49.674
X150.2Y-115.65
X150.35Y-69.4
X150.35Y-100.7
X150.55Y-52.75
X150.55Y-90.85
X151.9Y-61.7
X151.95Y-121.3
X151.95Y-122.7
X152.2Y-50.3
X152.3Y-120.2
X153.25Y-64.4
X153.3Y-60.4
X153.3Y-61.1
X153.35Y-58.9
X153.35Y-62.05
X153.4Y-63.1
X153.4Y-68.15
X153.4Y-69.35
X153.45Y-66.65
X153.55Y-65.7
X153.65Y-57.85
X154.0Y-60.7
X154.0Y-63.8
X154.0Y-64.9
X154.05Y-59.35
X154.05Y-62.35
X154.1Y-54.3
X154.1Y-61.6
X154.1Y-67.45
X154.15Y-101.85
X154.2Y-66.25
X154.2Y-103.85
X154.25Y-56.9
X154.35Y-89.15
X154.6Y-57.85
X154.6Y-69.7
X155.1Y-57.1
X155.15Y-79.65
X155.9Y-57.65
X156.2Y-56.9
X156.65Y-79.4
X157.1Y-57.6
X157.8Y-100.65
X157.85Y-56.6
X158.075Y-113.175
X158.1Y-79.6
X158.6Y-57.6
X159.0Y-71.95
X159.8Y-56.55
X160.05Y-87.75
X160.3Y-57.65
X160.5Y-78.95
X161.3Y-56.75
X161.35Y-104.0
X162.1Y-57.6
X162.2Y-114.95
X162.25Y-112.4
X162.45Y-119.4
X162.45Y-127.75
X162.5Y-120.6
X162.55Y-117.5
X162.65Y-125.1
X162.791Y-98.991
X162.9Y-56.7
X163.0Y-103.25
X163.3Y-102.35
X163.5Y-57.7
X163.55Y-89.4
X163.65Y-128.95
X164.1Y-100.15
X164.3Y-56.55
X165.05Y-128.9
X165.8Y-57.55
X166.4Y-56.75
X166.8Y-57.7
X167.05Y-110.7
X167.6Y-56.85
X167.6Y-69.85
X167.95Y-128.7
X168.0Y-57.95
X168.2Y-110.95
X168.3Y-93.5
X168.4Y-92.25
X168.6Y-60.8
X168.75Y-61.7
X168.75Y-67.0
X168.8Y-57.85
X168.8Y-64.05
X168.8Y-65.65
X168.85Y-57.15
X168.95Y-68.65
X169.0Y-62.8
X169.1Y-59.0
X169.1Y-59.8
X169.4Y-67.65
X169.6Y-66.8
X169.65Y-65.8
X169.65Y-69.2
X169.75Y-99.35
X169.75Y-128.75
X169.8Y-61.35
X169.8Y-63.0
X169.85Y-64.4
X169.9Y-51.2
X169.9Y-52.15
X169.9Y-58.15
X169.95Y-53.2
X170.0Y-60.3
X170.05Y-59.2
X170.5Y-49.85
X170.6Y-80.4
X171.225Y-81.025
X171.3Y-74.45
X171.85Y-100.75
X171.875Y-81.675
X172.15Y-128.7
X172.55Y-114.5
X172.65Y-62.8
X172.85Y-107.35
X172.9Y-111.6
X173.05Y-118.1
X173.05Y-127.8
X173.3Y-103.8
X173.45Y-123.4
X173.5Y-125.15
T4
X165.63Y-104.6
X168.17Y-107.14
X170.71Y-104.6
T5
X166.45Y-115.81
X166.45Y-118.35
X166.45Y-120.89
X166.45Y-123.43
T6
X151.95Y-125.9
X158.15Y-125.9
X172.7Y-85.0
X172.7Y-92.6
T3
G00X101.225Y-51.28
M15
G01X100.425Y-51.28
M16
G05
G00X101.225Y-59.92
M15
G01X100.425Y-59.92
M16
G05
G00X105.555Y-51.28
M15
G01X104.455Y-51.28
M16
G05
G00X105.555Y-59.92
M15
G01X104.455Y-59.92
M16
G05
M30
