%TF.GenerationSoftware,KiCad,Pcbnew,9.0.0-rc2*%
%TF.CreationDate,2026-08-29T18:58:31+03:00*%
%TF.ProjectId,schematic,73636865-6d61-4746-9963-2e6b69636164,rev?*%
%TF.SameCoordinates,Original*%
%TF.FileFunction,Copper,L2,Inr*%
%TF.FilePolarity,Positive*%
%FSLAX46Y46*%
G04 Gerber Fmt 4.6, Leading zero omitted, Abs format (unit mm)*
G04 Created by KiCad (PCBNEW 9.0.0-rc2) date 2026-08-29 18:58:31*
%MOMM*%
%LPD*%
G01*
G04 APERTURE LIST*
%TA.AperFunction,ComponentPad*%
%ADD10C,3.400000*%
%TD*%
%TA.AperFunction,ComponentPad*%
%ADD11C,1.192000*%
%TD*%
%TA.AperFunction,ComponentPad*%
%ADD12R,1.500000X1.500000*%
%TD*%
%TA.AperFunction,ComponentPad*%
%ADD13C,1.500000*%
%TD*%
%TA.AperFunction,HeatsinkPad*%
%ADD14O,2.100000X1.000000*%
%TD*%
%TA.AperFunction,HeatsinkPad*%
%ADD15O,1.800000X1.000000*%
%TD*%
%TA.AperFunction,HeatsinkPad*%
%ADD16C,0.600000*%
%TD*%
%TA.AperFunction,ViaPad*%
%ADD17C,0.600000*%
%TD*%
%TA.AperFunction,Conductor*%
%ADD18C,0.600000*%
%TD*%
%TA.AperFunction,Conductor*%
%ADD19C,0.250000*%
%TD*%
%TA.AperFunction,Conductor*%
%ADD20C,0.200000*%
%TD*%
G04 APERTURE END LIST*
D10*
%TO.N,GND*%
%TO.C,BAT-1*%
X151950000Y-125900000D03*
%TD*%
D11*
%TO.N,+3V3*%
%TO.C,IC2*%
X165630000Y-104600000D03*
%TO.N,Net-(IC2-REL)*%
X168170000Y-107140000D03*
%TO.N,GND*%
X170710000Y-104600000D03*
%TD*%
D10*
%TO.N,GND*%
%TO.C,GND*%
X172700000Y-85000000D03*
%TD*%
%TO.N,+5V*%
%TO.C,+5V*%
X172700000Y-92600000D03*
%TD*%
D12*
%TO.N,+3V3*%
%TO.C,U3*%
X166450000Y-123430000D03*
D13*
%TO.N,/DHT22_Data*%
X166450000Y-120890000D03*
%TO.N,GND*%
X166450000Y-118350000D03*
X166450000Y-115810000D03*
%TD*%
D14*
%TO.N,GND*%
%TO.C,J3*%
X105005000Y-51280000D03*
D15*
X100825000Y-51280000D03*
D14*
X105005000Y-59920000D03*
D15*
X100825000Y-59920000D03*
%TD*%
D10*
%TO.N,+BATT*%
%TO.C,BAT+1*%
X158150000Y-125900000D03*
%TD*%
D16*
%TO.N,GND*%
%TO.C,U6*%
X135150000Y-56462500D03*
X135150000Y-57987500D03*
X135912500Y-55700000D03*
X135912500Y-57225000D03*
X135912500Y-58750000D03*
X136675000Y-56462500D03*
X136675000Y-57987500D03*
X137437500Y-55700000D03*
X137437500Y-57225000D03*
X137437500Y-58750000D03*
X138200000Y-56462500D03*
X138200000Y-57987500D03*
%TD*%
D17*
%TO.N,GND*%
X130000000Y-76700000D03*
%TO.N,/MT3608_1.2mHz_STEP-UP_CONVERTOR/power_input*%
X132250000Y-73050000D03*
X171300000Y-74450000D03*
%TO.N,GND*%
X112450000Y-127000000D03*
X155100000Y-57100000D03*
X173500000Y-125150000D03*
X103500000Y-87750000D03*
X136650000Y-77800000D03*
X146850000Y-121000000D03*
X102050000Y-118900000D03*
X138650000Y-95500000D03*
X162550000Y-117500000D03*
X152300000Y-120200000D03*
X137800000Y-126900000D03*
X167050000Y-110700000D03*
X169600000Y-66800000D03*
X106150000Y-90050000D03*
X171875000Y-81675000D03*
X141250000Y-105400000D03*
X142250000Y-127000000D03*
X154000000Y-64900000D03*
X168800000Y-65650000D03*
X142200000Y-126200000D03*
X103950000Y-91050000D03*
X108450000Y-92750000D03*
X122750000Y-49950000D03*
X169800000Y-61350000D03*
X153300000Y-60400000D03*
X142550000Y-121150000D03*
X105000000Y-86000000D03*
X105600000Y-92950000D03*
X106000000Y-85480000D03*
X169900000Y-52150000D03*
X131900000Y-126050000D03*
X169800000Y-63000000D03*
X138900000Y-72750000D03*
X146000000Y-79700000D03*
X168600000Y-60800000D03*
X148450000Y-126750000D03*
X172850000Y-107350000D03*
X144200000Y-122050000D03*
X141600000Y-124350000D03*
X141250000Y-121250000D03*
X154200000Y-66250000D03*
X101050000Y-85250000D03*
X106653184Y-82284555D03*
X163550000Y-89400000D03*
X164100000Y-100150000D03*
X107900000Y-51100000D03*
X147500000Y-70050000D03*
X162650000Y-125100000D03*
X123000000Y-65650000D03*
X117450000Y-113450000D03*
X123700000Y-96650000D03*
X115850000Y-84500000D03*
X140400000Y-82250000D03*
X169750000Y-128750000D03*
X108450000Y-86550000D03*
X104400000Y-91950000D03*
X155900000Y-57650000D03*
X145150000Y-79300000D03*
X138500000Y-82250000D03*
X154250000Y-56900000D03*
X137600000Y-111500000D03*
X142100000Y-122800000D03*
X144634314Y-127784314D03*
X136000000Y-126050000D03*
X167600000Y-56850000D03*
X172150000Y-128700000D03*
X167600000Y-69850000D03*
X132450000Y-123100000D03*
X172650000Y-62800000D03*
X139300000Y-126800000D03*
X138800000Y-123900000D03*
X169900000Y-58150000D03*
X171225000Y-81025000D03*
X140050000Y-120700000D03*
X107100000Y-93800000D03*
X169100000Y-59800000D03*
X103200000Y-86850000D03*
X139150000Y-119800000D03*
X132500000Y-126550000D03*
X144150000Y-79400000D03*
X171850000Y-100750000D03*
X140550000Y-126750000D03*
X153300000Y-61100000D03*
X169900000Y-51200000D03*
X146200000Y-122150000D03*
X153650000Y-57850000D03*
X136950000Y-123200000D03*
X147650000Y-125150000D03*
X148450000Y-125800000D03*
X141600000Y-123650000D03*
X103900000Y-80450000D03*
X129700000Y-81100000D03*
X154000000Y-60700000D03*
X106250000Y-94450000D03*
X141500000Y-82250000D03*
X105300000Y-88550000D03*
X102100000Y-114500000D03*
X154050000Y-59350000D03*
X155150000Y-79650000D03*
X156650000Y-79400000D03*
X146600000Y-128250000D03*
X137500000Y-124000000D03*
X172900000Y-111600000D03*
X135450000Y-124000000D03*
X103100000Y-80500000D03*
X120750000Y-105320000D03*
X166400000Y-56750000D03*
X168850000Y-57150000D03*
X169850000Y-64400000D03*
X153400000Y-69350000D03*
X142650000Y-122000000D03*
X141150000Y-83300000D03*
X102900000Y-100150000D03*
X144650000Y-75350000D03*
X160500000Y-78950000D03*
X148050000Y-49700000D03*
X166800000Y-57700000D03*
X129550000Y-128100000D03*
X135400000Y-126750000D03*
X133350000Y-125850000D03*
X153400000Y-68150000D03*
X163500000Y-57700000D03*
X143650000Y-127900000D03*
X134050000Y-126650000D03*
X153450000Y-66650000D03*
X154350000Y-89150000D03*
X106400000Y-97150000D03*
X101950000Y-85650000D03*
X108100000Y-63950000D03*
X147600000Y-126150000D03*
X136350000Y-126900000D03*
X153550000Y-65700000D03*
X131750000Y-123950000D03*
X116650000Y-118600000D03*
X147850000Y-127350000D03*
X117200000Y-53900000D03*
X101350000Y-86250000D03*
X153350000Y-58900000D03*
X148400000Y-124700000D03*
X107200000Y-94700000D03*
X107100000Y-97750000D03*
X110700000Y-79300000D03*
X125550000Y-116550000D03*
X154000000Y-63800000D03*
X157850000Y-56600000D03*
X145250000Y-122150000D03*
X168800000Y-64050000D03*
X164300000Y-56550000D03*
X169400000Y-67650000D03*
X138300000Y-118950000D03*
X154100000Y-67450000D03*
X161300000Y-56750000D03*
X147950000Y-128100000D03*
X144100000Y-70450000D03*
X101000000Y-84400000D03*
X162500000Y-120600000D03*
X173050000Y-118100000D03*
X158100000Y-79600000D03*
X131200000Y-93250000D03*
X165050000Y-128900000D03*
X169000000Y-62800000D03*
X148100000Y-122400000D03*
X132800000Y-124000000D03*
X128450000Y-118550000D03*
X151950000Y-122700000D03*
X100900000Y-80600000D03*
X154600000Y-57850000D03*
X143200000Y-122600000D03*
X127500000Y-78500000D03*
X139450000Y-73350000D03*
X147950000Y-123400000D03*
X148650000Y-91600000D03*
X113400000Y-63450000D03*
X154050000Y-62350000D03*
X137800000Y-113350000D03*
X142500000Y-127950000D03*
X138800000Y-98750000D03*
X139750000Y-126050000D03*
X106800000Y-95700000D03*
X153250000Y-64400000D03*
X129400000Y-106700000D03*
X121650000Y-119550000D03*
X118650000Y-113450000D03*
X154100000Y-61600000D03*
X134150000Y-70050000D03*
X107650000Y-91950000D03*
X105650000Y-92150000D03*
X137650000Y-109700000D03*
X160300000Y-57650000D03*
X107100000Y-99150000D03*
X169650000Y-65800000D03*
X141250000Y-126250000D03*
X114600000Y-76450000D03*
X134600000Y-125950000D03*
X147200000Y-122650000D03*
X105100000Y-91850000D03*
X102250000Y-86500000D03*
X153350000Y-62050000D03*
X142400000Y-124250000D03*
X104800000Y-80500000D03*
X173300000Y-103800000D03*
X168750000Y-61700000D03*
X137300000Y-116550000D03*
X143600000Y-121050000D03*
X106400000Y-98300000D03*
X163300000Y-102350000D03*
X156200000Y-56900000D03*
X170000000Y-60300000D03*
X150550000Y-90850000D03*
X110000000Y-79500000D03*
X106450000Y-93150000D03*
X170600000Y-80400000D03*
X121900000Y-65950000D03*
X101000000Y-83500000D03*
X121775000Y-104875000D03*
X162100000Y-57600000D03*
X169750000Y-99350000D03*
X134800000Y-123500000D03*
X144950000Y-81100000D03*
X139350000Y-82900000D03*
X136100000Y-123350000D03*
X142050000Y-83250000D03*
X162450000Y-127750000D03*
X144650000Y-80150000D03*
X168200000Y-110950000D03*
X138050000Y-86100000D03*
X145650000Y-121300000D03*
X168800000Y-57850000D03*
X165800000Y-57550000D03*
X103800000Y-90150000D03*
X147200000Y-127750000D03*
X172550000Y-114500000D03*
X140150000Y-70550000D03*
X136500000Y-124100000D03*
X139300000Y-121150000D03*
X147650000Y-124050000D03*
X138300000Y-126100000D03*
X159800000Y-56550000D03*
X163000000Y-103250000D03*
X162900000Y-56700000D03*
X109300000Y-92750000D03*
X154600000Y-69700000D03*
X141250000Y-127350000D03*
X163650000Y-128950000D03*
X167950000Y-128700000D03*
X133350000Y-123250000D03*
X162250000Y-112400000D03*
X158600000Y-57600000D03*
X100900000Y-81500000D03*
X146250000Y-91600000D03*
X138250000Y-123350000D03*
X102900000Y-102500000D03*
X151900000Y-61700000D03*
X157100000Y-57600000D03*
X143350000Y-120400000D03*
X168000000Y-57950000D03*
X109200000Y-93600000D03*
X143950000Y-119900000D03*
X168950000Y-68650000D03*
X121750000Y-63100000D03*
X115100000Y-56300000D03*
X136900000Y-70700000D03*
X110130588Y-92307670D03*
X129700000Y-69950000D03*
X137050000Y-125950000D03*
X140700000Y-123900000D03*
X162200000Y-114950000D03*
X102000000Y-80450000D03*
X145700000Y-80700000D03*
X159000000Y-71950000D03*
X141050000Y-122800000D03*
X170050000Y-59200000D03*
X162450000Y-119400000D03*
X169950000Y-53200000D03*
X151950000Y-121300000D03*
X109150000Y-94600000D03*
X138050000Y-72150000D03*
X147400000Y-121700000D03*
X104700000Y-91200000D03*
X153400000Y-63100000D03*
X144800000Y-121250000D03*
X118300000Y-90850000D03*
X173050000Y-127800000D03*
X168750000Y-67000000D03*
X145500000Y-128250000D03*
X169100000Y-59000000D03*
X173450000Y-123400000D03*
X169650000Y-69200000D03*
X110050000Y-55100000D03*
X103100000Y-86100000D03*
X134100000Y-124000000D03*
X100950000Y-82550000D03*
X103250000Y-88900000D03*
X139800000Y-123950000D03*
%TO.N,+3V3*%
X148300000Y-72700000D03*
X128050000Y-85950000D03*
X127600000Y-80500000D03*
X109453058Y-90346942D03*
X160050000Y-87750000D03*
X131400000Y-65700000D03*
X143600000Y-63900000D03*
X168400000Y-92250000D03*
%TO.N,/~{esp_rst}*%
X123900000Y-53549000D03*
X122050000Y-57250000D03*
%TO.N,4.2v*%
X107750000Y-119100000D03*
X100784620Y-118315380D03*
X150200000Y-115650000D03*
X133750000Y-90150000D03*
%TO.N,+5V*%
X143900000Y-107200000D03*
X116950000Y-83650000D03*
X157800000Y-100650000D03*
X115150000Y-62350000D03*
X150350000Y-100700000D03*
X120152500Y-50547500D03*
X168300000Y-93500000D03*
X162791393Y-98991393D03*
%TO.N,+BATT*%
X158075000Y-113175000D03*
X127700000Y-71950000D03*
%TO.N,/SIM808_GPRS_GPS_MODULE/SIM_VDD*%
X129600000Y-91650000D03*
%TO.N,/SIM808_GPRS_GPS_MODULE/SIM_DATA*%
X126300000Y-96650000D03*
%TO.N,/D+*%
X113500000Y-56000000D03*
%TO.N,/D-*%
X110900000Y-54300000D03*
%TO.N,Net-(J3-CC1)*%
X108400000Y-57300000D03*
X103225000Y-54975000D03*
%TO.N,Net-(D24-A)*%
X154200000Y-103850000D03*
X154150000Y-101850000D03*
%TO.N,/SIM808_GPRS_GPS_MODULE/SIM7600_TXD*%
X114250000Y-90300000D03*
X102650000Y-109600000D03*
%TO.N,ESP_RX*%
X115300000Y-65400000D03*
X143500000Y-55650000D03*
%TO.N,ESP_TX*%
X142600000Y-54500000D03*
X120350000Y-66000000D03*
%TO.N,/SIM808_GPRS_GPS_MODULE/SIM7600_RXD*%
X101900000Y-113050000D03*
X113400000Y-90300000D03*
%TO.N,Net-(Q8-S)*%
X105950000Y-75150000D03*
X111700000Y-75750000D03*
%TO.N,/boot*%
X147950000Y-66650000D03*
X127550000Y-69050000D03*
%TO.N,/DHT22_Data*%
X143150000Y-71000000D03*
X142900000Y-59350000D03*
%TO.N,/Motion_out*%
X148400000Y-53300000D03*
X161350000Y-104000000D03*
%TO.N,Net-(U4-TEMP)*%
X143850000Y-98950000D03*
X146350000Y-100300000D03*
%TO.N,/SIM808_GPRS_GPS_MODULE/1.8v_OUT*%
X107800000Y-84000000D03*
%TO.N,/SIM808_GPRS_GPS_MODULE/SIM_RST*%
X125250000Y-119300000D03*
X128900000Y-120750000D03*
X126600000Y-90900000D03*
%TO.N,/SIM808_GPRS_GPS_MODULE/SIM_CLK*%
X128043901Y-91405300D03*
%TO.N,/SIM808_GPRS_GPS_MODULE/LED_Netlight*%
X103300000Y-97750000D03*
%TO.N,/SIM808_GPRS_GPS_MODULE/LED_Status*%
X118450000Y-100950000D03*
X111200000Y-85900000D03*
X121450000Y-127700000D03*
%TO.N,/blue*%
X150350000Y-69400000D03*
X152200000Y-50300000D03*
%TO.N,/SIM808_GPRS_GPS_MODULE/DTR*%
X112641051Y-90047017D03*
X102050000Y-108650000D03*
%TO.N,/red*%
X126450000Y-65550000D03*
X150550000Y-52750000D03*
%TO.N,/green*%
X154100000Y-54300000D03*
X134066942Y-65966942D03*
%TO.N,/switch*%
X170500000Y-49850000D03*
X149376000Y-49674000D03*
%TO.N,/SIM808_GPRS_GPS_MODULE/pwrkey*%
X111125000Y-97300000D03*
%TO.N,/IO2*%
X140200000Y-65074000D03*
%TO.N,/SIM808_GPRS_GPS_MODULE/RI*%
X111750000Y-90900000D03*
X101200000Y-111150000D03*
%TO.N,/SIM808_GPRS_GPS_MODULE/Flight*%
X114900000Y-86000000D03*
X116250000Y-126950000D03*
%TO.N,/dtr*%
X121750000Y-58350000D03*
X114650000Y-52950000D03*
%TO.N,IO4*%
X148600000Y-65500000D03*
X109100000Y-84350000D03*
%TO.N,IO34*%
X127050000Y-56650000D03*
X113050000Y-83600000D03*
%TO.N,IO26*%
X115000000Y-83550000D03*
X126700000Y-63200000D03*
%TO.N,IO32*%
X126800000Y-59050000D03*
X113050000Y-80100000D03*
%TO.N,IO25*%
X113900000Y-83600000D03*
X127004067Y-61640498D03*
%TO.N,IO33*%
X127050000Y-60250000D03*
X111000000Y-84250000D03*
%TO.N,IO27*%
X113283058Y-78983058D03*
X126900000Y-64350000D03*
%TD*%
D18*
%TO.N,GND*%
X172700000Y-85000000D02*
X172700000Y-82500000D01*
X171225000Y-81025000D02*
X170600000Y-80400000D01*
X172700000Y-82500000D02*
X171875000Y-81675000D01*
X171875000Y-81675000D02*
X171225000Y-81025000D01*
%TO.N,+5V*%
X161082786Y-100700000D02*
X150350000Y-100700000D01*
X169182786Y-92600000D02*
X162791393Y-98991393D01*
X172700000Y-92600000D02*
X169182786Y-92600000D01*
X162791393Y-98991393D02*
X161082786Y-100700000D01*
D19*
%TO.N,/SIM808_GPRS_GPS_MODULE/SIM7600_RXD*%
X113400000Y-101900000D02*
X113400000Y-90300000D01*
X101900000Y-113050000D02*
X102250000Y-113050000D01*
X102250000Y-113050000D02*
X113400000Y-101900000D01*
%TO.N,/SIM808_GPRS_GPS_MODULE/DTR*%
X112641051Y-98058949D02*
X112641051Y-90047017D01*
X102050000Y-108650000D02*
X112641051Y-98058949D01*
%TO.N,/red*%
X126926000Y-65074000D02*
X126450000Y-65550000D01*
X150550000Y-52750000D02*
X150474000Y-52674000D01*
X132911298Y-65074000D02*
X126926000Y-65074000D01*
X150474000Y-52674000D02*
X145311298Y-52674000D01*
X145311298Y-52674000D02*
X132911298Y-65074000D01*
D20*
%TO.N,/green*%
X134066942Y-65966942D02*
X145733884Y-54300000D01*
X145733884Y-54300000D02*
X154100000Y-54300000D01*
D19*
%TO.N,/SIM808_GPRS_GPS_MODULE/Flight*%
X114876000Y-86024000D02*
X114900000Y-86000000D01*
X116250000Y-126950000D02*
X114876000Y-125576000D01*
X114876000Y-125576000D02*
X114876000Y-86024000D01*
%TO.N,IO4*%
X109276000Y-85274000D02*
X130976000Y-85274000D01*
X148600000Y-67650000D02*
X148600000Y-65500000D01*
X109100000Y-85098000D02*
X109276000Y-85274000D01*
X109100000Y-84350000D02*
X109100000Y-85098000D01*
X130976000Y-85274000D02*
X148600000Y-67650000D01*
%TO.N,IO34*%
X112326000Y-70974000D02*
X112326000Y-82876000D01*
X127050000Y-56650000D02*
X126650000Y-56650000D01*
X112326000Y-82876000D02*
X113050000Y-83600000D01*
X126650000Y-56650000D02*
X112326000Y-70974000D01*
%TO.N,IO26*%
X115050000Y-79375620D02*
X125525620Y-68900000D01*
X115000000Y-83550000D02*
X115050000Y-83500000D01*
X125789810Y-68635810D02*
X125789810Y-68262190D01*
X125525620Y-68900000D02*
X125789810Y-68635810D01*
X125789810Y-64110190D02*
X126700000Y-63200000D01*
X125789810Y-68262190D02*
X125789810Y-64110190D01*
X115050000Y-83500000D02*
X115050000Y-79375620D01*
%TO.N,IO32*%
X124887810Y-60962190D02*
X124887810Y-68262190D01*
X124887810Y-68262190D02*
X113050000Y-80100000D01*
X126800000Y-59050000D02*
X124887810Y-60962190D01*
%TO.N,IO25*%
X113900000Y-79887810D02*
X125338810Y-68449000D01*
X125338810Y-63305755D02*
X127004067Y-61640498D01*
X125338810Y-68449000D02*
X125338810Y-63305755D01*
X113900000Y-83600000D02*
X113900000Y-79887810D01*
%TD*%
%TA.AperFunction,Conductor*%
%TO.N,GND*%
G36*
X148631498Y-49120185D02*
G01*
X148677253Y-49172989D01*
X148687197Y-49242147D01*
X148669141Y-49289265D01*
X148669479Y-49289446D01*
X148668042Y-49292133D01*
X148667560Y-49293393D01*
X148666607Y-49294818D01*
X148666602Y-49294827D01*
X148606264Y-49440498D01*
X148606261Y-49440510D01*
X148575500Y-49595153D01*
X148575500Y-49752846D01*
X148606261Y-49907489D01*
X148606264Y-49907501D01*
X148666602Y-50053172D01*
X148666609Y-50053185D01*
X148754210Y-50184288D01*
X148754213Y-50184292D01*
X148865707Y-50295786D01*
X148865711Y-50295789D01*
X148996814Y-50383390D01*
X148996827Y-50383397D01*
X149142498Y-50443735D01*
X149142503Y-50443737D01*
X149283514Y-50471786D01*
X149297153Y-50474499D01*
X149297156Y-50474500D01*
X149297158Y-50474500D01*
X149454844Y-50474500D01*
X149454845Y-50474499D01*
X149609497Y-50443737D01*
X149755179Y-50383394D01*
X149886289Y-50295789D01*
X149960925Y-50221153D01*
X151399500Y-50221153D01*
X151399500Y-50378846D01*
X151430261Y-50533489D01*
X151430264Y-50533501D01*
X151490602Y-50679172D01*
X151490609Y-50679185D01*
X151578210Y-50810288D01*
X151578213Y-50810292D01*
X151689707Y-50921786D01*
X151689711Y-50921789D01*
X151820814Y-51009390D01*
X151820827Y-51009397D01*
X151937665Y-51057792D01*
X151966503Y-51069737D01*
X152097505Y-51095795D01*
X152121153Y-51100499D01*
X152121156Y-51100500D01*
X152121158Y-51100500D01*
X152278844Y-51100500D01*
X152278845Y-51100499D01*
X152433497Y-51069737D01*
X152579179Y-51009394D01*
X152710289Y-50921789D01*
X152821789Y-50810289D01*
X152909394Y-50679179D01*
X152969737Y-50533497D01*
X153000500Y-50378842D01*
X153000500Y-50221158D01*
X153000500Y-50221155D01*
X153000499Y-50221153D01*
X152989990Y-50168321D01*
X152969737Y-50066503D01*
X152957602Y-50037207D01*
X152909397Y-49920827D01*
X152909390Y-49920814D01*
X152821789Y-49789711D01*
X152821786Y-49789707D01*
X152710292Y-49678213D01*
X152710288Y-49678210D01*
X152579185Y-49590609D01*
X152579172Y-49590602D01*
X152433501Y-49530264D01*
X152433489Y-49530261D01*
X152278845Y-49499500D01*
X152278842Y-49499500D01*
X152121158Y-49499500D01*
X152121155Y-49499500D01*
X151966510Y-49530261D01*
X151966498Y-49530264D01*
X151820827Y-49590602D01*
X151820814Y-49590609D01*
X151689711Y-49678210D01*
X151689707Y-49678213D01*
X151578213Y-49789707D01*
X151578210Y-49789711D01*
X151490609Y-49920814D01*
X151490602Y-49920827D01*
X151430264Y-50066498D01*
X151430261Y-50066510D01*
X151399500Y-50221153D01*
X149960925Y-50221153D01*
X149997789Y-50184289D01*
X150085394Y-50053179D01*
X150145737Y-49907497D01*
X150176500Y-49752842D01*
X150176500Y-49595158D01*
X150176500Y-49595155D01*
X150176499Y-49595153D01*
X150163591Y-49530261D01*
X150145737Y-49440503D01*
X150122740Y-49384982D01*
X150085397Y-49294827D01*
X150085392Y-49294818D01*
X150084440Y-49293393D01*
X150084170Y-49292531D01*
X150082521Y-49289446D01*
X150083106Y-49289133D01*
X150063561Y-49226716D01*
X150082044Y-49159335D01*
X150134022Y-49112644D01*
X150187541Y-49100500D01*
X153776032Y-49100500D01*
X153777760Y-49100511D01*
X169668362Y-49322112D01*
X169735117Y-49342728D01*
X169780131Y-49396165D01*
X169789109Y-49465456D01*
X169781190Y-49493551D01*
X169730264Y-49616498D01*
X169730261Y-49616510D01*
X169699500Y-49771153D01*
X169699500Y-49928846D01*
X169730261Y-50083489D01*
X169730264Y-50083501D01*
X169790602Y-50229172D01*
X169790609Y-50229185D01*
X169878210Y-50360288D01*
X169878213Y-50360292D01*
X169989707Y-50471786D01*
X169989711Y-50471789D01*
X170120814Y-50559390D01*
X170120827Y-50559397D01*
X170266498Y-50619735D01*
X170266503Y-50619737D01*
X170381126Y-50642537D01*
X170421153Y-50650499D01*
X170421156Y-50650500D01*
X170421158Y-50650500D01*
X170578844Y-50650500D01*
X170578845Y-50650499D01*
X170733497Y-50619737D01*
X170879179Y-50559394D01*
X171010289Y-50471789D01*
X171121789Y-50360289D01*
X171209394Y-50229179D01*
X171212719Y-50221153D01*
X171227988Y-50184288D01*
X171269737Y-50083497D01*
X171300500Y-49928842D01*
X171300500Y-49771158D01*
X171300500Y-49771155D01*
X171300499Y-49771153D01*
X171282012Y-49678213D01*
X171269737Y-49616503D01*
X171260896Y-49595158D01*
X171228493Y-49516930D01*
X171221024Y-49447461D01*
X171252299Y-49384982D01*
X171312388Y-49349330D01*
X171344777Y-49345490D01*
X175477233Y-49403119D01*
X175543988Y-49423735D01*
X175589002Y-49477172D01*
X175599500Y-49527106D01*
X175599500Y-129525500D01*
X175579815Y-129592539D01*
X175527011Y-129638294D01*
X175475500Y-129649500D01*
X98874500Y-129649500D01*
X98807461Y-129629815D01*
X98761706Y-129577011D01*
X98750500Y-129525500D01*
X98750500Y-118236533D01*
X99984120Y-118236533D01*
X99984120Y-118394226D01*
X100014881Y-118548869D01*
X100014884Y-118548881D01*
X100075222Y-118694552D01*
X100075229Y-118694565D01*
X100162830Y-118825668D01*
X100162833Y-118825672D01*
X100274327Y-118937166D01*
X100274331Y-118937169D01*
X100405434Y-119024770D01*
X100405447Y-119024777D01*
X100506172Y-119066498D01*
X100551123Y-119085117D01*
X100705773Y-119115879D01*
X100705776Y-119115880D01*
X100705778Y-119115880D01*
X100863464Y-119115880D01*
X100863465Y-119115879D01*
X101018117Y-119085117D01*
X101163799Y-119024774D01*
X101169218Y-119021153D01*
X106949500Y-119021153D01*
X106949500Y-119178846D01*
X106980261Y-119333489D01*
X106980264Y-119333501D01*
X107040602Y-119479172D01*
X107040609Y-119479185D01*
X107128210Y-119610288D01*
X107128213Y-119610292D01*
X107239707Y-119721786D01*
X107239711Y-119721789D01*
X107370814Y-119809390D01*
X107370827Y-119809397D01*
X107516498Y-119869735D01*
X107516503Y-119869737D01*
X107671153Y-119900499D01*
X107671156Y-119900500D01*
X107671158Y-119900500D01*
X107828844Y-119900500D01*
X107828845Y-119900499D01*
X107983497Y-119869737D01*
X108096166Y-119823067D01*
X108129172Y-119809397D01*
X108129172Y-119809396D01*
X108129179Y-119809394D01*
X108260289Y-119721789D01*
X108371789Y-119610289D01*
X108459394Y-119479179D01*
X108519737Y-119333497D01*
X108550500Y-119178842D01*
X108550500Y-119021158D01*
X108550500Y-119021155D01*
X108550499Y-119021153D01*
X108530543Y-118920827D01*
X108519737Y-118866503D01*
X108504549Y-118829835D01*
X108459397Y-118720827D01*
X108459390Y-118720814D01*
X108371789Y-118589711D01*
X108371786Y-118589707D01*
X108260292Y-118478213D01*
X108260288Y-118478210D01*
X108129185Y-118390609D01*
X108129172Y-118390602D01*
X107983501Y-118330264D01*
X107983489Y-118330261D01*
X107828845Y-118299500D01*
X107828842Y-118299500D01*
X107671158Y-118299500D01*
X107671155Y-118299500D01*
X107516510Y-118330261D01*
X107516498Y-118330264D01*
X107370827Y-118390602D01*
X107370814Y-118390609D01*
X107239711Y-118478210D01*
X107239707Y-118478213D01*
X107128213Y-118589707D01*
X107128210Y-118589711D01*
X107040609Y-118720814D01*
X107040602Y-118720827D01*
X106980264Y-118866498D01*
X106980261Y-118866510D01*
X106949500Y-119021153D01*
X101169218Y-119021153D01*
X101294909Y-118937169D01*
X101294912Y-118937166D01*
X101304694Y-118927385D01*
X101406406Y-118825672D01*
X101406409Y-118825669D01*
X101494014Y-118694559D01*
X101554357Y-118548877D01*
X101585120Y-118394222D01*
X101585120Y-118236538D01*
X101585120Y-118236535D01*
X101585119Y-118236533D01*
X101576978Y-118195606D01*
X101554357Y-118081883D01*
X101544172Y-118057294D01*
X101494017Y-117936207D01*
X101494010Y-117936194D01*
X101406409Y-117805091D01*
X101406406Y-117805087D01*
X101294912Y-117693593D01*
X101294908Y-117693590D01*
X101163805Y-117605989D01*
X101163792Y-117605982D01*
X101018121Y-117545644D01*
X101018109Y-117545641D01*
X100863465Y-117514880D01*
X100863462Y-117514880D01*
X100705778Y-117514880D01*
X100705775Y-117514880D01*
X100551130Y-117545641D01*
X100551118Y-117545644D01*
X100405447Y-117605982D01*
X100405434Y-117605989D01*
X100274331Y-117693590D01*
X100274327Y-117693593D01*
X100162833Y-117805087D01*
X100162830Y-117805091D01*
X100075229Y-117936194D01*
X100075222Y-117936207D01*
X100014884Y-118081878D01*
X100014881Y-118081890D01*
X99984120Y-118236533D01*
X98750500Y-118236533D01*
X98750500Y-112971153D01*
X101099500Y-112971153D01*
X101099500Y-113128846D01*
X101130261Y-113283489D01*
X101130264Y-113283501D01*
X101190602Y-113429172D01*
X101190609Y-113429185D01*
X101278210Y-113560288D01*
X101278213Y-113560292D01*
X101389707Y-113671786D01*
X101389711Y-113671789D01*
X101520814Y-113759390D01*
X101520827Y-113759397D01*
X101611101Y-113796789D01*
X101666503Y-113819737D01*
X101821153Y-113850499D01*
X101821156Y-113850500D01*
X101821158Y-113850500D01*
X101978844Y-113850500D01*
X101978845Y-113850499D01*
X102133497Y-113819737D01*
X102279179Y-113759394D01*
X102410289Y-113671789D01*
X102411870Y-113670207D01*
X102413734Y-113668961D01*
X102415005Y-113667919D01*
X102415107Y-113668043D01*
X102418799Y-113665576D01*
X102421742Y-113661338D01*
X102452068Y-113643343D01*
X102452092Y-113643326D01*
X102465792Y-113637652D01*
X102546286Y-113604312D01*
X102612169Y-113560289D01*
X102648733Y-113535858D01*
X102735858Y-113448733D01*
X102735859Y-113448731D01*
X102742925Y-113441665D01*
X102742928Y-113441661D01*
X113798729Y-102385860D01*
X113798733Y-102385858D01*
X113885858Y-102298733D01*
X113954311Y-102196286D01*
X114001463Y-102082452D01*
X114004882Y-102065258D01*
X114037267Y-102003349D01*
X114097982Y-101968774D01*
X114167752Y-101972513D01*
X114224424Y-102013379D01*
X114250006Y-102078397D01*
X114250500Y-102089450D01*
X114250500Y-125637611D01*
X114274535Y-125758444D01*
X114274540Y-125758461D01*
X114321685Y-125872280D01*
X114321687Y-125872283D01*
X114321688Y-125872286D01*
X114355915Y-125923509D01*
X114390142Y-125974733D01*
X114477267Y-126061858D01*
X114477269Y-126061859D01*
X114487232Y-126071822D01*
X115424205Y-127008796D01*
X115457690Y-127070119D01*
X115458141Y-127072286D01*
X115480261Y-127183489D01*
X115480264Y-127183501D01*
X115540602Y-127329172D01*
X115540609Y-127329185D01*
X115628210Y-127460288D01*
X115628213Y-127460292D01*
X115739707Y-127571786D01*
X115739711Y-127571789D01*
X115870814Y-127659390D01*
X115870827Y-127659397D01*
X116016498Y-127719735D01*
X116016503Y-127719737D01*
X116171153Y-127750499D01*
X116171156Y-127750500D01*
X116171158Y-127750500D01*
X116328844Y-127750500D01*
X116328845Y-127750499D01*
X116483497Y-127719737D01*
X116629179Y-127659394D01*
X116686411Y-127621153D01*
X120649500Y-127621153D01*
X120649500Y-127778846D01*
X120680261Y-127933489D01*
X120680264Y-127933501D01*
X120740602Y-128079172D01*
X120740609Y-128079185D01*
X120828210Y-128210288D01*
X120828213Y-128210292D01*
X120939707Y-128321786D01*
X120939711Y-128321789D01*
X121070814Y-128409390D01*
X121070827Y-128409397D01*
X121216498Y-128469735D01*
X121216503Y-128469737D01*
X121371153Y-128500499D01*
X121371156Y-128500500D01*
X121371158Y-128500500D01*
X121528844Y-128500500D01*
X121528845Y-128500499D01*
X121683497Y-128469737D01*
X121829179Y-128409394D01*
X121960289Y-128321789D01*
X122071789Y-128210289D01*
X122159394Y-128079179D01*
X122219737Y-127933497D01*
X122250500Y-127778842D01*
X122250500Y-127621158D01*
X122250500Y-127621155D01*
X122246053Y-127598800D01*
X122246053Y-127598799D01*
X122219738Y-127466510D01*
X122219737Y-127466503D01*
X122173138Y-127354002D01*
X122159397Y-127320827D01*
X122159390Y-127320814D01*
X122071789Y-127189711D01*
X122071786Y-127189707D01*
X121960292Y-127078213D01*
X121960288Y-127078210D01*
X121829185Y-126990609D01*
X121829172Y-126990602D01*
X121683501Y-126930264D01*
X121683489Y-126930261D01*
X121528845Y-126899500D01*
X121528842Y-126899500D01*
X121371158Y-126899500D01*
X121371155Y-126899500D01*
X121216510Y-126930261D01*
X121216498Y-126930264D01*
X121070827Y-126990602D01*
X121070814Y-126990609D01*
X120939711Y-127078210D01*
X120939707Y-127078213D01*
X120828213Y-127189707D01*
X120828210Y-127189711D01*
X120740609Y-127320814D01*
X120740602Y-127320827D01*
X120680264Y-127466498D01*
X120680261Y-127466510D01*
X120649500Y-127621153D01*
X116686411Y-127621153D01*
X116760289Y-127571789D01*
X116774109Y-127557969D01*
X116804694Y-127527385D01*
X116871786Y-127460292D01*
X116871789Y-127460289D01*
X116959394Y-127329179D01*
X116962854Y-127320827D01*
X117017163Y-127189711D01*
X117019737Y-127183497D01*
X117050500Y-127028842D01*
X117050500Y-126871158D01*
X117050500Y-126871155D01*
X117050499Y-126871153D01*
X117019737Y-126716503D01*
X116979141Y-126618495D01*
X116959397Y-126570827D01*
X116959390Y-126570814D01*
X116871789Y-126439711D01*
X116871786Y-126439707D01*
X116760292Y-126328213D01*
X116760288Y-126328210D01*
X116629185Y-126240609D01*
X116629172Y-126240602D01*
X116483501Y-126180264D01*
X116483489Y-126180261D01*
X116372286Y-126158141D01*
X116310375Y-126125756D01*
X116308796Y-126124205D01*
X115940387Y-125755796D01*
X149750000Y-125755796D01*
X149750000Y-126044203D01*
X149787643Y-126330118D01*
X149862283Y-126608682D01*
X149972644Y-126875116D01*
X149972648Y-126875126D01*
X150116838Y-127124872D01*
X150227438Y-127269007D01*
X151141497Y-126354947D01*
X151231505Y-126489653D01*
X151360347Y-126618495D01*
X151495050Y-126708501D01*
X150580991Y-127622560D01*
X150725128Y-127733161D01*
X150974873Y-127877351D01*
X150974883Y-127877355D01*
X151241317Y-127987716D01*
X151519881Y-128062356D01*
X151805796Y-128099999D01*
X151805811Y-128100000D01*
X152094189Y-128100000D01*
X152094203Y-128099999D01*
X152380118Y-128062356D01*
X152658682Y-127987716D01*
X152925116Y-127877355D01*
X152925126Y-127877351D01*
X153174870Y-127733161D01*
X153174887Y-127733150D01*
X153319007Y-127622561D01*
X153319007Y-127622559D01*
X152404948Y-126708501D01*
X152539653Y-126618495D01*
X152668495Y-126489653D01*
X152758501Y-126354948D01*
X153672559Y-127269007D01*
X153672561Y-127269007D01*
X153783150Y-127124887D01*
X153783161Y-127124870D01*
X153927351Y-126875126D01*
X153927355Y-126875116D01*
X154037716Y-126608682D01*
X154112356Y-126330118D01*
X154149999Y-126044203D01*
X154150000Y-126044189D01*
X154150000Y-125755803D01*
X154149997Y-125755778D01*
X155949500Y-125755778D01*
X155949500Y-126044221D01*
X155949501Y-126044238D01*
X155987149Y-126330206D01*
X155987150Y-126330211D01*
X155987151Y-126330217D01*
X156061809Y-126608844D01*
X156061814Y-126608860D01*
X156172191Y-126875336D01*
X156172199Y-126875352D01*
X156316420Y-127125148D01*
X156316431Y-127125164D01*
X156492024Y-127354002D01*
X156492030Y-127354009D01*
X156695990Y-127557969D01*
X156695997Y-127557975D01*
X156828164Y-127659390D01*
X156924844Y-127733575D01*
X156924851Y-127733579D01*
X157174647Y-127877800D01*
X157174663Y-127877808D01*
X157441139Y-127988185D01*
X157441145Y-127988186D01*
X157441155Y-127988191D01*
X157719783Y-128062849D01*
X158005772Y-128100500D01*
X158005779Y-128100500D01*
X158294221Y-128100500D01*
X158294228Y-128100500D01*
X158580217Y-128062849D01*
X158858845Y-127988191D01*
X158858857Y-127988185D01*
X158858860Y-127988185D01*
X159125336Y-127877808D01*
X159125339Y-127877806D01*
X159125345Y-127877804D01*
X159375156Y-127733575D01*
X159604004Y-127557974D01*
X159807974Y-127354004D01*
X159983575Y-127125156D01*
X160127804Y-126875345D01*
X160129539Y-126871158D01*
X160238185Y-126608860D01*
X160238185Y-126608857D01*
X160238191Y-126608845D01*
X160312849Y-126330217D01*
X160350500Y-126044228D01*
X160350500Y-125755772D01*
X160312849Y-125469783D01*
X160238191Y-125191155D01*
X160238186Y-125191145D01*
X160238185Y-125191139D01*
X160127808Y-124924663D01*
X160127800Y-124924647D01*
X159992636Y-124690538D01*
X159983575Y-124674844D01*
X159933015Y-124608953D01*
X159807975Y-124445997D01*
X159807969Y-124445990D01*
X159604009Y-124242030D01*
X159604002Y-124242024D01*
X159375164Y-124066431D01*
X159375162Y-124066429D01*
X159375156Y-124066425D01*
X159375151Y-124066422D01*
X159375148Y-124066420D01*
X159125352Y-123922199D01*
X159125336Y-123922191D01*
X158858860Y-123811814D01*
X158858848Y-123811810D01*
X158858845Y-123811809D01*
X158580217Y-123737151D01*
X158580211Y-123737150D01*
X158580206Y-123737149D01*
X158294238Y-123699501D01*
X158294233Y-123699500D01*
X158294228Y-123699500D01*
X158005772Y-123699500D01*
X158005766Y-123699500D01*
X158005761Y-123699501D01*
X157719793Y-123737149D01*
X157719786Y-123737150D01*
X157719783Y-123737151D01*
X157441155Y-123811809D01*
X157441139Y-123811814D01*
X157174663Y-123922191D01*
X157174647Y-123922199D01*
X156924851Y-124066420D01*
X156924835Y-124066431D01*
X156695997Y-124242024D01*
X156695990Y-124242030D01*
X156492030Y-124445990D01*
X156492024Y-124445997D01*
X156316431Y-124674835D01*
X156316420Y-124674851D01*
X156172199Y-124924647D01*
X156172191Y-124924663D01*
X156061814Y-125191139D01*
X156061809Y-125191155D01*
X155987152Y-125469780D01*
X155987149Y-125469793D01*
X155949501Y-125755761D01*
X155949500Y-125755778D01*
X154149997Y-125755778D01*
X154112356Y-125469881D01*
X154037716Y-125191317D01*
X153927355Y-124924883D01*
X153927351Y-124924873D01*
X153783161Y-124675128D01*
X153672560Y-124530991D01*
X152758501Y-125445050D01*
X152668495Y-125310347D01*
X152539653Y-125181505D01*
X152404947Y-125091497D01*
X153319007Y-124177438D01*
X153174872Y-124066838D01*
X152925126Y-123922648D01*
X152925116Y-123922644D01*
X152658682Y-123812283D01*
X152380118Y-123737643D01*
X152094203Y-123700000D01*
X151805796Y-123700000D01*
X151519881Y-123737643D01*
X151241317Y-123812283D01*
X150974883Y-123922644D01*
X150974873Y-123922648D01*
X150725123Y-124066841D01*
X150580991Y-124177436D01*
X150580991Y-124177438D01*
X151495051Y-125091498D01*
X151360347Y-125181505D01*
X151231505Y-125310347D01*
X151141498Y-125445051D01*
X150227438Y-124530991D01*
X150227436Y-124530991D01*
X150116841Y-124675123D01*
X149972648Y-124924873D01*
X149972644Y-124924883D01*
X149862283Y-125191317D01*
X149787643Y-125469881D01*
X149750000Y-125755796D01*
X115940387Y-125755796D01*
X115537819Y-125353228D01*
X115504334Y-125291905D01*
X115501500Y-125265547D01*
X115501500Y-120671153D01*
X128099500Y-120671153D01*
X128099500Y-120828846D01*
X128130261Y-120983489D01*
X128130264Y-120983501D01*
X128190602Y-121129172D01*
X128190609Y-121129185D01*
X128278210Y-121260288D01*
X128278213Y-121260292D01*
X128389707Y-121371786D01*
X128389711Y-121371789D01*
X128520814Y-121459390D01*
X128520827Y-121459397D01*
X128666498Y-121519735D01*
X128666503Y-121519737D01*
X128795544Y-121545405D01*
X128821153Y-121550499D01*
X128821156Y-121550500D01*
X128821158Y-121550500D01*
X128978844Y-121550500D01*
X128978845Y-121550499D01*
X129133497Y-121519737D01*
X129279179Y-121459394D01*
X129410289Y-121371789D01*
X129521789Y-121260289D01*
X129609394Y-121129179D01*
X129669737Y-120983497D01*
X129700500Y-120828842D01*
X129700500Y-120791577D01*
X165199500Y-120791577D01*
X165199500Y-120988422D01*
X165230290Y-121182826D01*
X165291117Y-121370029D01*
X165367398Y-121519738D01*
X165380476Y-121545405D01*
X165496172Y-121704646D01*
X165635354Y-121843828D01*
X165788621Y-121955184D01*
X165831285Y-122010512D01*
X165837264Y-122080125D01*
X165804658Y-122141920D01*
X165743819Y-122176278D01*
X165715736Y-122179500D01*
X165652130Y-122179500D01*
X165652123Y-122179501D01*
X165592516Y-122185908D01*
X165457671Y-122236202D01*
X165457664Y-122236206D01*
X165342455Y-122322452D01*
X165342452Y-122322455D01*
X165256206Y-122437664D01*
X165256202Y-122437671D01*
X165205908Y-122572517D01*
X165199501Y-122632116D01*
X165199501Y-122632123D01*
X165199500Y-122632135D01*
X165199500Y-124227870D01*
X165199501Y-124227876D01*
X165205908Y-124287483D01*
X165256202Y-124422328D01*
X165256206Y-124422335D01*
X165342452Y-124537544D01*
X165342455Y-124537547D01*
X165457664Y-124623793D01*
X165457671Y-124623797D01*
X165592517Y-124674091D01*
X165592516Y-124674091D01*
X165599444Y-124674835D01*
X165652127Y-124680500D01*
X167247872Y-124680499D01*
X167307483Y-124674091D01*
X167442331Y-124623796D01*
X167557546Y-124537546D01*
X167643796Y-124422331D01*
X167694091Y-124287483D01*
X167700500Y-124227873D01*
X167700499Y-122632128D01*
X167694091Y-122572517D01*
X167643796Y-122437669D01*
X167643795Y-122437668D01*
X167643793Y-122437664D01*
X167557547Y-122322455D01*
X167557544Y-122322452D01*
X167442335Y-122236206D01*
X167442328Y-122236202D01*
X167307482Y-122185908D01*
X167307483Y-122185908D01*
X167247883Y-122179501D01*
X167247881Y-122179500D01*
X167247873Y-122179500D01*
X167247865Y-122179500D01*
X167184267Y-122179500D01*
X167117228Y-122159815D01*
X167071473Y-122107011D01*
X167061529Y-122037853D01*
X167090554Y-121974297D01*
X167111381Y-121955182D01*
X167264646Y-121843828D01*
X167403828Y-121704646D01*
X167519524Y-121545405D01*
X167608884Y-121370025D01*
X167669709Y-121182826D01*
X167678207Y-121129172D01*
X167700500Y-120988422D01*
X167700500Y-120791577D01*
X167669709Y-120597173D01*
X167608882Y-120409970D01*
X167561743Y-120317455D01*
X167519524Y-120234595D01*
X167403828Y-120075354D01*
X167264646Y-119936172D01*
X167105405Y-119820476D01*
X166930025Y-119731116D01*
X166930024Y-119731115D01*
X166928235Y-119730204D01*
X166877439Y-119682230D01*
X166860644Y-119614409D01*
X166883181Y-119548274D01*
X166928236Y-119509234D01*
X167105141Y-119419097D01*
X167140125Y-119393678D01*
X167140126Y-119393678D01*
X166496448Y-118750000D01*
X166502661Y-118750000D01*
X166604394Y-118722741D01*
X166695606Y-118670080D01*
X166770080Y-118595606D01*
X166822741Y-118504394D01*
X166850000Y-118402661D01*
X166850000Y-118396448D01*
X167493678Y-119040126D01*
X167493678Y-119040125D01*
X167519095Y-119005143D01*
X167608418Y-118829835D01*
X167669221Y-118642705D01*
X167700000Y-118448382D01*
X167700000Y-118251617D01*
X167669221Y-118057294D01*
X167608418Y-117870164D01*
X167519096Y-117694858D01*
X167493678Y-117659873D01*
X167493677Y-117659873D01*
X166850000Y-118303551D01*
X166850000Y-118297339D01*
X166822741Y-118195606D01*
X166770080Y-118104394D01*
X166695606Y-118029920D01*
X166604394Y-117977259D01*
X166502661Y-117950000D01*
X166496447Y-117950000D01*
X167140125Y-117306320D01*
X167140125Y-117306319D01*
X167105145Y-117280905D01*
X166927684Y-117190485D01*
X166876888Y-117142511D01*
X166860093Y-117074690D01*
X166882630Y-117008555D01*
X166927685Y-116969515D01*
X167105141Y-116879097D01*
X167140125Y-116853678D01*
X167140126Y-116853678D01*
X166496448Y-116210000D01*
X166502661Y-116210000D01*
X166604394Y-116182741D01*
X166695606Y-116130080D01*
X166770080Y-116055606D01*
X166822741Y-115964394D01*
X166850000Y-115862661D01*
X166850000Y-115856448D01*
X167493678Y-116500126D01*
X167493678Y-116500125D01*
X167519095Y-116465143D01*
X167608418Y-116289835D01*
X167669221Y-116102705D01*
X167700000Y-115908382D01*
X167700000Y-115711617D01*
X167669221Y-115517294D01*
X167608418Y-115330164D01*
X167519096Y-115154858D01*
X167493678Y-115119873D01*
X167493677Y-115119873D01*
X166850000Y-115763551D01*
X166850000Y-115757339D01*
X166822741Y-115655606D01*
X166770080Y-115564394D01*
X166695606Y-115489920D01*
X166604394Y-115437259D01*
X166502661Y-115410000D01*
X166496447Y-115410000D01*
X167140125Y-114766320D01*
X167140125Y-114766319D01*
X167105145Y-114740905D01*
X166929835Y-114651581D01*
X166742705Y-114590778D01*
X166548382Y-114560000D01*
X166351618Y-114560000D01*
X166157294Y-114590778D01*
X165970161Y-114651582D01*
X165794863Y-114740899D01*
X165794859Y-114740902D01*
X165759873Y-114766320D01*
X165759872Y-114766320D01*
X166403554Y-115410000D01*
X166397339Y-115410000D01*
X166295606Y-115437259D01*
X166204394Y-115489920D01*
X166129920Y-115564394D01*
X166077259Y-115655606D01*
X166050000Y-115757339D01*
X166050000Y-115763552D01*
X165406320Y-115119872D01*
X165406320Y-115119873D01*
X165380902Y-115154859D01*
X165380899Y-115154863D01*
X165291582Y-115330161D01*
X165230778Y-115517294D01*
X165200000Y-115711617D01*
X165200000Y-115908382D01*
X165230778Y-116102705D01*
X165291581Y-116289835D01*
X165380905Y-116465145D01*
X165406319Y-116500125D01*
X165406320Y-116500125D01*
X166050000Y-115856445D01*
X166050000Y-115862661D01*
X166077259Y-115964394D01*
X166129920Y-116055606D01*
X166204394Y-116130080D01*
X166295606Y-116182741D01*
X166397339Y-116210000D01*
X166403553Y-116210000D01*
X165759873Y-116853677D01*
X165759873Y-116853678D01*
X165794860Y-116879097D01*
X165972314Y-116969514D01*
X166023111Y-117017488D01*
X166039906Y-117085309D01*
X166017369Y-117151444D01*
X165972315Y-117190484D01*
X165794859Y-117280902D01*
X165759873Y-117306320D01*
X165759872Y-117306320D01*
X166403554Y-117950000D01*
X166397339Y-117950000D01*
X166295606Y-117977259D01*
X166204394Y-118029920D01*
X166129920Y-118104394D01*
X166077259Y-118195606D01*
X166050000Y-118297339D01*
X166050000Y-118303552D01*
X165406320Y-117659872D01*
X165406320Y-117659873D01*
X165380902Y-117694859D01*
X165380899Y-117694863D01*
X165291582Y-117870161D01*
X165230778Y-118057294D01*
X165200000Y-118251617D01*
X165200000Y-118448382D01*
X165230778Y-118642705D01*
X165291581Y-118829835D01*
X165380905Y-119005145D01*
X165406319Y-119040125D01*
X165406320Y-119040125D01*
X166050000Y-118396445D01*
X166050000Y-118402661D01*
X166077259Y-118504394D01*
X166129920Y-118595606D01*
X166204394Y-118670080D01*
X166295606Y-118722741D01*
X166397339Y-118750000D01*
X166403553Y-118750000D01*
X165759873Y-119393677D01*
X165759873Y-119393678D01*
X165794858Y-119419096D01*
X165971764Y-119509234D01*
X166022560Y-119557209D01*
X166039355Y-119625030D01*
X166016818Y-119691164D01*
X165971764Y-119730204D01*
X165794594Y-119820476D01*
X165726796Y-119869735D01*
X165635354Y-119936172D01*
X165635352Y-119936174D01*
X165635351Y-119936174D01*
X165496174Y-120075351D01*
X165496174Y-120075352D01*
X165496172Y-120075354D01*
X165446485Y-120143741D01*
X165380476Y-120234594D01*
X165291117Y-120409970D01*
X165230290Y-120597173D01*
X165199500Y-120791577D01*
X129700500Y-120791577D01*
X129700500Y-120671158D01*
X129700500Y-120671155D01*
X129700499Y-120671153D01*
X129669737Y-120516503D01*
X129625610Y-120409970D01*
X129609397Y-120370827D01*
X129609390Y-120370814D01*
X129521789Y-120239711D01*
X129521786Y-120239707D01*
X129410292Y-120128213D01*
X129410288Y-120128210D01*
X129279185Y-120040609D01*
X129279172Y-120040602D01*
X129133501Y-119980264D01*
X129133489Y-119980261D01*
X128978845Y-119949500D01*
X128978842Y-119949500D01*
X128821158Y-119949500D01*
X128821155Y-119949500D01*
X128666510Y-119980261D01*
X128666498Y-119980264D01*
X128520827Y-120040602D01*
X128520814Y-120040609D01*
X128389711Y-120128210D01*
X128389707Y-120128213D01*
X128278213Y-120239707D01*
X128278210Y-120239711D01*
X128190609Y-120370814D01*
X128190602Y-120370827D01*
X128130264Y-120516498D01*
X128130261Y-120516510D01*
X128099500Y-120671153D01*
X115501500Y-120671153D01*
X115501500Y-119221153D01*
X124449500Y-119221153D01*
X124449500Y-119378846D01*
X124480261Y-119533489D01*
X124480264Y-119533501D01*
X124540602Y-119679172D01*
X124540609Y-119679185D01*
X124628210Y-119810288D01*
X124628213Y-119810292D01*
X124739707Y-119921786D01*
X124739711Y-119921789D01*
X124870814Y-120009390D01*
X124870827Y-120009397D01*
X124946181Y-120040609D01*
X125016503Y-120069737D01*
X125171153Y-120100499D01*
X125171156Y-120100500D01*
X125171158Y-120100500D01*
X125328844Y-120100500D01*
X125328845Y-120100499D01*
X125483497Y-120069737D01*
X125629179Y-120009394D01*
X125760289Y-119921789D01*
X125871789Y-119810289D01*
X125959394Y-119679179D01*
X126019737Y-119533497D01*
X126050500Y-119378842D01*
X126050500Y-119221158D01*
X126050500Y-119221155D01*
X126050499Y-119221153D01*
X126019737Y-119066503D01*
X126019735Y-119066498D01*
X125959397Y-118920827D01*
X125959390Y-118920814D01*
X125871789Y-118789711D01*
X125871786Y-118789707D01*
X125760292Y-118678213D01*
X125760288Y-118678210D01*
X125629185Y-118590609D01*
X125629172Y-118590602D01*
X125483501Y-118530264D01*
X125483489Y-118530261D01*
X125328845Y-118499500D01*
X125328842Y-118499500D01*
X125171158Y-118499500D01*
X125171155Y-118499500D01*
X125016510Y-118530261D01*
X125016498Y-118530264D01*
X124870827Y-118590602D01*
X124870814Y-118590609D01*
X124739711Y-118678210D01*
X124739707Y-118678213D01*
X124628213Y-118789707D01*
X124628210Y-118789711D01*
X124540609Y-118920814D01*
X124540602Y-118920827D01*
X124480264Y-119066498D01*
X124480261Y-119066510D01*
X124449500Y-119221153D01*
X115501500Y-119221153D01*
X115501500Y-115571153D01*
X149399500Y-115571153D01*
X149399500Y-115728846D01*
X149430261Y-115883489D01*
X149430264Y-115883501D01*
X149490602Y-116029172D01*
X149490609Y-116029185D01*
X149578210Y-116160288D01*
X149578213Y-116160292D01*
X149689707Y-116271786D01*
X149689711Y-116271789D01*
X149820814Y-116359390D01*
X149820827Y-116359397D01*
X149966498Y-116419735D01*
X149966503Y-116419737D01*
X150121153Y-116450499D01*
X150121156Y-116450500D01*
X150121158Y-116450500D01*
X150278844Y-116450500D01*
X150278845Y-116450499D01*
X150433497Y-116419737D01*
X150579179Y-116359394D01*
X150710289Y-116271789D01*
X150821789Y-116160289D01*
X150909394Y-116029179D01*
X150969737Y-115883497D01*
X151000500Y-115728842D01*
X151000500Y-115571158D01*
X151000500Y-115571155D01*
X151000499Y-115571153D01*
X150989786Y-115517294D01*
X150969737Y-115416503D01*
X150967043Y-115410000D01*
X150909397Y-115270827D01*
X150909390Y-115270814D01*
X150821789Y-115139711D01*
X150821786Y-115139707D01*
X150710292Y-115028213D01*
X150710288Y-115028210D01*
X150579185Y-114940609D01*
X150579173Y-114940602D01*
X150549084Y-114928140D01*
X150433501Y-114880264D01*
X150433489Y-114880261D01*
X150278845Y-114849500D01*
X150278842Y-114849500D01*
X150121158Y-114849500D01*
X150121155Y-114849500D01*
X149966510Y-114880261D01*
X149966498Y-114880264D01*
X149820827Y-114940602D01*
X149820814Y-114940609D01*
X149689711Y-115028210D01*
X149689707Y-115028213D01*
X149578213Y-115139707D01*
X149578210Y-115139711D01*
X149490609Y-115270814D01*
X149490602Y-115270827D01*
X149430264Y-115416498D01*
X149430261Y-115416510D01*
X149399500Y-115571153D01*
X115501500Y-115571153D01*
X115501500Y-113096153D01*
X157274500Y-113096153D01*
X157274500Y-113253846D01*
X157305261Y-113408489D01*
X157305264Y-113408501D01*
X157365602Y-113554172D01*
X157365609Y-113554185D01*
X157453210Y-113685288D01*
X157453213Y-113685292D01*
X157564707Y-113796786D01*
X157564711Y-113796789D01*
X157695814Y-113884390D01*
X157695827Y-113884397D01*
X157841498Y-113944735D01*
X157841503Y-113944737D01*
X157996153Y-113975499D01*
X157996156Y-113975500D01*
X157996158Y-113975500D01*
X158153844Y-113975500D01*
X158153845Y-113975499D01*
X158308497Y-113944737D01*
X158454179Y-113884394D01*
X158585289Y-113796789D01*
X158696789Y-113685289D01*
X158784394Y-113554179D01*
X158844737Y-113408497D01*
X158875500Y-113253842D01*
X158875500Y-113096158D01*
X158875500Y-113096155D01*
X158875499Y-113096153D01*
X158844737Y-112941503D01*
X158792959Y-112816498D01*
X158784397Y-112795827D01*
X158784390Y-112795814D01*
X158696789Y-112664711D01*
X158696786Y-112664707D01*
X158585292Y-112553213D01*
X158585288Y-112553210D01*
X158454185Y-112465609D01*
X158454172Y-112465602D01*
X158308501Y-112405264D01*
X158308489Y-112405261D01*
X158153845Y-112374500D01*
X158153842Y-112374500D01*
X157996158Y-112374500D01*
X157996155Y-112374500D01*
X157841510Y-112405261D01*
X157841498Y-112405264D01*
X157695827Y-112465602D01*
X157695814Y-112465609D01*
X157564711Y-112553210D01*
X157564707Y-112553213D01*
X157453213Y-112664707D01*
X157453210Y-112664711D01*
X157365609Y-112795814D01*
X157365602Y-112795827D01*
X157305264Y-112941498D01*
X157305261Y-112941510D01*
X157274500Y-113096153D01*
X115501500Y-113096153D01*
X115501500Y-107121153D01*
X143099500Y-107121153D01*
X143099500Y-107278846D01*
X143130261Y-107433489D01*
X143130264Y-107433501D01*
X143190602Y-107579172D01*
X143190609Y-107579185D01*
X143278210Y-107710288D01*
X143278213Y-107710292D01*
X143389707Y-107821786D01*
X143389711Y-107821789D01*
X143520814Y-107909390D01*
X143520827Y-107909397D01*
X143596181Y-107940609D01*
X143666503Y-107969737D01*
X143821153Y-108000499D01*
X143821156Y-108000500D01*
X143821158Y-108000500D01*
X143978844Y-108000500D01*
X143978845Y-108000499D01*
X144133497Y-107969737D01*
X144279179Y-107909394D01*
X144410289Y-107821789D01*
X144521789Y-107710289D01*
X144609394Y-107579179D01*
X144669737Y-107433497D01*
X144700500Y-107278842D01*
X144700500Y-107121158D01*
X144700500Y-107121155D01*
X144700499Y-107121153D01*
X144690926Y-107073023D01*
X144687082Y-107053698D01*
X167073500Y-107053698D01*
X167073500Y-107226301D01*
X167100499Y-107396765D01*
X167153831Y-107560907D01*
X167232191Y-107714694D01*
X167333630Y-107854316D01*
X167455683Y-107976369D01*
X167586336Y-108071292D01*
X167595309Y-108077811D01*
X167716786Y-108139707D01*
X167749092Y-108156168D01*
X167831163Y-108182834D01*
X167913236Y-108209501D01*
X167992187Y-108222005D01*
X168083699Y-108236500D01*
X168083704Y-108236500D01*
X168256301Y-108236500D01*
X168338939Y-108223410D01*
X168426764Y-108209501D01*
X168590910Y-108156167D01*
X168744691Y-108077811D01*
X168823086Y-108020853D01*
X168884316Y-107976369D01*
X168884318Y-107976366D01*
X168884322Y-107976364D01*
X169006364Y-107854322D01*
X169006366Y-107854318D01*
X169006369Y-107854316D01*
X169050853Y-107793086D01*
X169107811Y-107714691D01*
X169186167Y-107560910D01*
X169239501Y-107396764D01*
X169258177Y-107278846D01*
X169266500Y-107226301D01*
X169266500Y-107053698D01*
X169250792Y-106954532D01*
X169239501Y-106883236D01*
X169186167Y-106719090D01*
X169107811Y-106565309D01*
X169053534Y-106490602D01*
X169006369Y-106425683D01*
X168884316Y-106303630D01*
X168744694Y-106202191D01*
X168744693Y-106202190D01*
X168744691Y-106202189D01*
X168667800Y-106163011D01*
X168590907Y-106123831D01*
X168426765Y-106070499D01*
X168256301Y-106043500D01*
X168256296Y-106043500D01*
X168083704Y-106043500D01*
X168083699Y-106043500D01*
X167913234Y-106070499D01*
X167749092Y-106123831D01*
X167595305Y-106202191D01*
X167455683Y-106303630D01*
X167333630Y-106425683D01*
X167232191Y-106565305D01*
X167153831Y-106719092D01*
X167100499Y-106883234D01*
X167073500Y-107053698D01*
X144687082Y-107053698D01*
X144669738Y-106966508D01*
X144669737Y-106966507D01*
X144669737Y-106966503D01*
X144635246Y-106883234D01*
X144609397Y-106820827D01*
X144609390Y-106820814D01*
X144521789Y-106689711D01*
X144521786Y-106689707D01*
X144410292Y-106578213D01*
X144410288Y-106578210D01*
X144279185Y-106490609D01*
X144279172Y-106490602D01*
X144133501Y-106430264D01*
X144133489Y-106430261D01*
X143978845Y-106399500D01*
X143978842Y-106399500D01*
X143821158Y-106399500D01*
X143821155Y-106399500D01*
X143666510Y-106430261D01*
X143666498Y-106430264D01*
X143520827Y-106490602D01*
X143520814Y-106490609D01*
X143389711Y-106578210D01*
X143389707Y-106578213D01*
X143278213Y-106689707D01*
X143278210Y-106689711D01*
X143190609Y-106820814D01*
X143190602Y-106820827D01*
X143130264Y-106966498D01*
X143130261Y-106966510D01*
X143099500Y-107121153D01*
X115501500Y-107121153D01*
X115501500Y-103771153D01*
X153399500Y-103771153D01*
X153399500Y-103928846D01*
X153430261Y-104083489D01*
X153430264Y-104083501D01*
X153490602Y-104229172D01*
X153490609Y-104229185D01*
X153578210Y-104360288D01*
X153578213Y-104360292D01*
X153689707Y-104471786D01*
X153689711Y-104471789D01*
X153820814Y-104559390D01*
X153820827Y-104559397D01*
X153918853Y-104600000D01*
X153966503Y-104619737D01*
X154121153Y-104650499D01*
X154121156Y-104650500D01*
X154121158Y-104650500D01*
X154278844Y-104650500D01*
X154278845Y-104650499D01*
X154433497Y-104619737D01*
X154579179Y-104559394D01*
X154710289Y-104471789D01*
X154821789Y-104360289D01*
X154909394Y-104229179D01*
X154969737Y-104083497D01*
X155000500Y-103928842D01*
X155000500Y-103921153D01*
X160549500Y-103921153D01*
X160549500Y-104078846D01*
X160580261Y-104233489D01*
X160580264Y-104233501D01*
X160640602Y-104379172D01*
X160640609Y-104379185D01*
X160728210Y-104510288D01*
X160728213Y-104510292D01*
X160839707Y-104621786D01*
X160839711Y-104621789D01*
X160970814Y-104709390D01*
X160970827Y-104709397D01*
X161116498Y-104769735D01*
X161116503Y-104769737D01*
X161266402Y-104799554D01*
X161271153Y-104800499D01*
X161271156Y-104800500D01*
X161271158Y-104800500D01*
X161428844Y-104800500D01*
X161428845Y-104800499D01*
X161583497Y-104769737D01*
X161729179Y-104709394D01*
X161860289Y-104621789D01*
X161968380Y-104513698D01*
X164533500Y-104513698D01*
X164533500Y-104686301D01*
X164560499Y-104856765D01*
X164613831Y-105020907D01*
X164613833Y-105020910D01*
X164692060Y-105174438D01*
X164692191Y-105174694D01*
X164793630Y-105314316D01*
X164915683Y-105436369D01*
X165046336Y-105531292D01*
X165055309Y-105537811D01*
X165208175Y-105615701D01*
X165209092Y-105616168D01*
X165291163Y-105642834D01*
X165373236Y-105669501D01*
X165452187Y-105682005D01*
X165543699Y-105696500D01*
X165543704Y-105696500D01*
X165716301Y-105696500D01*
X165798939Y-105683410D01*
X165886764Y-105669501D01*
X166050910Y-105616167D01*
X166204691Y-105537811D01*
X166210726Y-105533426D01*
X170130125Y-105533426D01*
X170135571Y-105537383D01*
X170289277Y-105615701D01*
X170453352Y-105669013D01*
X170623738Y-105696000D01*
X170796262Y-105696000D01*
X170966647Y-105669013D01*
X171130722Y-105615701D01*
X171284423Y-105537385D01*
X171289872Y-105533425D01*
X170710001Y-104953554D01*
X170710000Y-104953554D01*
X170130125Y-105533426D01*
X166210726Y-105533426D01*
X166283086Y-105480853D01*
X166344316Y-105436369D01*
X166344318Y-105436366D01*
X166344322Y-105436364D01*
X166466364Y-105314322D01*
X166466366Y-105314318D01*
X166466369Y-105314316D01*
X166510853Y-105253086D01*
X166567811Y-105174691D01*
X166646167Y-105020910D01*
X166699501Y-104856764D01*
X166720300Y-104725445D01*
X166726500Y-104686301D01*
X166726500Y-104513737D01*
X169614000Y-104513737D01*
X169614000Y-104686262D01*
X169640986Y-104856647D01*
X169694300Y-105020727D01*
X169772613Y-105174423D01*
X169772623Y-105174438D01*
X169776570Y-105179872D01*
X169776573Y-105179872D01*
X170356446Y-104600000D01*
X170313659Y-104557213D01*
X170385000Y-104557213D01*
X170385000Y-104642787D01*
X170407149Y-104725445D01*
X170449936Y-104799554D01*
X170510446Y-104860064D01*
X170584555Y-104902851D01*
X170667213Y-104925000D01*
X170752787Y-104925000D01*
X170835445Y-104902851D01*
X170909554Y-104860064D01*
X170970064Y-104799554D01*
X171012851Y-104725445D01*
X171035000Y-104642787D01*
X171035000Y-104599999D01*
X171063554Y-104599999D01*
X171063554Y-104600000D01*
X171643425Y-105179872D01*
X171647385Y-105174423D01*
X171725701Y-105020722D01*
X171779013Y-104856647D01*
X171806000Y-104686262D01*
X171806000Y-104513737D01*
X171779013Y-104343352D01*
X171725701Y-104179277D01*
X171647383Y-104025571D01*
X171643426Y-104020125D01*
X171063554Y-104599999D01*
X171035000Y-104599999D01*
X171035000Y-104557213D01*
X171012851Y-104474555D01*
X170970064Y-104400446D01*
X170909554Y-104339936D01*
X170835445Y-104297149D01*
X170752787Y-104275000D01*
X170667213Y-104275000D01*
X170584555Y-104297149D01*
X170510446Y-104339936D01*
X170449936Y-104400446D01*
X170407149Y-104474555D01*
X170385000Y-104557213D01*
X170313659Y-104557213D01*
X169776572Y-104020126D01*
X169772616Y-104025571D01*
X169772614Y-104025575D01*
X169694298Y-104179277D01*
X169640986Y-104343352D01*
X169614000Y-104513737D01*
X166726500Y-104513737D01*
X166726500Y-104513698D01*
X166705195Y-104379190D01*
X166699501Y-104343236D01*
X166646167Y-104179090D01*
X166567811Y-104025309D01*
X166561292Y-104016336D01*
X166466369Y-103885683D01*
X166344316Y-103763630D01*
X166210724Y-103666572D01*
X170130126Y-103666572D01*
X170710000Y-104246446D01*
X170710001Y-104246446D01*
X171289872Y-103666573D01*
X171289872Y-103666570D01*
X171284438Y-103662623D01*
X171284423Y-103662613D01*
X171130727Y-103584300D01*
X170966647Y-103530986D01*
X170796262Y-103504000D01*
X170623738Y-103504000D01*
X170453352Y-103530986D01*
X170289277Y-103584298D01*
X170135575Y-103662614D01*
X170135571Y-103662616D01*
X170130126Y-103666572D01*
X166210724Y-103666572D01*
X166204694Y-103662191D01*
X166204693Y-103662190D01*
X166204691Y-103662189D01*
X166051827Y-103584300D01*
X166050907Y-103583831D01*
X165886765Y-103530499D01*
X165716301Y-103503500D01*
X165716296Y-103503500D01*
X165543704Y-103503500D01*
X165543699Y-103503500D01*
X165373234Y-103530499D01*
X165209092Y-103583831D01*
X165055305Y-103662191D01*
X164915683Y-103763630D01*
X164793630Y-103885683D01*
X164692191Y-104025305D01*
X164613831Y-104179092D01*
X164560499Y-104343234D01*
X164533500Y-104513698D01*
X161968380Y-104513698D01*
X161971789Y-104510289D01*
X161997516Y-104471786D01*
X162018795Y-104439941D01*
X162018796Y-104439939D01*
X162059387Y-104379190D01*
X162059390Y-104379185D01*
X162059394Y-104379179D01*
X162119737Y-104233497D01*
X162150500Y-104078842D01*
X162150500Y-103921158D01*
X162150500Y-103921155D01*
X162150499Y-103921153D01*
X162119737Y-103766503D01*
X162119735Y-103766498D01*
X162059397Y-103620827D01*
X162059390Y-103620814D01*
X161971789Y-103489711D01*
X161971786Y-103489707D01*
X161860292Y-103378213D01*
X161860288Y-103378210D01*
X161729185Y-103290609D01*
X161729172Y-103290602D01*
X161583501Y-103230264D01*
X161583489Y-103230261D01*
X161428845Y-103199500D01*
X161428842Y-103199500D01*
X161271158Y-103199500D01*
X161271155Y-103199500D01*
X161116510Y-103230261D01*
X161116498Y-103230264D01*
X160970827Y-103290602D01*
X160970814Y-103290609D01*
X160839711Y-103378210D01*
X160839707Y-103378213D01*
X160728213Y-103489707D01*
X160728210Y-103489711D01*
X160640609Y-103620814D01*
X160640602Y-103620827D01*
X160580264Y-103766498D01*
X160580261Y-103766510D01*
X160549500Y-103921153D01*
X155000500Y-103921153D01*
X155000500Y-103771158D01*
X155000500Y-103771155D01*
X155000499Y-103771153D01*
X154999003Y-103763630D01*
X154969737Y-103616503D01*
X154956398Y-103584300D01*
X154909397Y-103470827D01*
X154909390Y-103470814D01*
X154821789Y-103339711D01*
X154821786Y-103339707D01*
X154710292Y-103228213D01*
X154710288Y-103228210D01*
X154579185Y-103140609D01*
X154579172Y-103140602D01*
X154433501Y-103080264D01*
X154433489Y-103080261D01*
X154278845Y-103049500D01*
X154278842Y-103049500D01*
X154121158Y-103049500D01*
X154121155Y-103049500D01*
X153966510Y-103080261D01*
X153966498Y-103080264D01*
X153820827Y-103140602D01*
X153820814Y-103140609D01*
X153689711Y-103228210D01*
X153689707Y-103228213D01*
X153578213Y-103339707D01*
X153578210Y-103339711D01*
X153490609Y-103470814D01*
X153490602Y-103470827D01*
X153430264Y-103616498D01*
X153430261Y-103616510D01*
X153399500Y-103771153D01*
X115501500Y-103771153D01*
X115501500Y-100871153D01*
X117649500Y-100871153D01*
X117649500Y-101028846D01*
X117680261Y-101183489D01*
X117680264Y-101183501D01*
X117740602Y-101329172D01*
X117740609Y-101329185D01*
X117828210Y-101460288D01*
X117828213Y-101460292D01*
X117939707Y-101571786D01*
X117939711Y-101571789D01*
X118070814Y-101659390D01*
X118070827Y-101659397D01*
X118216498Y-101719735D01*
X118216503Y-101719737D01*
X118371153Y-101750499D01*
X118371156Y-101750500D01*
X118371158Y-101750500D01*
X118528844Y-101750500D01*
X118528845Y-101750499D01*
X118683497Y-101719737D01*
X118829179Y-101659394D01*
X118960289Y-101571789D01*
X119071789Y-101460289D01*
X119159394Y-101329179D01*
X119219737Y-101183497D01*
X119250500Y-101028842D01*
X119250500Y-100871158D01*
X119250500Y-100871155D01*
X119250499Y-100871153D01*
X119219738Y-100716510D01*
X119219737Y-100716503D01*
X119219735Y-100716498D01*
X119159397Y-100570827D01*
X119159390Y-100570814D01*
X119071789Y-100439711D01*
X119071786Y-100439707D01*
X118960289Y-100328210D01*
X118945259Y-100318168D01*
X118829185Y-100240609D01*
X118829172Y-100240602D01*
X118782217Y-100221153D01*
X145549500Y-100221153D01*
X145549500Y-100378846D01*
X145580261Y-100533489D01*
X145580264Y-100533501D01*
X145640602Y-100679172D01*
X145640609Y-100679185D01*
X145728210Y-100810288D01*
X145728213Y-100810292D01*
X145839707Y-100921786D01*
X145839711Y-100921789D01*
X145970814Y-101009390D01*
X145970827Y-101009397D01*
X146116498Y-101069735D01*
X146116503Y-101069737D01*
X146271153Y-101100499D01*
X146271156Y-101100500D01*
X146271158Y-101100500D01*
X146428844Y-101100500D01*
X146428845Y-101100499D01*
X146583497Y-101069737D01*
X146729179Y-101009394D01*
X146860289Y-100921789D01*
X146971789Y-100810289D01*
X147059394Y-100679179D01*
X147083429Y-100621153D01*
X149549500Y-100621153D01*
X149549500Y-100778846D01*
X149580261Y-100933489D01*
X149580264Y-100933501D01*
X149640602Y-101079172D01*
X149640609Y-101079185D01*
X149728210Y-101210288D01*
X149728213Y-101210292D01*
X149839707Y-101321786D01*
X149839711Y-101321789D01*
X149970814Y-101409390D01*
X149970827Y-101409397D01*
X150116498Y-101469735D01*
X150116503Y-101469737D01*
X150271153Y-101500499D01*
X150271156Y-101500500D01*
X150271158Y-101500500D01*
X153252243Y-101500500D01*
X153319282Y-101520185D01*
X153365037Y-101572989D01*
X153374981Y-101642147D01*
X153373860Y-101648692D01*
X153349500Y-101771155D01*
X153349500Y-101928846D01*
X153380261Y-102083489D01*
X153380264Y-102083501D01*
X153440602Y-102229172D01*
X153440609Y-102229185D01*
X153528210Y-102360288D01*
X153528213Y-102360292D01*
X153639707Y-102471786D01*
X153639711Y-102471789D01*
X153770814Y-102559390D01*
X153770827Y-102559397D01*
X153916498Y-102619735D01*
X153916503Y-102619737D01*
X154071153Y-102650499D01*
X154071156Y-102650500D01*
X154071158Y-102650500D01*
X154228844Y-102650500D01*
X154228845Y-102650499D01*
X154383497Y-102619737D01*
X154529179Y-102559394D01*
X154660289Y-102471789D01*
X154771789Y-102360289D01*
X154859394Y-102229179D01*
X154919737Y-102083497D01*
X154950500Y-101928842D01*
X154950500Y-101771158D01*
X154950500Y-101771155D01*
X154926140Y-101648692D01*
X154932367Y-101579100D01*
X154975230Y-101523923D01*
X155041120Y-101500678D01*
X155047757Y-101500500D01*
X161161630Y-101500500D01*
X161161631Y-101500499D01*
X161316283Y-101469737D01*
X161461965Y-101409394D01*
X161593075Y-101321789D01*
X163413182Y-99501682D01*
X168749778Y-94165084D01*
X168768561Y-94149669D01*
X168810289Y-94121789D01*
X168921789Y-94010289D01*
X168949669Y-93968561D01*
X168965084Y-93949778D01*
X169478045Y-93436819D01*
X169539368Y-93403334D01*
X169565726Y-93400500D01*
X170566919Y-93400500D01*
X170633958Y-93420185D01*
X170679713Y-93472989D01*
X170681480Y-93477048D01*
X170722191Y-93575336D01*
X170722199Y-93575352D01*
X170866420Y-93825148D01*
X170866431Y-93825164D01*
X171042024Y-94054002D01*
X171042030Y-94054009D01*
X171245990Y-94257969D01*
X171245996Y-94257974D01*
X171474844Y-94433575D01*
X171474851Y-94433579D01*
X171724647Y-94577800D01*
X171724663Y-94577808D01*
X171991139Y-94688185D01*
X171991145Y-94688186D01*
X171991155Y-94688191D01*
X172269783Y-94762849D01*
X172555772Y-94800500D01*
X172555779Y-94800500D01*
X172844221Y-94800500D01*
X172844228Y-94800500D01*
X173130217Y-94762849D01*
X173408845Y-94688191D01*
X173408857Y-94688185D01*
X173408860Y-94688185D01*
X173675336Y-94577808D01*
X173675339Y-94577806D01*
X173675345Y-94577804D01*
X173925156Y-94433575D01*
X174154004Y-94257974D01*
X174357974Y-94054004D01*
X174533575Y-93825156D01*
X174677804Y-93575345D01*
X174788191Y-93308845D01*
X174862849Y-93030217D01*
X174900500Y-92744228D01*
X174900500Y-92455772D01*
X174862849Y-92169783D01*
X174788191Y-91891155D01*
X174788186Y-91891145D01*
X174788185Y-91891139D01*
X174677808Y-91624663D01*
X174677800Y-91624647D01*
X174533579Y-91374851D01*
X174533575Y-91374844D01*
X174453760Y-91270827D01*
X174357975Y-91145997D01*
X174357969Y-91145990D01*
X174154009Y-90942030D01*
X174154002Y-90942024D01*
X173925164Y-90766431D01*
X173925162Y-90766429D01*
X173925156Y-90766425D01*
X173925151Y-90766422D01*
X173925148Y-90766420D01*
X173675352Y-90622199D01*
X173675336Y-90622191D01*
X173408860Y-90511814D01*
X173408848Y-90511810D01*
X173408845Y-90511809D01*
X173130217Y-90437151D01*
X173130211Y-90437150D01*
X173130206Y-90437149D01*
X172844238Y-90399501D01*
X172844233Y-90399500D01*
X172844228Y-90399500D01*
X172555772Y-90399500D01*
X172555766Y-90399500D01*
X172555761Y-90399501D01*
X172269793Y-90437149D01*
X172269786Y-90437150D01*
X172269783Y-90437151D01*
X171991155Y-90511809D01*
X171991139Y-90511814D01*
X171724663Y-90622191D01*
X171724647Y-90622199D01*
X171474851Y-90766420D01*
X171474835Y-90766431D01*
X171245997Y-90942024D01*
X171245990Y-90942030D01*
X171042030Y-91145990D01*
X171042024Y-91145997D01*
X170866431Y-91374835D01*
X170866420Y-91374851D01*
X170722199Y-91624647D01*
X170722191Y-91624663D01*
X170681480Y-91722952D01*
X170637640Y-91777356D01*
X170571346Y-91799421D01*
X170566919Y-91799500D01*
X169128018Y-91799500D01*
X169060979Y-91779815D01*
X169024914Y-91744388D01*
X169021788Y-91739709D01*
X168910292Y-91628213D01*
X168910288Y-91628210D01*
X168779185Y-91540609D01*
X168779172Y-91540602D01*
X168633501Y-91480264D01*
X168633489Y-91480261D01*
X168478845Y-91449500D01*
X168478842Y-91449500D01*
X168321158Y-91449500D01*
X168321155Y-91449500D01*
X168166510Y-91480261D01*
X168166498Y-91480264D01*
X168020827Y-91540602D01*
X168020814Y-91540609D01*
X167889711Y-91628210D01*
X167889707Y-91628213D01*
X167778213Y-91739707D01*
X167778210Y-91739711D01*
X167690609Y-91870814D01*
X167690602Y-91870827D01*
X167630264Y-92016498D01*
X167630261Y-92016510D01*
X167599500Y-92171153D01*
X167599500Y-92328846D01*
X167630261Y-92483489D01*
X167630264Y-92483501D01*
X167690602Y-92629172D01*
X167690609Y-92629185D01*
X167766617Y-92742939D01*
X167787495Y-92809617D01*
X167769010Y-92876997D01*
X167751196Y-92899511D01*
X162281104Y-98369604D01*
X160787527Y-99863181D01*
X160726204Y-99896666D01*
X160699846Y-99899500D01*
X158104604Y-99899500D01*
X158057155Y-99890062D01*
X158033497Y-99880263D01*
X158033493Y-99880262D01*
X158033488Y-99880260D01*
X157878845Y-99849500D01*
X157878842Y-99849500D01*
X157721158Y-99849500D01*
X157721155Y-99849500D01*
X157566511Y-99880260D01*
X157566506Y-99880262D01*
X157566504Y-99880262D01*
X157566503Y-99880263D01*
X157542844Y-99890062D01*
X157495396Y-99899500D01*
X150271155Y-99899500D01*
X150116510Y-99930261D01*
X150116498Y-99930264D01*
X149970827Y-99990602D01*
X149970814Y-99990609D01*
X149839711Y-100078210D01*
X149839707Y-100078213D01*
X149728213Y-100189707D01*
X149728210Y-100189711D01*
X149640609Y-100320814D01*
X149640602Y-100320827D01*
X149580264Y-100466498D01*
X149580261Y-100466510D01*
X149549500Y-100621153D01*
X147083429Y-100621153D01*
X147104275Y-100570827D01*
X147105603Y-100567621D01*
X147105605Y-100567614D01*
X147119737Y-100533497D01*
X147150500Y-100378842D01*
X147150500Y-100221158D01*
X147150500Y-100221155D01*
X147150499Y-100221153D01*
X147122066Y-100078211D01*
X147119737Y-100066503D01*
X147088298Y-99990602D01*
X147059397Y-99920827D01*
X147059390Y-99920814D01*
X146971789Y-99789711D01*
X146971786Y-99789707D01*
X146860292Y-99678213D01*
X146860288Y-99678210D01*
X146729185Y-99590609D01*
X146729172Y-99590602D01*
X146583501Y-99530264D01*
X146583489Y-99530261D01*
X146428845Y-99499500D01*
X146428842Y-99499500D01*
X146271158Y-99499500D01*
X146271155Y-99499500D01*
X146116510Y-99530261D01*
X146116498Y-99530264D01*
X145970827Y-99590602D01*
X145970814Y-99590609D01*
X145839711Y-99678210D01*
X145839707Y-99678213D01*
X145728213Y-99789707D01*
X145728210Y-99789711D01*
X145640609Y-99920814D01*
X145640602Y-99920827D01*
X145580264Y-100066498D01*
X145580261Y-100066510D01*
X145549500Y-100221153D01*
X118782217Y-100221153D01*
X118683501Y-100180264D01*
X118683489Y-100180261D01*
X118528845Y-100149500D01*
X118528842Y-100149500D01*
X118371158Y-100149500D01*
X118371155Y-100149500D01*
X118216510Y-100180261D01*
X118216498Y-100180264D01*
X118070827Y-100240602D01*
X118070814Y-100240609D01*
X117939711Y-100328210D01*
X117939707Y-100328213D01*
X117828213Y-100439707D01*
X117828210Y-100439711D01*
X117740609Y-100570814D01*
X117740602Y-100570827D01*
X117680264Y-100716498D01*
X117680261Y-100716510D01*
X117649500Y-100871153D01*
X115501500Y-100871153D01*
X115501500Y-98871153D01*
X143049500Y-98871153D01*
X143049500Y-99028846D01*
X143080261Y-99183489D01*
X143080264Y-99183501D01*
X143140602Y-99329172D01*
X143140609Y-99329185D01*
X143228210Y-99460288D01*
X143228213Y-99460292D01*
X143339707Y-99571786D01*
X143339711Y-99571789D01*
X143470814Y-99659390D01*
X143470827Y-99659397D01*
X143516254Y-99678213D01*
X143616503Y-99719737D01*
X143771153Y-99750499D01*
X143771156Y-99750500D01*
X143771158Y-99750500D01*
X143928844Y-99750500D01*
X143928845Y-99750499D01*
X144083497Y-99719737D01*
X144229179Y-99659394D01*
X144360289Y-99571789D01*
X144471789Y-99460289D01*
X144559394Y-99329179D01*
X144619737Y-99183497D01*
X144650500Y-99028842D01*
X144650500Y-98871158D01*
X144650500Y-98871155D01*
X144650499Y-98871153D01*
X144619738Y-98716510D01*
X144619737Y-98716503D01*
X144619735Y-98716498D01*
X144559397Y-98570827D01*
X144559390Y-98570814D01*
X144471789Y-98439711D01*
X144471786Y-98439707D01*
X144360292Y-98328213D01*
X144360288Y-98328210D01*
X144229185Y-98240609D01*
X144229172Y-98240602D01*
X144083501Y-98180264D01*
X144083489Y-98180261D01*
X143928845Y-98149500D01*
X143928842Y-98149500D01*
X143771158Y-98149500D01*
X143771155Y-98149500D01*
X143616510Y-98180261D01*
X143616498Y-98180264D01*
X143470827Y-98240602D01*
X143470814Y-98240609D01*
X143339711Y-98328210D01*
X143339707Y-98328213D01*
X143228213Y-98439707D01*
X143228210Y-98439711D01*
X143140609Y-98570814D01*
X143140602Y-98570827D01*
X143080264Y-98716498D01*
X143080261Y-98716510D01*
X143049500Y-98871153D01*
X115501500Y-98871153D01*
X115501500Y-96571153D01*
X125499500Y-96571153D01*
X125499500Y-96728846D01*
X125530261Y-96883489D01*
X125530264Y-96883501D01*
X125590602Y-97029172D01*
X125590609Y-97029185D01*
X125678210Y-97160288D01*
X125678213Y-97160292D01*
X125789707Y-97271786D01*
X125789711Y-97271789D01*
X125920814Y-97359390D01*
X125920827Y-97359397D01*
X126066498Y-97419735D01*
X126066503Y-97419737D01*
X126221153Y-97450499D01*
X126221156Y-97450500D01*
X126221158Y-97450500D01*
X126378844Y-97450500D01*
X126378845Y-97450499D01*
X126533497Y-97419737D01*
X126651592Y-97370821D01*
X126679172Y-97359397D01*
X126679172Y-97359396D01*
X126679179Y-97359394D01*
X126810289Y-97271789D01*
X126921789Y-97160289D01*
X127009394Y-97029179D01*
X127069737Y-96883497D01*
X127100500Y-96728842D01*
X127100500Y-96571158D01*
X127100500Y-96571155D01*
X127100499Y-96571153D01*
X127069738Y-96416510D01*
X127069737Y-96416503D01*
X127069735Y-96416498D01*
X127009397Y-96270827D01*
X127009390Y-96270814D01*
X126921789Y-96139711D01*
X126921786Y-96139707D01*
X126810292Y-96028213D01*
X126810288Y-96028210D01*
X126679185Y-95940609D01*
X126679172Y-95940602D01*
X126533501Y-95880264D01*
X126533489Y-95880261D01*
X126378845Y-95849500D01*
X126378842Y-95849500D01*
X126221158Y-95849500D01*
X126221155Y-95849500D01*
X126066510Y-95880261D01*
X126066498Y-95880264D01*
X125920827Y-95940602D01*
X125920814Y-95940609D01*
X125789711Y-96028210D01*
X125789707Y-96028213D01*
X125678213Y-96139707D01*
X125678210Y-96139711D01*
X125590609Y-96270814D01*
X125590602Y-96270827D01*
X125530264Y-96416498D01*
X125530261Y-96416510D01*
X125499500Y-96571153D01*
X115501500Y-96571153D01*
X115501500Y-90821153D01*
X125799500Y-90821153D01*
X125799500Y-90978846D01*
X125830261Y-91133489D01*
X125830264Y-91133501D01*
X125890602Y-91279172D01*
X125890609Y-91279185D01*
X125978210Y-91410288D01*
X125978213Y-91410292D01*
X126089707Y-91521786D01*
X126089711Y-91521789D01*
X126220814Y-91609390D01*
X126220827Y-91609397D01*
X126366498Y-91669735D01*
X126366503Y-91669737D01*
X126482639Y-91692838D01*
X126521153Y-91700499D01*
X126521156Y-91700500D01*
X126521158Y-91700500D01*
X126678844Y-91700500D01*
X126678845Y-91700499D01*
X126833497Y-91669737D01*
X126979179Y-91609394D01*
X126979185Y-91609390D01*
X127080091Y-91541967D01*
X127146768Y-91521089D01*
X127214149Y-91539573D01*
X127260839Y-91591552D01*
X127270599Y-91620877D01*
X127274162Y-91638791D01*
X127274165Y-91638801D01*
X127334503Y-91784472D01*
X127334510Y-91784485D01*
X127422111Y-91915588D01*
X127422114Y-91915592D01*
X127533608Y-92027086D01*
X127533612Y-92027089D01*
X127664715Y-92114690D01*
X127664728Y-92114697D01*
X127797744Y-92169793D01*
X127810404Y-92175037D01*
X127965054Y-92205799D01*
X127965057Y-92205800D01*
X127965059Y-92205800D01*
X128122745Y-92205800D01*
X128122746Y-92205799D01*
X128277398Y-92175037D01*
X128423080Y-92114694D01*
X128554190Y-92027089D01*
X128660237Y-91921041D01*
X128721558Y-91887558D01*
X128791250Y-91892542D01*
X128847184Y-91934413D01*
X128862478Y-91961272D01*
X128890602Y-92029172D01*
X128890609Y-92029185D01*
X128978210Y-92160288D01*
X128978213Y-92160292D01*
X129089707Y-92271786D01*
X129089711Y-92271789D01*
X129220814Y-92359390D01*
X129220827Y-92359397D01*
X129366498Y-92419735D01*
X129366503Y-92419737D01*
X129521153Y-92450499D01*
X129521156Y-92450500D01*
X129521158Y-92450500D01*
X129678844Y-92450500D01*
X129678845Y-92450499D01*
X129833497Y-92419737D01*
X129979179Y-92359394D01*
X130110289Y-92271789D01*
X130221789Y-92160289D01*
X130309394Y-92029179D01*
X130369737Y-91883497D01*
X130400500Y-91728842D01*
X130400500Y-91571158D01*
X130400500Y-91571155D01*
X130400499Y-91571153D01*
X130369737Y-91416503D01*
X130355599Y-91382370D01*
X130309397Y-91270827D01*
X130309390Y-91270814D01*
X130221789Y-91139711D01*
X130221786Y-91139707D01*
X130110292Y-91028213D01*
X130110288Y-91028210D01*
X129979185Y-90940609D01*
X129979172Y-90940602D01*
X129833501Y-90880264D01*
X129833489Y-90880261D01*
X129678845Y-90849500D01*
X129678842Y-90849500D01*
X129521158Y-90849500D01*
X129521155Y-90849500D01*
X129366510Y-90880261D01*
X129366498Y-90880264D01*
X129220827Y-90940602D01*
X129220814Y-90940609D01*
X129089711Y-91028210D01*
X128983664Y-91134257D01*
X128922341Y-91167741D01*
X128852649Y-91162757D01*
X128796716Y-91120885D01*
X128781424Y-91094032D01*
X128753295Y-91026121D01*
X128753291Y-91026114D01*
X128665690Y-90895011D01*
X128665687Y-90895007D01*
X128554193Y-90783513D01*
X128554189Y-90783510D01*
X128423086Y-90695909D01*
X128423073Y-90695902D01*
X128277402Y-90635564D01*
X128277390Y-90635561D01*
X128122746Y-90604800D01*
X128122743Y-90604800D01*
X127965059Y-90604800D01*
X127965056Y-90604800D01*
X127810411Y-90635561D01*
X127810399Y-90635564D01*
X127664728Y-90695902D01*
X127664717Y-90695908D01*
X127563808Y-90763333D01*
X127497130Y-90784210D01*
X127429750Y-90765725D01*
X127383061Y-90713746D01*
X127373301Y-90684422D01*
X127369737Y-90666503D01*
X127334090Y-90580443D01*
X127309397Y-90520827D01*
X127309390Y-90520814D01*
X127221789Y-90389711D01*
X127221786Y-90389707D01*
X127110292Y-90278213D01*
X127110288Y-90278210D01*
X126979185Y-90190609D01*
X126979173Y-90190602D01*
X126952674Y-90179627D01*
X126833501Y-90130264D01*
X126833489Y-90130261D01*
X126678845Y-90099500D01*
X126678842Y-90099500D01*
X126521158Y-90099500D01*
X126521155Y-90099500D01*
X126366510Y-90130261D01*
X126366498Y-90130264D01*
X126220827Y-90190602D01*
X126220814Y-90190609D01*
X126089711Y-90278210D01*
X126089707Y-90278213D01*
X125978213Y-90389707D01*
X125978210Y-90389711D01*
X125890609Y-90520814D01*
X125890602Y-90520827D01*
X125830264Y-90666498D01*
X125830261Y-90666510D01*
X125799500Y-90821153D01*
X115501500Y-90821153D01*
X115501500Y-90071153D01*
X132949500Y-90071153D01*
X132949500Y-90228846D01*
X132980261Y-90383489D01*
X132980264Y-90383501D01*
X133040602Y-90529172D01*
X133040609Y-90529185D01*
X133128210Y-90660288D01*
X133128213Y-90660292D01*
X133239707Y-90771786D01*
X133239711Y-90771789D01*
X133370814Y-90859390D01*
X133370827Y-90859397D01*
X133516498Y-90919735D01*
X133516503Y-90919737D01*
X133628547Y-90942024D01*
X133671153Y-90950499D01*
X133671156Y-90950500D01*
X133671158Y-90950500D01*
X133828844Y-90950500D01*
X133828845Y-90950499D01*
X133983497Y-90919737D01*
X134129179Y-90859394D01*
X134260289Y-90771789D01*
X134371789Y-90660289D01*
X134459394Y-90529179D01*
X134462854Y-90520827D01*
X134473067Y-90496166D01*
X134519737Y-90383497D01*
X134550500Y-90228842D01*
X134550500Y-90071158D01*
X134550500Y-90071155D01*
X134550499Y-90071153D01*
X134530014Y-89968170D01*
X134519737Y-89916503D01*
X134519735Y-89916498D01*
X134459397Y-89770827D01*
X134459390Y-89770814D01*
X134371789Y-89639711D01*
X134371786Y-89639707D01*
X134260292Y-89528213D01*
X134260288Y-89528210D01*
X134129185Y-89440609D01*
X134129172Y-89440602D01*
X133983501Y-89380264D01*
X133983489Y-89380261D01*
X133828845Y-89349500D01*
X133828842Y-89349500D01*
X133671158Y-89349500D01*
X133671155Y-89349500D01*
X133516510Y-89380261D01*
X133516498Y-89380264D01*
X133370827Y-89440602D01*
X133370814Y-89440609D01*
X133239711Y-89528210D01*
X133239707Y-89528213D01*
X133128213Y-89639707D01*
X133128210Y-89639711D01*
X133040609Y-89770814D01*
X133040602Y-89770827D01*
X132980264Y-89916498D01*
X132980261Y-89916510D01*
X132949500Y-90071153D01*
X115501500Y-90071153D01*
X115501500Y-87671153D01*
X159249500Y-87671153D01*
X159249500Y-87828846D01*
X159280261Y-87983489D01*
X159280264Y-87983501D01*
X159340602Y-88129172D01*
X159340609Y-88129185D01*
X159428210Y-88260288D01*
X159428213Y-88260292D01*
X159539707Y-88371786D01*
X159539711Y-88371789D01*
X159670814Y-88459390D01*
X159670827Y-88459397D01*
X159816498Y-88519735D01*
X159816503Y-88519737D01*
X159971153Y-88550499D01*
X159971156Y-88550500D01*
X159971158Y-88550500D01*
X160128844Y-88550500D01*
X160128845Y-88550499D01*
X160283497Y-88519737D01*
X160429179Y-88459394D01*
X160560289Y-88371789D01*
X160671789Y-88260289D01*
X160759394Y-88129179D01*
X160819737Y-87983497D01*
X160850500Y-87828842D01*
X160850500Y-87671158D01*
X160850500Y-87671155D01*
X160850499Y-87671153D01*
X160819738Y-87516510D01*
X160819737Y-87516503D01*
X160819735Y-87516498D01*
X160759397Y-87370827D01*
X160759390Y-87370814D01*
X160671789Y-87239711D01*
X160671786Y-87239707D01*
X160560292Y-87128213D01*
X160560288Y-87128210D01*
X160429185Y-87040609D01*
X160429172Y-87040602D01*
X160283501Y-86980264D01*
X160283489Y-86980261D01*
X160128845Y-86949500D01*
X160128842Y-86949500D01*
X159971158Y-86949500D01*
X159971155Y-86949500D01*
X159816510Y-86980261D01*
X159816498Y-86980264D01*
X159670827Y-87040602D01*
X159670814Y-87040609D01*
X159539711Y-87128210D01*
X159539707Y-87128213D01*
X159428213Y-87239707D01*
X159428210Y-87239711D01*
X159340609Y-87370814D01*
X159340602Y-87370827D01*
X159280264Y-87516498D01*
X159280261Y-87516510D01*
X159249500Y-87671153D01*
X115501500Y-87671153D01*
X115501500Y-86578269D01*
X115521185Y-86511230D01*
X115522398Y-86509378D01*
X115609390Y-86379185D01*
X115609390Y-86379184D01*
X115609394Y-86379179D01*
X115669737Y-86233497D01*
X115700500Y-86078842D01*
X115700500Y-86023500D01*
X115720185Y-85956461D01*
X115772989Y-85910706D01*
X115824500Y-85899500D01*
X127125500Y-85899500D01*
X127192539Y-85919185D01*
X127238294Y-85971989D01*
X127249500Y-86023500D01*
X127249500Y-86028846D01*
X127280261Y-86183489D01*
X127280264Y-86183501D01*
X127340602Y-86329172D01*
X127340609Y-86329185D01*
X127428210Y-86460288D01*
X127428213Y-86460292D01*
X127539707Y-86571786D01*
X127539711Y-86571789D01*
X127670814Y-86659390D01*
X127670827Y-86659397D01*
X127770060Y-86700500D01*
X127816503Y-86719737D01*
X127971153Y-86750499D01*
X127971156Y-86750500D01*
X127971158Y-86750500D01*
X128128844Y-86750500D01*
X128128845Y-86750499D01*
X128283497Y-86719737D01*
X128429179Y-86659394D01*
X128560289Y-86571789D01*
X128671789Y-86460289D01*
X128759394Y-86329179D01*
X128819737Y-86183497D01*
X128850500Y-86028842D01*
X128850500Y-86023500D01*
X128870185Y-85956461D01*
X128922989Y-85910706D01*
X128974500Y-85899500D01*
X131037608Y-85899500D01*
X131037608Y-85899499D01*
X131105824Y-85885931D01*
X131158452Y-85875463D01*
X131191792Y-85861652D01*
X131272286Y-85828312D01*
X131323509Y-85794084D01*
X131374733Y-85759858D01*
X131461858Y-85672733D01*
X131461859Y-85672731D01*
X131468925Y-85665665D01*
X131468928Y-85665661D01*
X132278793Y-84855796D01*
X170500000Y-84855796D01*
X170500000Y-85144203D01*
X170537643Y-85430118D01*
X170612283Y-85708682D01*
X170722644Y-85975116D01*
X170722648Y-85975126D01*
X170866838Y-86224872D01*
X170977438Y-86369007D01*
X171891497Y-85454947D01*
X171981505Y-85589653D01*
X172110347Y-85718495D01*
X172245050Y-85808501D01*
X171330991Y-86722560D01*
X171475128Y-86833161D01*
X171724873Y-86977351D01*
X171724883Y-86977355D01*
X171991317Y-87087716D01*
X172269881Y-87162356D01*
X172555796Y-87199999D01*
X172555811Y-87200000D01*
X172844189Y-87200000D01*
X172844203Y-87199999D01*
X173130118Y-87162356D01*
X173408682Y-87087716D01*
X173675116Y-86977355D01*
X173675126Y-86977351D01*
X173924870Y-86833161D01*
X173924887Y-86833150D01*
X174069007Y-86722561D01*
X174069007Y-86722559D01*
X173154948Y-85808501D01*
X173289653Y-85718495D01*
X173418495Y-85589653D01*
X173508501Y-85454948D01*
X174422559Y-86369007D01*
X174422561Y-86369007D01*
X174533150Y-86224887D01*
X174533161Y-86224870D01*
X174677351Y-85975126D01*
X174677355Y-85975116D01*
X174787716Y-85708682D01*
X174862356Y-85430118D01*
X174899999Y-85144203D01*
X174900000Y-85144189D01*
X174900000Y-84855810D01*
X174899999Y-84855796D01*
X174862356Y-84569881D01*
X174787716Y-84291317D01*
X174677355Y-84024883D01*
X174677351Y-84024873D01*
X174533161Y-83775128D01*
X174422560Y-83630991D01*
X173508501Y-84545050D01*
X173418495Y-84410347D01*
X173289653Y-84281505D01*
X173154947Y-84191497D01*
X174069007Y-83277438D01*
X173924872Y-83166838D01*
X173675126Y-83022648D01*
X173675116Y-83022644D01*
X173408682Y-82912283D01*
X173130118Y-82837643D01*
X172844203Y-82800000D01*
X172555796Y-82800000D01*
X172269881Y-82837643D01*
X171991317Y-82912283D01*
X171724883Y-83022644D01*
X171724873Y-83022648D01*
X171475123Y-83166841D01*
X171330991Y-83277436D01*
X171330991Y-83277438D01*
X172245051Y-84191498D01*
X172110347Y-84281505D01*
X171981505Y-84410347D01*
X171891498Y-84545051D01*
X170977438Y-83630991D01*
X170977436Y-83630991D01*
X170866841Y-83775123D01*
X170722648Y-84024873D01*
X170722644Y-84024883D01*
X170612283Y-84291317D01*
X170537643Y-84569881D01*
X170500000Y-84855796D01*
X132278793Y-84855796D01*
X142763436Y-74371153D01*
X170499500Y-74371153D01*
X170499500Y-74528846D01*
X170530261Y-74683489D01*
X170530264Y-74683501D01*
X170590602Y-74829172D01*
X170590609Y-74829185D01*
X170678210Y-74960288D01*
X170678213Y-74960292D01*
X170789707Y-75071786D01*
X170789711Y-75071789D01*
X170920814Y-75159390D01*
X170920827Y-75159397D01*
X171066498Y-75219735D01*
X171066503Y-75219737D01*
X171221153Y-75250499D01*
X171221156Y-75250500D01*
X171221158Y-75250500D01*
X171378844Y-75250500D01*
X171378845Y-75250499D01*
X171533497Y-75219737D01*
X171679179Y-75159394D01*
X171810289Y-75071789D01*
X171921789Y-74960289D01*
X172009394Y-74829179D01*
X172069737Y-74683497D01*
X172100500Y-74528842D01*
X172100500Y-74371158D01*
X172100500Y-74371155D01*
X172100499Y-74371153D01*
X172069738Y-74216510D01*
X172069737Y-74216503D01*
X172069735Y-74216498D01*
X172009397Y-74070827D01*
X172009390Y-74070814D01*
X171921789Y-73939711D01*
X171921786Y-73939707D01*
X171810292Y-73828213D01*
X171810288Y-73828210D01*
X171679185Y-73740609D01*
X171679172Y-73740602D01*
X171533501Y-73680264D01*
X171533489Y-73680261D01*
X171378845Y-73649500D01*
X171378842Y-73649500D01*
X171221158Y-73649500D01*
X171221155Y-73649500D01*
X171066510Y-73680261D01*
X171066498Y-73680264D01*
X170920827Y-73740602D01*
X170920814Y-73740609D01*
X170789711Y-73828210D01*
X170789707Y-73828213D01*
X170678213Y-73939707D01*
X170678210Y-73939711D01*
X170590609Y-74070814D01*
X170590602Y-74070827D01*
X170530264Y-74216498D01*
X170530261Y-74216510D01*
X170499500Y-74371153D01*
X142763436Y-74371153D01*
X144513436Y-72621153D01*
X147499500Y-72621153D01*
X147499500Y-72778846D01*
X147530261Y-72933489D01*
X147530264Y-72933501D01*
X147590602Y-73079172D01*
X147590609Y-73079185D01*
X147678210Y-73210288D01*
X147678213Y-73210292D01*
X147789707Y-73321786D01*
X147789711Y-73321789D01*
X147920814Y-73409390D01*
X147920827Y-73409397D01*
X148066498Y-73469735D01*
X148066503Y-73469737D01*
X148221153Y-73500499D01*
X148221156Y-73500500D01*
X148221158Y-73500500D01*
X148378844Y-73500500D01*
X148378845Y-73500499D01*
X148533497Y-73469737D01*
X148679179Y-73409394D01*
X148810289Y-73321789D01*
X148921789Y-73210289D01*
X149009394Y-73079179D01*
X149069737Y-72933497D01*
X149100500Y-72778842D01*
X149100500Y-72621158D01*
X149100500Y-72621155D01*
X149100499Y-72621153D01*
X149069738Y-72466510D01*
X149069737Y-72466503D01*
X149053876Y-72428210D01*
X149009397Y-72320827D01*
X149009390Y-72320814D01*
X148921789Y-72189711D01*
X148921786Y-72189707D01*
X148810292Y-72078213D01*
X148810288Y-72078210D01*
X148679185Y-71990609D01*
X148679172Y-71990602D01*
X148533501Y-71930264D01*
X148533489Y-71930261D01*
X148378845Y-71899500D01*
X148378842Y-71899500D01*
X148221158Y-71899500D01*
X148221155Y-71899500D01*
X148066510Y-71930261D01*
X148066498Y-71930264D01*
X147920827Y-71990602D01*
X147920814Y-71990609D01*
X147789711Y-72078210D01*
X147789707Y-72078213D01*
X147678213Y-72189707D01*
X147678210Y-72189711D01*
X147590609Y-72320814D01*
X147590602Y-72320827D01*
X147530264Y-72466498D01*
X147530261Y-72466510D01*
X147499500Y-72621153D01*
X144513436Y-72621153D01*
X147813436Y-69321153D01*
X149549500Y-69321153D01*
X149549500Y-69478846D01*
X149580261Y-69633489D01*
X149580264Y-69633501D01*
X149640602Y-69779172D01*
X149640609Y-69779185D01*
X149728210Y-69910288D01*
X149728213Y-69910292D01*
X149839707Y-70021786D01*
X149839711Y-70021789D01*
X149970814Y-70109390D01*
X149970827Y-70109397D01*
X150116498Y-70169735D01*
X150116503Y-70169737D01*
X150266131Y-70199500D01*
X150271153Y-70200499D01*
X150271156Y-70200500D01*
X150271158Y-70200500D01*
X150428844Y-70200500D01*
X150428845Y-70200499D01*
X150583497Y-70169737D01*
X150729179Y-70109394D01*
X150860289Y-70021789D01*
X150971789Y-69910289D01*
X151059394Y-69779179D01*
X151119737Y-69633497D01*
X151150500Y-69478842D01*
X151150500Y-69321158D01*
X151150500Y-69321155D01*
X151150499Y-69321153D01*
X151146039Y-69298733D01*
X151119737Y-69166503D01*
X151104138Y-69128844D01*
X151059397Y-69020827D01*
X151059390Y-69020814D01*
X150971789Y-68889711D01*
X150971786Y-68889707D01*
X150860292Y-68778213D01*
X150860288Y-68778210D01*
X150729185Y-68690609D01*
X150729172Y-68690602D01*
X150583501Y-68630264D01*
X150583489Y-68630261D01*
X150428845Y-68599500D01*
X150428842Y-68599500D01*
X150271158Y-68599500D01*
X150271155Y-68599500D01*
X150116510Y-68630261D01*
X150116498Y-68630264D01*
X149970827Y-68690602D01*
X149970814Y-68690609D01*
X149839711Y-68778210D01*
X149839707Y-68778213D01*
X149728213Y-68889707D01*
X149728210Y-68889711D01*
X149640609Y-69020814D01*
X149640602Y-69020827D01*
X149580264Y-69166498D01*
X149580261Y-69166510D01*
X149549500Y-69321153D01*
X147813436Y-69321153D01*
X148998729Y-68135860D01*
X148998733Y-68135858D01*
X149085858Y-68048733D01*
X149141203Y-67965904D01*
X149154312Y-67946285D01*
X149188620Y-67863457D01*
X149201463Y-67832452D01*
X149225500Y-67711606D01*
X149225500Y-66042350D01*
X149245185Y-65975311D01*
X149246398Y-65973459D01*
X149246809Y-65972843D01*
X149309394Y-65879179D01*
X149369737Y-65733497D01*
X149400500Y-65578842D01*
X149400500Y-65421158D01*
X149400500Y-65421155D01*
X149400499Y-65421153D01*
X149391957Y-65378210D01*
X149369737Y-65266503D01*
X149366028Y-65257548D01*
X149309397Y-65120827D01*
X149309390Y-65120814D01*
X149221789Y-64989711D01*
X149221786Y-64989707D01*
X149110292Y-64878213D01*
X149110288Y-64878210D01*
X148979185Y-64790609D01*
X148979172Y-64790602D01*
X148833501Y-64730264D01*
X148833489Y-64730261D01*
X148678845Y-64699500D01*
X148678842Y-64699500D01*
X148521158Y-64699500D01*
X148521155Y-64699500D01*
X148366510Y-64730261D01*
X148366498Y-64730264D01*
X148220827Y-64790602D01*
X148220814Y-64790609D01*
X148089711Y-64878210D01*
X148089707Y-64878213D01*
X147978213Y-64989707D01*
X147978210Y-64989711D01*
X147890609Y-65120814D01*
X147890602Y-65120827D01*
X147830264Y-65266498D01*
X147830261Y-65266510D01*
X147799500Y-65421153D01*
X147799500Y-65421158D01*
X147799500Y-65578842D01*
X147799500Y-65578844D01*
X147799499Y-65578844D01*
X147829824Y-65731291D01*
X147823597Y-65800883D01*
X147780734Y-65856060D01*
X147732402Y-65877100D01*
X147716504Y-65880262D01*
X147716498Y-65880264D01*
X147570827Y-65940602D01*
X147570814Y-65940609D01*
X147439711Y-66028210D01*
X147439707Y-66028213D01*
X147328213Y-66139707D01*
X147328210Y-66139711D01*
X147240609Y-66270814D01*
X147240602Y-66270827D01*
X147180264Y-66416498D01*
X147180261Y-66416510D01*
X147149500Y-66571153D01*
X147149500Y-66728846D01*
X147180261Y-66883489D01*
X147180264Y-66883501D01*
X147240602Y-67029172D01*
X147240609Y-67029185D01*
X147328210Y-67160288D01*
X147328213Y-67160292D01*
X147439707Y-67271786D01*
X147439711Y-67271789D01*
X147570814Y-67359390D01*
X147570827Y-67359397D01*
X147707097Y-67415841D01*
X147761501Y-67459681D01*
X147783566Y-67525975D01*
X147766287Y-67593675D01*
X147747326Y-67618083D01*
X144156099Y-71209310D01*
X144094776Y-71242795D01*
X144025084Y-71237811D01*
X143969151Y-71195939D01*
X143944734Y-71130475D01*
X143946800Y-71097439D01*
X143950500Y-71078842D01*
X143950500Y-70921158D01*
X143950500Y-70921155D01*
X143950499Y-70921153D01*
X143948756Y-70912389D01*
X143919737Y-70766503D01*
X143916301Y-70758207D01*
X143859397Y-70620827D01*
X143859390Y-70620814D01*
X143771789Y-70489711D01*
X143771786Y-70489707D01*
X143660292Y-70378213D01*
X143660288Y-70378210D01*
X143529185Y-70290609D01*
X143529172Y-70290602D01*
X143383501Y-70230264D01*
X143383489Y-70230261D01*
X143228845Y-70199500D01*
X143228842Y-70199500D01*
X143071158Y-70199500D01*
X143071155Y-70199500D01*
X142916510Y-70230261D01*
X142916498Y-70230264D01*
X142770827Y-70290602D01*
X142770814Y-70290609D01*
X142639711Y-70378210D01*
X142639707Y-70378213D01*
X142528213Y-70489707D01*
X142528210Y-70489711D01*
X142440609Y-70620814D01*
X142440602Y-70620827D01*
X142380264Y-70766498D01*
X142380261Y-70766510D01*
X142349500Y-70921153D01*
X142349500Y-71078846D01*
X142380261Y-71233489D01*
X142380264Y-71233501D01*
X142440602Y-71379172D01*
X142440609Y-71379185D01*
X142528210Y-71510288D01*
X142528213Y-71510292D01*
X142639707Y-71621786D01*
X142639711Y-71621789D01*
X142770814Y-71709390D01*
X142770827Y-71709397D01*
X142916498Y-71769735D01*
X142916503Y-71769737D01*
X143052562Y-71796801D01*
X143071153Y-71800499D01*
X143071156Y-71800500D01*
X143071158Y-71800500D01*
X143228841Y-71800500D01*
X143228842Y-71800500D01*
X143247436Y-71796801D01*
X143317026Y-71803027D01*
X143372205Y-71845888D01*
X143395451Y-71911777D01*
X143379385Y-71979775D01*
X143359310Y-72006099D01*
X130753229Y-84612181D01*
X130691906Y-84645666D01*
X130665548Y-84648500D01*
X117254604Y-84648500D01*
X117187565Y-84628815D01*
X117141810Y-84576011D01*
X117131866Y-84506853D01*
X117160891Y-84443297D01*
X117207152Y-84409939D01*
X117329172Y-84359397D01*
X117329172Y-84359396D01*
X117329179Y-84359394D01*
X117460289Y-84271789D01*
X117571789Y-84160289D01*
X117659394Y-84029179D01*
X117661174Y-84024883D01*
X117680102Y-83979185D01*
X117719737Y-83883497D01*
X117750500Y-83728842D01*
X117750500Y-83571158D01*
X117750500Y-83571155D01*
X117750499Y-83571153D01*
X117732419Y-83480261D01*
X117719737Y-83416503D01*
X117697103Y-83361859D01*
X117659397Y-83270827D01*
X117659390Y-83270814D01*
X117571789Y-83139711D01*
X117571786Y-83139707D01*
X117460292Y-83028213D01*
X117460288Y-83028210D01*
X117329185Y-82940609D01*
X117329172Y-82940602D01*
X117183501Y-82880264D01*
X117183489Y-82880261D01*
X117028845Y-82849500D01*
X117028842Y-82849500D01*
X116871158Y-82849500D01*
X116871155Y-82849500D01*
X116716510Y-82880261D01*
X116716498Y-82880264D01*
X116570827Y-82940602D01*
X116570814Y-82940609D01*
X116439711Y-83028210D01*
X116439707Y-83028213D01*
X116328213Y-83139707D01*
X116328210Y-83139711D01*
X116240609Y-83270814D01*
X116240602Y-83270827D01*
X116180264Y-83416498D01*
X116180261Y-83416510D01*
X116149500Y-83571153D01*
X116149500Y-83728846D01*
X116180261Y-83883489D01*
X116180264Y-83883501D01*
X116240602Y-84029172D01*
X116240609Y-84029185D01*
X116328210Y-84160288D01*
X116328213Y-84160292D01*
X116439707Y-84271786D01*
X116439711Y-84271789D01*
X116570814Y-84359390D01*
X116570827Y-84359397D01*
X116692848Y-84409939D01*
X116747252Y-84453779D01*
X116769317Y-84520073D01*
X116752038Y-84587773D01*
X116700901Y-84635384D01*
X116645396Y-84648500D01*
X113134934Y-84648500D01*
X113067895Y-84628815D01*
X113052424Y-84610961D01*
X113050370Y-84614496D01*
X112988173Y-84646328D01*
X112965066Y-84648500D01*
X111886878Y-84648500D01*
X111819839Y-84628815D01*
X111774084Y-84576011D01*
X111764140Y-84506853D01*
X111768219Y-84488498D01*
X111769730Y-84483511D01*
X111769737Y-84483497D01*
X111800500Y-84328842D01*
X111800500Y-84171158D01*
X111800500Y-84171155D01*
X111800499Y-84171153D01*
X111789627Y-84116498D01*
X111769737Y-84016503D01*
X111769735Y-84016498D01*
X111709397Y-83870827D01*
X111709390Y-83870814D01*
X111621789Y-83739711D01*
X111621786Y-83739707D01*
X111510292Y-83628213D01*
X111510288Y-83628210D01*
X111379185Y-83540609D01*
X111379172Y-83540602D01*
X111233501Y-83480264D01*
X111233489Y-83480261D01*
X111078845Y-83449500D01*
X111078842Y-83449500D01*
X110921158Y-83449500D01*
X110921155Y-83449500D01*
X110766510Y-83480261D01*
X110766498Y-83480264D01*
X110620827Y-83540602D01*
X110620814Y-83540609D01*
X110489711Y-83628210D01*
X110489707Y-83628213D01*
X110378213Y-83739707D01*
X110378210Y-83739711D01*
X110290609Y-83870814D01*
X110290602Y-83870827D01*
X110230264Y-84016498D01*
X110230261Y-84016510D01*
X110199500Y-84171153D01*
X110199500Y-84328846D01*
X110230260Y-84483485D01*
X110230261Y-84483490D01*
X110230263Y-84483497D01*
X110230265Y-84483502D01*
X110231781Y-84488498D01*
X110232022Y-84515461D01*
X110235860Y-84542147D01*
X110232331Y-84549872D01*
X110232408Y-84558365D01*
X110218036Y-84581176D01*
X110206835Y-84605703D01*
X110199690Y-84610294D01*
X110195163Y-84617480D01*
X110170740Y-84628899D01*
X110148057Y-84643477D01*
X110135791Y-84645240D01*
X110131870Y-84647074D01*
X110113122Y-84648500D01*
X110007902Y-84648500D01*
X109940863Y-84628815D01*
X109895108Y-84576011D01*
X109885164Y-84506853D01*
X109886285Y-84500309D01*
X109900499Y-84428846D01*
X109900500Y-84428844D01*
X109900500Y-84271155D01*
X109900499Y-84271153D01*
X109898159Y-84259390D01*
X109869737Y-84116503D01*
X109854139Y-84078846D01*
X109809397Y-83970827D01*
X109809390Y-83970814D01*
X109721789Y-83839711D01*
X109721786Y-83839707D01*
X109610292Y-83728213D01*
X109610288Y-83728210D01*
X109479185Y-83640609D01*
X109479172Y-83640602D01*
X109333501Y-83580264D01*
X109333489Y-83580261D01*
X109178845Y-83549500D01*
X109178842Y-83549500D01*
X109021158Y-83549500D01*
X109021155Y-83549500D01*
X108866510Y-83580261D01*
X108866498Y-83580264D01*
X108720827Y-83640602D01*
X108720811Y-83640611D01*
X108686579Y-83663484D01*
X108619902Y-83684361D01*
X108552522Y-83665876D01*
X108514118Y-83624991D01*
X108512779Y-83625887D01*
X108421789Y-83489710D01*
X108310292Y-83378213D01*
X108310288Y-83378210D01*
X108179185Y-83290609D01*
X108179172Y-83290602D01*
X108033501Y-83230264D01*
X108033489Y-83230261D01*
X107878845Y-83199500D01*
X107878842Y-83199500D01*
X107721158Y-83199500D01*
X107721155Y-83199500D01*
X107566510Y-83230261D01*
X107566498Y-83230264D01*
X107420827Y-83290602D01*
X107420814Y-83290609D01*
X107289711Y-83378210D01*
X107289707Y-83378213D01*
X107178213Y-83489707D01*
X107178210Y-83489711D01*
X107090609Y-83620814D01*
X107090602Y-83620827D01*
X107030264Y-83766498D01*
X107030261Y-83766510D01*
X106999500Y-83921153D01*
X106999500Y-84078846D01*
X107030261Y-84233489D01*
X107030264Y-84233501D01*
X107090602Y-84379172D01*
X107090609Y-84379185D01*
X107178210Y-84510288D01*
X107178213Y-84510292D01*
X107289707Y-84621786D01*
X107289711Y-84621789D01*
X107420814Y-84709390D01*
X107420827Y-84709397D01*
X107566498Y-84769735D01*
X107566503Y-84769737D01*
X107721153Y-84800499D01*
X107721156Y-84800500D01*
X107721158Y-84800500D01*
X107878844Y-84800500D01*
X107878845Y-84800499D01*
X108033497Y-84769737D01*
X108179179Y-84709394D01*
X108213417Y-84686517D01*
X108222237Y-84683754D01*
X108229134Y-84677598D01*
X108255054Y-84673478D01*
X108280094Y-84665638D01*
X108289007Y-84668083D01*
X108298138Y-84666632D01*
X108322170Y-84677180D01*
X108347474Y-84684122D01*
X108355349Y-84691743D01*
X108362116Y-84694714D01*
X108375581Y-84711325D01*
X108385621Y-84721042D01*
X108389915Y-84727511D01*
X108390606Y-84729179D01*
X108453739Y-84823664D01*
X108453812Y-84823774D01*
X108464088Y-84856949D01*
X108474480Y-84890136D01*
X108474483Y-84890506D01*
X108474486Y-84890515D01*
X108474483Y-84890523D01*
X108474500Y-84892350D01*
X108474500Y-85159606D01*
X108492380Y-85249500D01*
X108496421Y-85269813D01*
X108498536Y-85280448D01*
X108545688Y-85394286D01*
X108545688Y-85394287D01*
X108558706Y-85413768D01*
X108576041Y-85439711D01*
X108614142Y-85496733D01*
X108701267Y-85583858D01*
X108701269Y-85583859D01*
X108835904Y-85718495D01*
X108877268Y-85759859D01*
X108979710Y-85828309D01*
X108979711Y-85828309D01*
X108979715Y-85828312D01*
X109046397Y-85855932D01*
X109093548Y-85875463D01*
X109113597Y-85879451D01*
X109178624Y-85892385D01*
X109214392Y-85899501D01*
X109214394Y-85899501D01*
X109343721Y-85899501D01*
X109343741Y-85899500D01*
X110281954Y-85899500D01*
X110348993Y-85919185D01*
X110394748Y-85971989D01*
X110403571Y-85999309D01*
X110430261Y-86133489D01*
X110430264Y-86133501D01*
X110490602Y-86279172D01*
X110490609Y-86279185D01*
X110578210Y-86410288D01*
X110578213Y-86410292D01*
X110689707Y-86521786D01*
X110689711Y-86521789D01*
X110820814Y-86609390D01*
X110820827Y-86609397D01*
X110966498Y-86669735D01*
X110966503Y-86669737D01*
X111121153Y-86700499D01*
X111121156Y-86700500D01*
X111121158Y-86700500D01*
X111278844Y-86700500D01*
X111278845Y-86700499D01*
X111433497Y-86669737D01*
X111579179Y-86609394D01*
X111710289Y-86521789D01*
X111821789Y-86410289D01*
X111909394Y-86279179D01*
X111969737Y-86133497D01*
X111996429Y-85999309D01*
X112028814Y-85937398D01*
X112089529Y-85902824D01*
X112118046Y-85899500D01*
X113975500Y-85899500D01*
X114042539Y-85919185D01*
X114088294Y-85971989D01*
X114099500Y-86023500D01*
X114099500Y-86078846D01*
X114130261Y-86233489D01*
X114130264Y-86233501D01*
X114190603Y-86379174D01*
X114190604Y-86379176D01*
X114229602Y-86437540D01*
X114250480Y-86504218D01*
X114250500Y-86506431D01*
X114250500Y-89381953D01*
X114230815Y-89448992D01*
X114178011Y-89494747D01*
X114150692Y-89503570D01*
X114016508Y-89530261D01*
X114016498Y-89530264D01*
X113872452Y-89589930D01*
X113802983Y-89597399D01*
X113777548Y-89589930D01*
X113633501Y-89530264D01*
X113633489Y-89530261D01*
X113478845Y-89499500D01*
X113478842Y-89499500D01*
X113321158Y-89499500D01*
X113306467Y-89502422D01*
X113236876Y-89496193D01*
X113194596Y-89468484D01*
X113151343Y-89425230D01*
X113151339Y-89425227D01*
X113020236Y-89337626D01*
X113020223Y-89337619D01*
X112874552Y-89277281D01*
X112874540Y-89277278D01*
X112719896Y-89246517D01*
X112719893Y-89246517D01*
X112562209Y-89246517D01*
X112562206Y-89246517D01*
X112407561Y-89277278D01*
X112407549Y-89277281D01*
X112261878Y-89337619D01*
X112261865Y-89337626D01*
X112130762Y-89425227D01*
X112130758Y-89425230D01*
X112019264Y-89536724D01*
X112019261Y-89536728D01*
X111931660Y-89667831D01*
X111931653Y-89667844D01*
X111871315Y-89813515D01*
X111871312Y-89813527D01*
X111840551Y-89968170D01*
X111840551Y-89975500D01*
X111820866Y-90042539D01*
X111768062Y-90088294D01*
X111716551Y-90099500D01*
X111671155Y-90099500D01*
X111516510Y-90130261D01*
X111516498Y-90130264D01*
X111370827Y-90190602D01*
X111370814Y-90190609D01*
X111239711Y-90278210D01*
X111239707Y-90278213D01*
X111128213Y-90389707D01*
X111128210Y-90389711D01*
X111040609Y-90520814D01*
X111040602Y-90520827D01*
X110980264Y-90666498D01*
X110980261Y-90666510D01*
X110949500Y-90821153D01*
X110949500Y-90978846D01*
X110980261Y-91133489D01*
X110980264Y-91133501D01*
X111040602Y-91279172D01*
X111040609Y-91279185D01*
X111128210Y-91410288D01*
X111128213Y-91410292D01*
X111239707Y-91521786D01*
X111239711Y-91521789D01*
X111370814Y-91609390D01*
X111370827Y-91609397D01*
X111516498Y-91669735D01*
X111516503Y-91669737D01*
X111632639Y-91692838D01*
X111671153Y-91700499D01*
X111671156Y-91700500D01*
X111671158Y-91700500D01*
X111828842Y-91700500D01*
X111867359Y-91692838D01*
X111936949Y-91699064D01*
X111992127Y-91741926D01*
X112015373Y-91807815D01*
X112015551Y-91814455D01*
X112015551Y-96783167D01*
X111995866Y-96850206D01*
X111943062Y-96895961D01*
X111873904Y-96905905D01*
X111810348Y-96876880D01*
X111788449Y-96852058D01*
X111746789Y-96789711D01*
X111746786Y-96789707D01*
X111635292Y-96678213D01*
X111635288Y-96678210D01*
X111504185Y-96590609D01*
X111504172Y-96590602D01*
X111358501Y-96530264D01*
X111358489Y-96530261D01*
X111203845Y-96499500D01*
X111203842Y-96499500D01*
X111046158Y-96499500D01*
X111046155Y-96499500D01*
X110891510Y-96530261D01*
X110891498Y-96530264D01*
X110745827Y-96590602D01*
X110745814Y-96590609D01*
X110614711Y-96678210D01*
X110614707Y-96678213D01*
X110503213Y-96789707D01*
X110503210Y-96789711D01*
X110415609Y-96920814D01*
X110415602Y-96920827D01*
X110355264Y-97066498D01*
X110355261Y-97066510D01*
X110324500Y-97221153D01*
X110324500Y-97378846D01*
X110355261Y-97533489D01*
X110355264Y-97533501D01*
X110415602Y-97679172D01*
X110415609Y-97679185D01*
X110503210Y-97810288D01*
X110503213Y-97810292D01*
X110614707Y-97921786D01*
X110614711Y-97921789D01*
X110745814Y-98009390D01*
X110745827Y-98009397D01*
X110863961Y-98058329D01*
X110891503Y-98069737D01*
X111046153Y-98100499D01*
X111046156Y-98100500D01*
X111046158Y-98100500D01*
X111203844Y-98100500D01*
X111203845Y-98100499D01*
X111358497Y-98069737D01*
X111443512Y-98034522D01*
X111512979Y-98027054D01*
X111575459Y-98058329D01*
X111611111Y-98118418D01*
X111608618Y-98188243D01*
X111578644Y-98236765D01*
X101991203Y-107824205D01*
X101929880Y-107857690D01*
X101927714Y-107858141D01*
X101816508Y-107880261D01*
X101816498Y-107880264D01*
X101670827Y-107940602D01*
X101670814Y-107940609D01*
X101539711Y-108028210D01*
X101539707Y-108028213D01*
X101428213Y-108139707D01*
X101428210Y-108139711D01*
X101340609Y-108270814D01*
X101340602Y-108270827D01*
X101280264Y-108416498D01*
X101280261Y-108416510D01*
X101249500Y-108571153D01*
X101249500Y-108728846D01*
X101280261Y-108883489D01*
X101280264Y-108883501D01*
X101340602Y-109029172D01*
X101340609Y-109029185D01*
X101428210Y-109160288D01*
X101428213Y-109160292D01*
X101539707Y-109271786D01*
X101539711Y-109271789D01*
X101670814Y-109359390D01*
X101670827Y-109359397D01*
X101772952Y-109401698D01*
X101827356Y-109445538D01*
X101849421Y-109511833D01*
X101849500Y-109516259D01*
X101849500Y-109678846D01*
X101880261Y-109833489D01*
X101880264Y-109833501D01*
X101940602Y-109979172D01*
X101940609Y-109979185D01*
X102028210Y-110110288D01*
X102028213Y-110110292D01*
X102139707Y-110221786D01*
X102139711Y-110221789D01*
X102270814Y-110309390D01*
X102270827Y-110309397D01*
X102367646Y-110349500D01*
X102416503Y-110369737D01*
X102571153Y-110400499D01*
X102571156Y-110400500D01*
X102571158Y-110400500D01*
X102728844Y-110400500D01*
X102728845Y-110400499D01*
X102883497Y-110369737D01*
X103029179Y-110309394D01*
X103160289Y-110221789D01*
X103271789Y-110110289D01*
X103359394Y-109979179D01*
X103419737Y-109833497D01*
X103450500Y-109678842D01*
X103450500Y-109521158D01*
X103450500Y-109521155D01*
X103450499Y-109521153D01*
X103435458Y-109445538D01*
X103419737Y-109366503D01*
X103416791Y-109359390D01*
X103359397Y-109220827D01*
X103359390Y-109220814D01*
X103271789Y-109089711D01*
X103271786Y-109089707D01*
X103160292Y-108978213D01*
X103160288Y-108978210D01*
X103029185Y-108890609D01*
X103029172Y-108890602D01*
X102963612Y-108863447D01*
X102909208Y-108819606D01*
X102887143Y-108753312D01*
X102904422Y-108685613D01*
X102923379Y-108661209D01*
X112562821Y-99021768D01*
X112624142Y-98988285D01*
X112693834Y-98993269D01*
X112749767Y-99035141D01*
X112774184Y-99100605D01*
X112774500Y-99109451D01*
X112774500Y-101589547D01*
X112754815Y-101656586D01*
X112738181Y-101677228D01*
X102181739Y-112233669D01*
X102120416Y-112267154D01*
X102069867Y-112267605D01*
X101978846Y-112249500D01*
X101978842Y-112249500D01*
X101821158Y-112249500D01*
X101821155Y-112249500D01*
X101666510Y-112280261D01*
X101666498Y-112280264D01*
X101520827Y-112340602D01*
X101520814Y-112340609D01*
X101389711Y-112428210D01*
X101389707Y-112428213D01*
X101278213Y-112539707D01*
X101278210Y-112539711D01*
X101190609Y-112670814D01*
X101190602Y-112670827D01*
X101130264Y-112816498D01*
X101130261Y-112816510D01*
X101099500Y-112971153D01*
X98750500Y-112971153D01*
X98750500Y-111071153D01*
X100399500Y-111071153D01*
X100399500Y-111228846D01*
X100430261Y-111383489D01*
X100430264Y-111383501D01*
X100490602Y-111529172D01*
X100490609Y-111529185D01*
X100578210Y-111660288D01*
X100578213Y-111660292D01*
X100689707Y-111771786D01*
X100689711Y-111771789D01*
X100820814Y-111859390D01*
X100820827Y-111859397D01*
X100966498Y-111919735D01*
X100966503Y-111919737D01*
X101121153Y-111950499D01*
X101121156Y-111950500D01*
X101121158Y-111950500D01*
X101278844Y-111950500D01*
X101278845Y-111950499D01*
X101433497Y-111919737D01*
X101579179Y-111859394D01*
X101710289Y-111771789D01*
X101821789Y-111660289D01*
X101909394Y-111529179D01*
X101969737Y-111383497D01*
X102000500Y-111228842D01*
X102000500Y-111071158D01*
X102000500Y-111071155D01*
X102000499Y-111071153D01*
X101969738Y-110916510D01*
X101969737Y-110916503D01*
X101969735Y-110916498D01*
X101909397Y-110770827D01*
X101909390Y-110770814D01*
X101821789Y-110639711D01*
X101821786Y-110639707D01*
X101710292Y-110528213D01*
X101710288Y-110528210D01*
X101579185Y-110440609D01*
X101579172Y-110440602D01*
X101433501Y-110380264D01*
X101433489Y-110380261D01*
X101278845Y-110349500D01*
X101278842Y-110349500D01*
X101121158Y-110349500D01*
X101121155Y-110349500D01*
X100966510Y-110380261D01*
X100966498Y-110380264D01*
X100820827Y-110440602D01*
X100820814Y-110440609D01*
X100689711Y-110528210D01*
X100689707Y-110528213D01*
X100578213Y-110639707D01*
X100578210Y-110639711D01*
X100490609Y-110770814D01*
X100490602Y-110770827D01*
X100430264Y-110916498D01*
X100430261Y-110916510D01*
X100399500Y-111071153D01*
X98750500Y-111071153D01*
X98750500Y-97671153D01*
X102499500Y-97671153D01*
X102499500Y-97828846D01*
X102530261Y-97983489D01*
X102530264Y-97983501D01*
X102590602Y-98129172D01*
X102590609Y-98129185D01*
X102678210Y-98260288D01*
X102678213Y-98260292D01*
X102789707Y-98371786D01*
X102789711Y-98371789D01*
X102920814Y-98459390D01*
X102920827Y-98459397D01*
X103066498Y-98519735D01*
X103066503Y-98519737D01*
X103221153Y-98550499D01*
X103221156Y-98550500D01*
X103221158Y-98550500D01*
X103378844Y-98550500D01*
X103378845Y-98550499D01*
X103533497Y-98519737D01*
X103679179Y-98459394D01*
X103810289Y-98371789D01*
X103921789Y-98260289D01*
X104009394Y-98129179D01*
X104069737Y-97983497D01*
X104100500Y-97828842D01*
X104100500Y-97671158D01*
X104100500Y-97671155D01*
X104100499Y-97671153D01*
X104073117Y-97533497D01*
X104069737Y-97516503D01*
X104042398Y-97450500D01*
X104009397Y-97370827D01*
X104009390Y-97370814D01*
X103921789Y-97239711D01*
X103921786Y-97239707D01*
X103810292Y-97128213D01*
X103810288Y-97128210D01*
X103679185Y-97040609D01*
X103679172Y-97040602D01*
X103533501Y-96980264D01*
X103533489Y-96980261D01*
X103378845Y-96949500D01*
X103378842Y-96949500D01*
X103221158Y-96949500D01*
X103221155Y-96949500D01*
X103066510Y-96980261D01*
X103066498Y-96980264D01*
X102920827Y-97040602D01*
X102920814Y-97040609D01*
X102789711Y-97128210D01*
X102789707Y-97128213D01*
X102678213Y-97239707D01*
X102678210Y-97239711D01*
X102590609Y-97370814D01*
X102590602Y-97370827D01*
X102530264Y-97516498D01*
X102530261Y-97516510D01*
X102499500Y-97671153D01*
X98750500Y-97671153D01*
X98750500Y-90268095D01*
X108652558Y-90268095D01*
X108652558Y-90425788D01*
X108683319Y-90580431D01*
X108683322Y-90580443D01*
X108743660Y-90726114D01*
X108743667Y-90726127D01*
X108831268Y-90857230D01*
X108831271Y-90857234D01*
X108942765Y-90968728D01*
X108942769Y-90968731D01*
X109073872Y-91056332D01*
X109073885Y-91056339D01*
X109164871Y-91094026D01*
X109219561Y-91116679D01*
X109335330Y-91139707D01*
X109374211Y-91147441D01*
X109374214Y-91147442D01*
X109374216Y-91147442D01*
X109531902Y-91147442D01*
X109531903Y-91147441D01*
X109686555Y-91116679D01*
X109832237Y-91056336D01*
X109963347Y-90968731D01*
X110074847Y-90857231D01*
X110162452Y-90726121D01*
X110222795Y-90580439D01*
X110253558Y-90425784D01*
X110253558Y-90268100D01*
X110253558Y-90268097D01*
X110253557Y-90268095D01*
X110238143Y-90190606D01*
X110222795Y-90113445D01*
X110162621Y-89968170D01*
X110162455Y-89967769D01*
X110162448Y-89967756D01*
X110074847Y-89836653D01*
X110074844Y-89836649D01*
X109963350Y-89725155D01*
X109963346Y-89725152D01*
X109832243Y-89637551D01*
X109832230Y-89637544D01*
X109686559Y-89577206D01*
X109686547Y-89577203D01*
X109531903Y-89546442D01*
X109531900Y-89546442D01*
X109374216Y-89546442D01*
X109374213Y-89546442D01*
X109219568Y-89577203D01*
X109219556Y-89577206D01*
X109073885Y-89637544D01*
X109073872Y-89637551D01*
X108942769Y-89725152D01*
X108942765Y-89725155D01*
X108831271Y-89836649D01*
X108831268Y-89836653D01*
X108743667Y-89967756D01*
X108743660Y-89967769D01*
X108683322Y-90113440D01*
X108683319Y-90113452D01*
X108652558Y-90268095D01*
X98750500Y-90268095D01*
X98750500Y-75071153D01*
X105149500Y-75071153D01*
X105149500Y-75228846D01*
X105180261Y-75383489D01*
X105180264Y-75383501D01*
X105240602Y-75529172D01*
X105240609Y-75529185D01*
X105328210Y-75660288D01*
X105328213Y-75660292D01*
X105439707Y-75771786D01*
X105439711Y-75771789D01*
X105570814Y-75859390D01*
X105570827Y-75859397D01*
X105716498Y-75919735D01*
X105716503Y-75919737D01*
X105871153Y-75950499D01*
X105871156Y-75950500D01*
X105871158Y-75950500D01*
X106028844Y-75950500D01*
X106028845Y-75950499D01*
X106183497Y-75919737D01*
X106329179Y-75859394D01*
X106460289Y-75771789D01*
X106560925Y-75671153D01*
X110899500Y-75671153D01*
X110899500Y-75828846D01*
X110930261Y-75983489D01*
X110930264Y-75983501D01*
X110990602Y-76129172D01*
X110990609Y-76129185D01*
X111078210Y-76260288D01*
X111078213Y-76260292D01*
X111189707Y-76371786D01*
X111189711Y-76371789D01*
X111320814Y-76459390D01*
X111320827Y-76459397D01*
X111466498Y-76519735D01*
X111466503Y-76519737D01*
X111560645Y-76538463D01*
X111600691Y-76546429D01*
X111662602Y-76578814D01*
X111697176Y-76639529D01*
X111700500Y-76668046D01*
X111700500Y-82814393D01*
X111700500Y-82937607D01*
X111702866Y-82949500D01*
X111721806Y-83044724D01*
X111721807Y-83044727D01*
X111721806Y-83044727D01*
X111724535Y-83058446D01*
X111724536Y-83058450D01*
X111724537Y-83058451D01*
X111771688Y-83172286D01*
X111771689Y-83172288D01*
X111771690Y-83172289D01*
X111771691Y-83172292D01*
X111799685Y-83214186D01*
X111799687Y-83214188D01*
X111804119Y-83220821D01*
X111840142Y-83274733D01*
X111927267Y-83361858D01*
X111927269Y-83361859D01*
X111937318Y-83371908D01*
X112224205Y-83658795D01*
X112257690Y-83720118D01*
X112258141Y-83722285D01*
X112280261Y-83833489D01*
X112280264Y-83833501D01*
X112340602Y-83979172D01*
X112340609Y-83979185D01*
X112428210Y-84110288D01*
X112428213Y-84110292D01*
X112539707Y-84221786D01*
X112539711Y-84221789D01*
X112670814Y-84309390D01*
X112670827Y-84309397D01*
X112816498Y-84369735D01*
X112816503Y-84369737D01*
X112971158Y-84400500D01*
X112971163Y-84400500D01*
X112977218Y-84401097D01*
X113042006Y-84427257D01*
X113049563Y-84437935D01*
X113099999Y-84405523D01*
X113122782Y-84401097D01*
X113128836Y-84400500D01*
X113128842Y-84400500D01*
X113283497Y-84369737D01*
X113348033Y-84343005D01*
X113427548Y-84310070D01*
X113497017Y-84302601D01*
X113522452Y-84310070D01*
X113641540Y-84359397D01*
X113666503Y-84369737D01*
X113821153Y-84400499D01*
X113821156Y-84400500D01*
X113821158Y-84400500D01*
X113978844Y-84400500D01*
X113978845Y-84400499D01*
X114133497Y-84369737D01*
X114279179Y-84309394D01*
X114410289Y-84221789D01*
X114410288Y-84221789D01*
X114415354Y-84218405D01*
X114416383Y-84219945D01*
X114472705Y-84196008D01*
X114541575Y-84207783D01*
X114555972Y-84216063D01*
X114620821Y-84259394D01*
X114620823Y-84259395D01*
X114620827Y-84259397D01*
X114766498Y-84319735D01*
X114766503Y-84319737D01*
X114921153Y-84350499D01*
X114921156Y-84350500D01*
X114921158Y-84350500D01*
X115078844Y-84350500D01*
X115078845Y-84350499D01*
X115233497Y-84319737D01*
X115379179Y-84259394D01*
X115510289Y-84171789D01*
X115621789Y-84060289D01*
X115709394Y-83929179D01*
X115712719Y-83921153D01*
X115733569Y-83870814D01*
X115769737Y-83783497D01*
X115800500Y-83628842D01*
X115800500Y-83471158D01*
X115800500Y-83471155D01*
X115800499Y-83471153D01*
X115782012Y-83378213D01*
X115769737Y-83316503D01*
X115769735Y-83316498D01*
X115709397Y-83170827D01*
X115709390Y-83170814D01*
X115696398Y-83151370D01*
X115675520Y-83084692D01*
X115675500Y-83082479D01*
X115675500Y-80421153D01*
X126799500Y-80421153D01*
X126799500Y-80578846D01*
X126830261Y-80733489D01*
X126830264Y-80733501D01*
X126890602Y-80879172D01*
X126890609Y-80879185D01*
X126978210Y-81010288D01*
X126978213Y-81010292D01*
X127089707Y-81121786D01*
X127089711Y-81121789D01*
X127220814Y-81209390D01*
X127220827Y-81209397D01*
X127366498Y-81269735D01*
X127366503Y-81269737D01*
X127521153Y-81300499D01*
X127521156Y-81300500D01*
X127521158Y-81300500D01*
X127678844Y-81300500D01*
X127678845Y-81300499D01*
X127833497Y-81269737D01*
X127979179Y-81209394D01*
X128110289Y-81121789D01*
X128221789Y-81010289D01*
X128309394Y-80879179D01*
X128369737Y-80733497D01*
X128400500Y-80578842D01*
X128400500Y-80421158D01*
X128400500Y-80421155D01*
X128400499Y-80421153D01*
X128369738Y-80266510D01*
X128369737Y-80266503D01*
X128369735Y-80266498D01*
X128309397Y-80120827D01*
X128309390Y-80120814D01*
X128221789Y-79989711D01*
X128221786Y-79989707D01*
X128110292Y-79878213D01*
X128110288Y-79878210D01*
X127979185Y-79790609D01*
X127979172Y-79790602D01*
X127833501Y-79730264D01*
X127833489Y-79730261D01*
X127678845Y-79699500D01*
X127678842Y-79699500D01*
X127521158Y-79699500D01*
X127521155Y-79699500D01*
X127366510Y-79730261D01*
X127366498Y-79730264D01*
X127220827Y-79790602D01*
X127220814Y-79790609D01*
X127089711Y-79878210D01*
X127089707Y-79878213D01*
X126978213Y-79989707D01*
X126978210Y-79989711D01*
X126890609Y-80120814D01*
X126890602Y-80120827D01*
X126830264Y-80266498D01*
X126830261Y-80266510D01*
X126799500Y-80421153D01*
X115675500Y-80421153D01*
X115675500Y-79686072D01*
X115695185Y-79619033D01*
X115711819Y-79598391D01*
X122339057Y-72971153D01*
X131449500Y-72971153D01*
X131449500Y-73128846D01*
X131480261Y-73283489D01*
X131480264Y-73283501D01*
X131540602Y-73429172D01*
X131540609Y-73429185D01*
X131628210Y-73560288D01*
X131628213Y-73560292D01*
X131739707Y-73671786D01*
X131739711Y-73671789D01*
X131870814Y-73759390D01*
X131870827Y-73759397D01*
X132016498Y-73819735D01*
X132016503Y-73819737D01*
X132171153Y-73850499D01*
X132171156Y-73850500D01*
X132171158Y-73850500D01*
X132328844Y-73850500D01*
X132328845Y-73850499D01*
X132483497Y-73819737D01*
X132629179Y-73759394D01*
X132760289Y-73671789D01*
X132871789Y-73560289D01*
X132959394Y-73429179D01*
X133019737Y-73283497D01*
X133050500Y-73128842D01*
X133050500Y-72971158D01*
X133050500Y-72971155D01*
X133050499Y-72971153D01*
X133019737Y-72816503D01*
X133004138Y-72778844D01*
X132959397Y-72670827D01*
X132959390Y-72670814D01*
X132871789Y-72539711D01*
X132871786Y-72539707D01*
X132760292Y-72428213D01*
X132760288Y-72428210D01*
X132629185Y-72340609D01*
X132629172Y-72340602D01*
X132483501Y-72280264D01*
X132483489Y-72280261D01*
X132328845Y-72249500D01*
X132328842Y-72249500D01*
X132171158Y-72249500D01*
X132171155Y-72249500D01*
X132016510Y-72280261D01*
X132016498Y-72280264D01*
X131870827Y-72340602D01*
X131870814Y-72340609D01*
X131739711Y-72428210D01*
X131739707Y-72428213D01*
X131628213Y-72539707D01*
X131628210Y-72539711D01*
X131540609Y-72670814D01*
X131540602Y-72670827D01*
X131480264Y-72816498D01*
X131480261Y-72816510D01*
X131449500Y-72971153D01*
X122339057Y-72971153D01*
X123439057Y-71871153D01*
X126899500Y-71871153D01*
X126899500Y-72028846D01*
X126930261Y-72183489D01*
X126930264Y-72183501D01*
X126990602Y-72329172D01*
X126990609Y-72329185D01*
X127078210Y-72460288D01*
X127078213Y-72460292D01*
X127189707Y-72571786D01*
X127189711Y-72571789D01*
X127320814Y-72659390D01*
X127320827Y-72659397D01*
X127466498Y-72719735D01*
X127466503Y-72719737D01*
X127621153Y-72750499D01*
X127621156Y-72750500D01*
X127621158Y-72750500D01*
X127778844Y-72750500D01*
X127778845Y-72750499D01*
X127933497Y-72719737D01*
X128051592Y-72670821D01*
X128079172Y-72659397D01*
X128079172Y-72659396D01*
X128079179Y-72659394D01*
X128210289Y-72571789D01*
X128321789Y-72460289D01*
X128409394Y-72329179D01*
X128412854Y-72320827D01*
X128429655Y-72280264D01*
X128469737Y-72183497D01*
X128500500Y-72028842D01*
X128500500Y-71871158D01*
X128500500Y-71871155D01*
X128500499Y-71871153D01*
X128480326Y-71769737D01*
X128469737Y-71716503D01*
X128466791Y-71709390D01*
X128409397Y-71570827D01*
X128409390Y-71570814D01*
X128321789Y-71439711D01*
X128321786Y-71439707D01*
X128210292Y-71328213D01*
X128210288Y-71328210D01*
X128079185Y-71240609D01*
X128079172Y-71240602D01*
X127933501Y-71180264D01*
X127933489Y-71180261D01*
X127778845Y-71149500D01*
X127778842Y-71149500D01*
X127621158Y-71149500D01*
X127621155Y-71149500D01*
X127466510Y-71180261D01*
X127466498Y-71180264D01*
X127320827Y-71240602D01*
X127320814Y-71240609D01*
X127189711Y-71328210D01*
X127189707Y-71328213D01*
X127078213Y-71439707D01*
X127078210Y-71439711D01*
X126990609Y-71570814D01*
X126990602Y-71570827D01*
X126930264Y-71716498D01*
X126930261Y-71716510D01*
X126899500Y-71871153D01*
X123439057Y-71871153D01*
X123532825Y-71777385D01*
X124734943Y-70575267D01*
X126011477Y-69298733D01*
X126188539Y-69121670D01*
X126188543Y-69121668D01*
X126275668Y-69034543D01*
X126318021Y-68971158D01*
X126318024Y-68971153D01*
X126749500Y-68971153D01*
X126749500Y-69128846D01*
X126780261Y-69283489D01*
X126780264Y-69283501D01*
X126840602Y-69429172D01*
X126840609Y-69429185D01*
X126928210Y-69560288D01*
X126928213Y-69560292D01*
X127039707Y-69671786D01*
X127039711Y-69671789D01*
X127170814Y-69759390D01*
X127170827Y-69759397D01*
X127316498Y-69819735D01*
X127316503Y-69819737D01*
X127471153Y-69850499D01*
X127471156Y-69850500D01*
X127471158Y-69850500D01*
X127628844Y-69850500D01*
X127628845Y-69850499D01*
X127783497Y-69819737D01*
X127929179Y-69759394D01*
X128060289Y-69671789D01*
X128171789Y-69560289D01*
X128259394Y-69429179D01*
X128319737Y-69283497D01*
X128350500Y-69128842D01*
X128350500Y-68971158D01*
X128350500Y-68971154D01*
X128350499Y-68971153D01*
X128324091Y-68838393D01*
X128319737Y-68816503D01*
X128288826Y-68741876D01*
X128259397Y-68670827D01*
X128259390Y-68670814D01*
X128171789Y-68539711D01*
X128171786Y-68539707D01*
X128060292Y-68428213D01*
X128060288Y-68428210D01*
X127929185Y-68340609D01*
X127929172Y-68340602D01*
X127783501Y-68280264D01*
X127783489Y-68280261D01*
X127628845Y-68249500D01*
X127628842Y-68249500D01*
X127471158Y-68249500D01*
X127471155Y-68249500D01*
X127316510Y-68280261D01*
X127316498Y-68280264D01*
X127170827Y-68340602D01*
X127170814Y-68340609D01*
X127039711Y-68428210D01*
X127039707Y-68428213D01*
X126928213Y-68539707D01*
X126928210Y-68539711D01*
X126840609Y-68670814D01*
X126840602Y-68670827D01*
X126780264Y-68816498D01*
X126780261Y-68816510D01*
X126749500Y-68971153D01*
X126318024Y-68971153D01*
X126344122Y-68932096D01*
X126382934Y-68838393D01*
X126391273Y-68818262D01*
X126399239Y-68778211D01*
X126406467Y-68741876D01*
X126406467Y-68741873D01*
X126415310Y-68697417D01*
X126415310Y-68574203D01*
X126415310Y-68200584D01*
X126415310Y-66474069D01*
X126434995Y-66407030D01*
X126487799Y-66361275D01*
X126522893Y-66351815D01*
X126522868Y-66351689D01*
X126524759Y-66351312D01*
X126527159Y-66350666D01*
X126528835Y-66350500D01*
X126528842Y-66350500D01*
X126683497Y-66319737D01*
X126801592Y-66270821D01*
X126829172Y-66259397D01*
X126829172Y-66259396D01*
X126829179Y-66259394D01*
X126960289Y-66171789D01*
X127071789Y-66060289D01*
X127159394Y-65929179D01*
X127162719Y-65921153D01*
X127192398Y-65849500D01*
X127219737Y-65783497D01*
X127219737Y-65783496D01*
X127222068Y-65777869D01*
X127224248Y-65778772D01*
X127256799Y-65729082D01*
X127320606Y-65700613D01*
X127337181Y-65699500D01*
X130481954Y-65699500D01*
X130548993Y-65719185D01*
X130594748Y-65771989D01*
X130603571Y-65799309D01*
X130630261Y-65933489D01*
X130630264Y-65933501D01*
X130690602Y-66079172D01*
X130690609Y-66079185D01*
X130778210Y-66210288D01*
X130778213Y-66210292D01*
X130889707Y-66321786D01*
X130889711Y-66321789D01*
X131020814Y-66409390D01*
X131020827Y-66409397D01*
X131166498Y-66469735D01*
X131166503Y-66469737D01*
X131321153Y-66500499D01*
X131321156Y-66500500D01*
X131321158Y-66500500D01*
X131478844Y-66500500D01*
X131478845Y-66500499D01*
X131633497Y-66469737D01*
X131779179Y-66409394D01*
X131910289Y-66321789D01*
X132021789Y-66210289D01*
X132109394Y-66079179D01*
X132169737Y-65933497D01*
X132196429Y-65799309D01*
X132228814Y-65737398D01*
X132289529Y-65702824D01*
X132318046Y-65699500D01*
X132972905Y-65699500D01*
X133033327Y-65687481D01*
X133093750Y-65675463D01*
X133121444Y-65663990D01*
X133129536Y-65661856D01*
X133156428Y-65662600D01*
X133183176Y-65659723D01*
X133190827Y-65663552D01*
X133199379Y-65663789D01*
X133221596Y-65678951D01*
X133245657Y-65690994D01*
X133250023Y-65698353D01*
X133257089Y-65703175D01*
X133267582Y-65727943D01*
X133281312Y-65751081D01*
X133281577Y-65760976D01*
X133284345Y-65767509D01*
X133282101Y-65780540D01*
X133282783Y-65805945D01*
X133266442Y-65888095D01*
X133266442Y-66045788D01*
X133297203Y-66200431D01*
X133297206Y-66200443D01*
X133357544Y-66346114D01*
X133357551Y-66346127D01*
X133445152Y-66477230D01*
X133445155Y-66477234D01*
X133556649Y-66588728D01*
X133556653Y-66588731D01*
X133687756Y-66676332D01*
X133687769Y-66676339D01*
X133814534Y-66728846D01*
X133833445Y-66736679D01*
X133988095Y-66767441D01*
X133988098Y-66767442D01*
X133988100Y-66767442D01*
X134145786Y-66767442D01*
X134145787Y-66767441D01*
X134300439Y-66736679D01*
X134446121Y-66676336D01*
X134577231Y-66588731D01*
X134688731Y-66477231D01*
X134776336Y-66346121D01*
X134836679Y-66200439D01*
X134864557Y-66060288D01*
X134867580Y-66045092D01*
X134899965Y-65983181D01*
X134901460Y-65981658D01*
X135887965Y-64995153D01*
X139399500Y-64995153D01*
X139399500Y-65152846D01*
X139430261Y-65307489D01*
X139430264Y-65307501D01*
X139490602Y-65453172D01*
X139490609Y-65453185D01*
X139578210Y-65584288D01*
X139578213Y-65584292D01*
X139689707Y-65695786D01*
X139689711Y-65695789D01*
X139820814Y-65783390D01*
X139820827Y-65783397D01*
X139875264Y-65805945D01*
X139966503Y-65843737D01*
X140121153Y-65874499D01*
X140121156Y-65874500D01*
X140121158Y-65874500D01*
X140278844Y-65874500D01*
X140278845Y-65874499D01*
X140433497Y-65843737D01*
X140546166Y-65797067D01*
X140579172Y-65783397D01*
X140579172Y-65783396D01*
X140579179Y-65783394D01*
X140710289Y-65695789D01*
X140821789Y-65584289D01*
X140909394Y-65453179D01*
X140969737Y-65307497D01*
X141000500Y-65152842D01*
X141000500Y-64995158D01*
X141000500Y-64995155D01*
X141000499Y-64995153D01*
X140969737Y-64840503D01*
X140969735Y-64840498D01*
X140909397Y-64694827D01*
X140909390Y-64694814D01*
X140821789Y-64563711D01*
X140821786Y-64563707D01*
X140710292Y-64452213D01*
X140710288Y-64452210D01*
X140579185Y-64364609D01*
X140579172Y-64364602D01*
X140433501Y-64304264D01*
X140433489Y-64304261D01*
X140278845Y-64273500D01*
X140278842Y-64273500D01*
X140121158Y-64273500D01*
X140121155Y-64273500D01*
X139966510Y-64304261D01*
X139966498Y-64304264D01*
X139820827Y-64364602D01*
X139820814Y-64364609D01*
X139689711Y-64452210D01*
X139689707Y-64452213D01*
X139578213Y-64563707D01*
X139578210Y-64563711D01*
X139490609Y-64694814D01*
X139490602Y-64694827D01*
X139430264Y-64840498D01*
X139430261Y-64840510D01*
X139399500Y-64995153D01*
X135887965Y-64995153D01*
X137061965Y-63821153D01*
X142799500Y-63821153D01*
X142799500Y-63978846D01*
X142830261Y-64133489D01*
X142830264Y-64133501D01*
X142890602Y-64279172D01*
X142890609Y-64279185D01*
X142978210Y-64410288D01*
X142978213Y-64410292D01*
X143089707Y-64521786D01*
X143089711Y-64521789D01*
X143220814Y-64609390D01*
X143220827Y-64609397D01*
X143366498Y-64669735D01*
X143366503Y-64669737D01*
X143492573Y-64694814D01*
X143521153Y-64700499D01*
X143521156Y-64700500D01*
X143521158Y-64700500D01*
X143678844Y-64700500D01*
X143678845Y-64700499D01*
X143833497Y-64669737D01*
X143979179Y-64609394D01*
X144110289Y-64521789D01*
X144221789Y-64410289D01*
X144309394Y-64279179D01*
X144312719Y-64271153D01*
X144369735Y-64133501D01*
X144369737Y-64133497D01*
X144400500Y-63978842D01*
X144400500Y-63821158D01*
X144400500Y-63821155D01*
X144400499Y-63821153D01*
X144384344Y-63739937D01*
X144369737Y-63666503D01*
X144369735Y-63666498D01*
X144309397Y-63520827D01*
X144309390Y-63520814D01*
X144221789Y-63389711D01*
X144221786Y-63389707D01*
X144110292Y-63278213D01*
X144110288Y-63278210D01*
X143979185Y-63190609D01*
X143979172Y-63190602D01*
X143833501Y-63130264D01*
X143833489Y-63130261D01*
X143678845Y-63099500D01*
X143678842Y-63099500D01*
X143521158Y-63099500D01*
X143521155Y-63099500D01*
X143366510Y-63130261D01*
X143366498Y-63130264D01*
X143220827Y-63190602D01*
X143220814Y-63190609D01*
X143089711Y-63278210D01*
X143089707Y-63278213D01*
X142978213Y-63389707D01*
X142978210Y-63389711D01*
X142890609Y-63520814D01*
X142890602Y-63520827D01*
X142830264Y-63666498D01*
X142830261Y-63666510D01*
X142799500Y-63821153D01*
X137061965Y-63821153D01*
X141946599Y-58936520D01*
X142007919Y-58903037D01*
X142077611Y-58908021D01*
X142133544Y-58949893D01*
X142157961Y-59015357D01*
X142148839Y-59071653D01*
X142130264Y-59116498D01*
X142130261Y-59116510D01*
X142099500Y-59271153D01*
X142099500Y-59428846D01*
X142130261Y-59583489D01*
X142130264Y-59583501D01*
X142190602Y-59729172D01*
X142190609Y-59729185D01*
X142278210Y-59860288D01*
X142278213Y-59860292D01*
X142389707Y-59971786D01*
X142389711Y-59971789D01*
X142520814Y-60059390D01*
X142520827Y-60059397D01*
X142629005Y-60104205D01*
X142666503Y-60119737D01*
X142821153Y-60150499D01*
X142821156Y-60150500D01*
X142821158Y-60150500D01*
X142978844Y-60150500D01*
X142978845Y-60150499D01*
X143133497Y-60119737D01*
X143279179Y-60059394D01*
X143410289Y-59971789D01*
X143521789Y-59860289D01*
X143609394Y-59729179D01*
X143669737Y-59583497D01*
X143700500Y-59428842D01*
X143700500Y-59271158D01*
X143700500Y-59271155D01*
X143700499Y-59271153D01*
X143676499Y-59150499D01*
X143669737Y-59116503D01*
X143646080Y-59059390D01*
X143609397Y-58970827D01*
X143609390Y-58970814D01*
X143521789Y-58839711D01*
X143521786Y-58839707D01*
X143410292Y-58728213D01*
X143410288Y-58728210D01*
X143279185Y-58640609D01*
X143279172Y-58640602D01*
X143133501Y-58580264D01*
X143133489Y-58580261D01*
X142978845Y-58549500D01*
X142978842Y-58549500D01*
X142821158Y-58549500D01*
X142821155Y-58549500D01*
X142666510Y-58580261D01*
X142666498Y-58580264D01*
X142621653Y-58598839D01*
X142552183Y-58606306D01*
X142489705Y-58575030D01*
X142454054Y-58514940D01*
X142456550Y-58445115D01*
X142486519Y-58396600D01*
X145946301Y-54936819D01*
X146007624Y-54903334D01*
X146033982Y-54900500D01*
X153520234Y-54900500D01*
X153587273Y-54920185D01*
X153589125Y-54921398D01*
X153720814Y-55009390D01*
X153720827Y-55009397D01*
X153828138Y-55053846D01*
X153866503Y-55069737D01*
X154021153Y-55100499D01*
X154021156Y-55100500D01*
X154021158Y-55100500D01*
X154178844Y-55100500D01*
X154178845Y-55100499D01*
X154333497Y-55069737D01*
X154479179Y-55009394D01*
X154610289Y-54921789D01*
X154721789Y-54810289D01*
X154809394Y-54679179D01*
X154869737Y-54533497D01*
X154900500Y-54378842D01*
X154900500Y-54221158D01*
X154900500Y-54221155D01*
X154900499Y-54221153D01*
X154880543Y-54120827D01*
X154869737Y-54066503D01*
X154866749Y-54059289D01*
X154809397Y-53920827D01*
X154809390Y-53920814D01*
X154721789Y-53789711D01*
X154721786Y-53789707D01*
X154610292Y-53678213D01*
X154610288Y-53678210D01*
X154479185Y-53590609D01*
X154479172Y-53590602D01*
X154333501Y-53530264D01*
X154333489Y-53530261D01*
X154178845Y-53499500D01*
X154178842Y-53499500D01*
X154021158Y-53499500D01*
X154021155Y-53499500D01*
X153866510Y-53530261D01*
X153866498Y-53530264D01*
X153720827Y-53590602D01*
X153720814Y-53590609D01*
X153589125Y-53678602D01*
X153522447Y-53699480D01*
X153520234Y-53699500D01*
X150972902Y-53699500D01*
X150905863Y-53679815D01*
X150860108Y-53627011D01*
X150850164Y-53557853D01*
X150879189Y-53494297D01*
X150925451Y-53460938D01*
X150929179Y-53459394D01*
X151060289Y-53371789D01*
X151171789Y-53260289D01*
X151259394Y-53129179D01*
X151319737Y-52983497D01*
X151350500Y-52828842D01*
X151350500Y-52671158D01*
X151350500Y-52671155D01*
X151350499Y-52671153D01*
X151330543Y-52570827D01*
X151319737Y-52516503D01*
X151287929Y-52439711D01*
X151259397Y-52370827D01*
X151259390Y-52370814D01*
X151171789Y-52239711D01*
X151171786Y-52239707D01*
X151060292Y-52128213D01*
X151060288Y-52128210D01*
X150929185Y-52040609D01*
X150929172Y-52040602D01*
X150783501Y-51980264D01*
X150783489Y-51980261D01*
X150628845Y-51949500D01*
X150628842Y-51949500D01*
X150471158Y-51949500D01*
X150471155Y-51949500D01*
X150316510Y-51980261D01*
X150316498Y-51980264D01*
X150174550Y-52039061D01*
X150127098Y-52048500D01*
X145249687Y-52048500D01*
X145189269Y-52060518D01*
X145146041Y-52069116D01*
X145128844Y-52072537D01*
X145015014Y-52119687D01*
X145015005Y-52119692D01*
X144912566Y-52188140D01*
X144886737Y-52213970D01*
X144825440Y-52275267D01*
X143249511Y-53851196D01*
X143188188Y-53884681D01*
X143118496Y-53879697D01*
X143092939Y-53866617D01*
X142979185Y-53790609D01*
X142979172Y-53790602D01*
X142833501Y-53730264D01*
X142833489Y-53730261D01*
X142678845Y-53699500D01*
X142678842Y-53699500D01*
X142521158Y-53699500D01*
X142521155Y-53699500D01*
X142366510Y-53730261D01*
X142366498Y-53730264D01*
X142220827Y-53790602D01*
X142220814Y-53790609D01*
X142089711Y-53878210D01*
X142089707Y-53878213D01*
X141978213Y-53989707D01*
X141978210Y-53989711D01*
X141890609Y-54120814D01*
X141890602Y-54120827D01*
X141830264Y-54266498D01*
X141830261Y-54266510D01*
X141799500Y-54421153D01*
X141799500Y-54578846D01*
X141830261Y-54733489D01*
X141830264Y-54733501D01*
X141890602Y-54879172D01*
X141890609Y-54879185D01*
X141966617Y-54992939D01*
X141987495Y-55059617D01*
X141969010Y-55126997D01*
X141951196Y-55149511D01*
X132688527Y-64412181D01*
X132627204Y-64445666D01*
X132600846Y-64448500D01*
X127824500Y-64448500D01*
X127757461Y-64428815D01*
X127711706Y-64376011D01*
X127700500Y-64324500D01*
X127700500Y-64271155D01*
X127700499Y-64271153D01*
X127673117Y-64133497D01*
X127669737Y-64116503D01*
X127669735Y-64116498D01*
X127609397Y-63970827D01*
X127609390Y-63970814D01*
X127521789Y-63839711D01*
X127521786Y-63839707D01*
X127422016Y-63739937D01*
X127388531Y-63678614D01*
X127393515Y-63608922D01*
X127406594Y-63583368D01*
X127409394Y-63579179D01*
X127469737Y-63433497D01*
X127500500Y-63278842D01*
X127500500Y-63121158D01*
X127500500Y-63121155D01*
X127500499Y-63121153D01*
X127470788Y-62971789D01*
X127469737Y-62966503D01*
X127469735Y-62966498D01*
X127409397Y-62820827D01*
X127409390Y-62820814D01*
X127321789Y-62689711D01*
X127321786Y-62689707D01*
X127230725Y-62598646D01*
X127197240Y-62537323D01*
X127202224Y-62467631D01*
X127244096Y-62411698D01*
X127270944Y-62396408D01*
X127383246Y-62349892D01*
X127514356Y-62262287D01*
X127625856Y-62150787D01*
X127713461Y-62019677D01*
X127773804Y-61873995D01*
X127804567Y-61719340D01*
X127804567Y-61561656D01*
X127804567Y-61561653D01*
X127804566Y-61561651D01*
X127773805Y-61407008D01*
X127773805Y-61407006D01*
X127773804Y-61407001D01*
X127718151Y-61272641D01*
X127713464Y-61261325D01*
X127713457Y-61261312D01*
X127625856Y-61130209D01*
X127625853Y-61130205D01*
X127551107Y-61055459D01*
X127517622Y-60994136D01*
X127522606Y-60924444D01*
X127556661Y-60876776D01*
X127555982Y-60876097D01*
X127560060Y-60872018D01*
X127560133Y-60871917D01*
X127560283Y-60871792D01*
X127560289Y-60871789D01*
X127671789Y-60760289D01*
X127759394Y-60629179D01*
X127819737Y-60483497D01*
X127850500Y-60328842D01*
X127850500Y-60171158D01*
X127850500Y-60171155D01*
X127850499Y-60171153D01*
X127828269Y-60059397D01*
X127819737Y-60016503D01*
X127763405Y-59880504D01*
X127759397Y-59870827D01*
X127759390Y-59870814D01*
X127671789Y-59739711D01*
X127671786Y-59739707D01*
X127560292Y-59628213D01*
X127560286Y-59628208D01*
X127536263Y-59612156D01*
X127491458Y-59558543D01*
X127482752Y-59489218D01*
X127502053Y-59440164D01*
X127509394Y-59429179D01*
X127569737Y-59283497D01*
X127600500Y-59128842D01*
X127600500Y-58971158D01*
X127600500Y-58971155D01*
X127600499Y-58971153D01*
X127578447Y-58860292D01*
X127569737Y-58816503D01*
X127569735Y-58816498D01*
X127509397Y-58670827D01*
X127509390Y-58670814D01*
X127421789Y-58539711D01*
X127421786Y-58539707D01*
X127310292Y-58428213D01*
X127310288Y-58428210D01*
X127179185Y-58340609D01*
X127179172Y-58340602D01*
X127033501Y-58280264D01*
X127033489Y-58280261D01*
X126878845Y-58249500D01*
X126878842Y-58249500D01*
X126721158Y-58249500D01*
X126721155Y-58249500D01*
X126566510Y-58280261D01*
X126566498Y-58280264D01*
X126420827Y-58340602D01*
X126420814Y-58340609D01*
X126289711Y-58428210D01*
X126289707Y-58428213D01*
X126178213Y-58539707D01*
X126178210Y-58539711D01*
X126090609Y-58670814D01*
X126090602Y-58670827D01*
X126030264Y-58816498D01*
X126030261Y-58816508D01*
X126008141Y-58927714D01*
X125975756Y-58989625D01*
X125974205Y-58991203D01*
X124489080Y-60476329D01*
X124401954Y-60563454D01*
X124401948Y-60563462D01*
X124333502Y-60665895D01*
X124333494Y-60665909D01*
X124300157Y-60746397D01*
X124294633Y-60759733D01*
X124286347Y-60779735D01*
X124286345Y-60779743D01*
X124262310Y-60900579D01*
X124262310Y-67951736D01*
X124242625Y-68018775D01*
X124225991Y-68039417D01*
X113931720Y-78333687D01*
X113870397Y-78367172D01*
X113800705Y-78362188D01*
X113775148Y-78349108D01*
X113662243Y-78273667D01*
X113662230Y-78273660D01*
X113516559Y-78213322D01*
X113516547Y-78213319D01*
X113361903Y-78182558D01*
X113361900Y-78182558D01*
X113204216Y-78182558D01*
X113172453Y-78188876D01*
X113099691Y-78203349D01*
X113030099Y-78197121D01*
X112974922Y-78154257D01*
X112951678Y-78088367D01*
X112951500Y-78081731D01*
X112951500Y-71284451D01*
X112971185Y-71217412D01*
X112987814Y-71196775D01*
X118263436Y-65921153D01*
X119549500Y-65921153D01*
X119549500Y-66078846D01*
X119580261Y-66233489D01*
X119580264Y-66233501D01*
X119640602Y-66379172D01*
X119640609Y-66379185D01*
X119728210Y-66510288D01*
X119728213Y-66510292D01*
X119839707Y-66621786D01*
X119839711Y-66621789D01*
X119970814Y-66709390D01*
X119970827Y-66709397D01*
X120110960Y-66767441D01*
X120116503Y-66769737D01*
X120271153Y-66800499D01*
X120271156Y-66800500D01*
X120271158Y-66800500D01*
X120428844Y-66800500D01*
X120428845Y-66800499D01*
X120583497Y-66769737D01*
X120729179Y-66709394D01*
X120860289Y-66621789D01*
X120971789Y-66510289D01*
X121059394Y-66379179D01*
X121119737Y-66233497D01*
X121150500Y-66078842D01*
X121150500Y-65921158D01*
X121150500Y-65921155D01*
X121150499Y-65921153D01*
X121135100Y-65843737D01*
X121119737Y-65766503D01*
X121113349Y-65751081D01*
X121059397Y-65620827D01*
X121059390Y-65620814D01*
X120971789Y-65489711D01*
X120971786Y-65489707D01*
X120860292Y-65378213D01*
X120860288Y-65378210D01*
X120729185Y-65290609D01*
X120729172Y-65290602D01*
X120583501Y-65230264D01*
X120583489Y-65230261D01*
X120428845Y-65199500D01*
X120428842Y-65199500D01*
X120271158Y-65199500D01*
X120271155Y-65199500D01*
X120116510Y-65230261D01*
X120116498Y-65230264D01*
X119970827Y-65290602D01*
X119970814Y-65290609D01*
X119839711Y-65378210D01*
X119839707Y-65378213D01*
X119728213Y-65489707D01*
X119728210Y-65489711D01*
X119640609Y-65620814D01*
X119640602Y-65620827D01*
X119580264Y-65766498D01*
X119580261Y-65766510D01*
X119549500Y-65921153D01*
X118263436Y-65921153D01*
X126726556Y-57458032D01*
X126787877Y-57424549D01*
X126838427Y-57424098D01*
X126971155Y-57450500D01*
X126971158Y-57450500D01*
X127128844Y-57450500D01*
X127128845Y-57450499D01*
X127283497Y-57419737D01*
X127429179Y-57359394D01*
X127560289Y-57271789D01*
X127671789Y-57160289D01*
X127759394Y-57029179D01*
X127819737Y-56883497D01*
X127850500Y-56728842D01*
X127850500Y-56571158D01*
X127850500Y-56571155D01*
X127850499Y-56571153D01*
X127832419Y-56480261D01*
X127819737Y-56416503D01*
X127819735Y-56416498D01*
X127759397Y-56270827D01*
X127759390Y-56270814D01*
X127671789Y-56139711D01*
X127671786Y-56139707D01*
X127560292Y-56028213D01*
X127560288Y-56028210D01*
X127429185Y-55940609D01*
X127429172Y-55940602D01*
X127283501Y-55880264D01*
X127283489Y-55880261D01*
X127128845Y-55849500D01*
X127128842Y-55849500D01*
X126971158Y-55849500D01*
X126971155Y-55849500D01*
X126816510Y-55880261D01*
X126816498Y-55880264D01*
X126670827Y-55940602D01*
X126670814Y-55940609D01*
X126547493Y-56023011D01*
X126502793Y-56041526D01*
X126467555Y-56048535D01*
X126467552Y-56048536D01*
X126467548Y-56048537D01*
X126434207Y-56062347D01*
X126353719Y-56095684D01*
X126353705Y-56095692D01*
X126251272Y-56164138D01*
X126251264Y-56164144D01*
X111930121Y-70485287D01*
X111930113Y-70485295D01*
X111927270Y-70488139D01*
X111927267Y-70488142D01*
X111840142Y-70575267D01*
X111809704Y-70620821D01*
X111805169Y-70627608D01*
X111771687Y-70677715D01*
X111771685Y-70677718D01*
X111738347Y-70758207D01*
X111734913Y-70766498D01*
X111724537Y-70791545D01*
X111724535Y-70791553D01*
X111700500Y-70912389D01*
X111700500Y-74831953D01*
X111680815Y-74898992D01*
X111628011Y-74944747D01*
X111600692Y-74953570D01*
X111466508Y-74980261D01*
X111466498Y-74980264D01*
X111320827Y-75040602D01*
X111320814Y-75040609D01*
X111189711Y-75128210D01*
X111189707Y-75128213D01*
X111078213Y-75239707D01*
X111078210Y-75239711D01*
X110990609Y-75370814D01*
X110990602Y-75370827D01*
X110930264Y-75516498D01*
X110930261Y-75516510D01*
X110899500Y-75671153D01*
X106560925Y-75671153D01*
X106571789Y-75660289D01*
X106659394Y-75529179D01*
X106719737Y-75383497D01*
X106750500Y-75228842D01*
X106750500Y-75071158D01*
X106750500Y-75071155D01*
X106750499Y-75071153D01*
X106728447Y-74960292D01*
X106719737Y-74916503D01*
X106683569Y-74829185D01*
X106659397Y-74770827D01*
X106659390Y-74770814D01*
X106571789Y-74639711D01*
X106571786Y-74639707D01*
X106460292Y-74528213D01*
X106460288Y-74528210D01*
X106329185Y-74440609D01*
X106329172Y-74440602D01*
X106183501Y-74380264D01*
X106183489Y-74380261D01*
X106028845Y-74349500D01*
X106028842Y-74349500D01*
X105871158Y-74349500D01*
X105871155Y-74349500D01*
X105716510Y-74380261D01*
X105716498Y-74380264D01*
X105570827Y-74440602D01*
X105570814Y-74440609D01*
X105439711Y-74528210D01*
X105439707Y-74528213D01*
X105328213Y-74639707D01*
X105328210Y-74639711D01*
X105240609Y-74770814D01*
X105240602Y-74770827D01*
X105180264Y-74916498D01*
X105180261Y-74916510D01*
X105149500Y-75071153D01*
X98750500Y-75071153D01*
X98750500Y-65321153D01*
X114499500Y-65321153D01*
X114499500Y-65478846D01*
X114530261Y-65633489D01*
X114530264Y-65633501D01*
X114590602Y-65779172D01*
X114590609Y-65779185D01*
X114678210Y-65910288D01*
X114678213Y-65910292D01*
X114789707Y-66021786D01*
X114789711Y-66021789D01*
X114920814Y-66109390D01*
X114920827Y-66109397D01*
X114994013Y-66139711D01*
X115066503Y-66169737D01*
X115220811Y-66200431D01*
X115221153Y-66200499D01*
X115221156Y-66200500D01*
X115221158Y-66200500D01*
X115378844Y-66200500D01*
X115378845Y-66200499D01*
X115533497Y-66169737D01*
X115679179Y-66109394D01*
X115810289Y-66021789D01*
X115921789Y-65910289D01*
X116009394Y-65779179D01*
X116069737Y-65633497D01*
X116100500Y-65478842D01*
X116100500Y-65321158D01*
X116100500Y-65321155D01*
X116100499Y-65321153D01*
X116082419Y-65230261D01*
X116069737Y-65166503D01*
X116064079Y-65152844D01*
X116009397Y-65020827D01*
X116009390Y-65020814D01*
X115921789Y-64889711D01*
X115921786Y-64889707D01*
X115810292Y-64778213D01*
X115810288Y-64778210D01*
X115679185Y-64690609D01*
X115679172Y-64690602D01*
X115533501Y-64630264D01*
X115533489Y-64630261D01*
X115378845Y-64599500D01*
X115378842Y-64599500D01*
X115221158Y-64599500D01*
X115221155Y-64599500D01*
X115066510Y-64630261D01*
X115066498Y-64630264D01*
X114920827Y-64690602D01*
X114920814Y-64690609D01*
X114789711Y-64778210D01*
X114789707Y-64778213D01*
X114678213Y-64889707D01*
X114678210Y-64889711D01*
X114590609Y-65020814D01*
X114590602Y-65020827D01*
X114530264Y-65166498D01*
X114530261Y-65166510D01*
X114499500Y-65321153D01*
X98750500Y-65321153D01*
X98750500Y-62271153D01*
X114349500Y-62271153D01*
X114349500Y-62428846D01*
X114380261Y-62583489D01*
X114380264Y-62583501D01*
X114440602Y-62729172D01*
X114440609Y-62729185D01*
X114528210Y-62860288D01*
X114528213Y-62860292D01*
X114639707Y-62971786D01*
X114639711Y-62971789D01*
X114770814Y-63059390D01*
X114770827Y-63059397D01*
X114867646Y-63099500D01*
X114916503Y-63119737D01*
X115071153Y-63150499D01*
X115071156Y-63150500D01*
X115071158Y-63150500D01*
X115228844Y-63150500D01*
X115228845Y-63150499D01*
X115383497Y-63119737D01*
X115529179Y-63059394D01*
X115660289Y-62971789D01*
X115771789Y-62860289D01*
X115859394Y-62729179D01*
X115919737Y-62583497D01*
X115950500Y-62428842D01*
X115950500Y-62271158D01*
X115950500Y-62271155D01*
X115950499Y-62271153D01*
X115926557Y-62150790D01*
X115919737Y-62116503D01*
X115919735Y-62116498D01*
X115859397Y-61970827D01*
X115859390Y-61970814D01*
X115771789Y-61839711D01*
X115771786Y-61839707D01*
X115660292Y-61728213D01*
X115660288Y-61728210D01*
X115529185Y-61640609D01*
X115529172Y-61640602D01*
X115383501Y-61580264D01*
X115383489Y-61580261D01*
X115228845Y-61549500D01*
X115228842Y-61549500D01*
X115071158Y-61549500D01*
X115071155Y-61549500D01*
X114916510Y-61580261D01*
X114916498Y-61580264D01*
X114770827Y-61640602D01*
X114770814Y-61640609D01*
X114639711Y-61728210D01*
X114639707Y-61728213D01*
X114528213Y-61839707D01*
X114528210Y-61839711D01*
X114440609Y-61970814D01*
X114440602Y-61970827D01*
X114380264Y-62116498D01*
X114380261Y-62116510D01*
X114349500Y-62271153D01*
X98750500Y-62271153D01*
X98750500Y-59670000D01*
X99455138Y-59670000D01*
X100258012Y-59670000D01*
X100240795Y-59679940D01*
X100184940Y-59735795D01*
X100145444Y-59804204D01*
X100125000Y-59880504D01*
X100125000Y-59959496D01*
X100145444Y-60035796D01*
X100184940Y-60104205D01*
X100240795Y-60160060D01*
X100258012Y-60170000D01*
X99455138Y-60170000D01*
X99463430Y-60211690D01*
X99463430Y-60211692D01*
X99538807Y-60393671D01*
X99538814Y-60393684D01*
X99648248Y-60557462D01*
X99648251Y-60557466D01*
X99787533Y-60696748D01*
X99787537Y-60696751D01*
X99951315Y-60806185D01*
X99951328Y-60806192D01*
X100133306Y-60881569D01*
X100133318Y-60881572D01*
X100326504Y-60919999D01*
X100326508Y-60920000D01*
X100575000Y-60920000D01*
X100575000Y-60220000D01*
X101075000Y-60220000D01*
X101075000Y-60920000D01*
X101323492Y-60920000D01*
X101323495Y-60919999D01*
X101516681Y-60881572D01*
X101516693Y-60881569D01*
X101698671Y-60806192D01*
X101698684Y-60806185D01*
X101862462Y-60696751D01*
X101862466Y-60696748D01*
X102001748Y-60557466D01*
X102001751Y-60557462D01*
X102111185Y-60393684D01*
X102111192Y-60393671D01*
X102186569Y-60211692D01*
X102186569Y-60211690D01*
X102194862Y-60170000D01*
X101391988Y-60170000D01*
X101409205Y-60160060D01*
X101465060Y-60104205D01*
X101504556Y-60035796D01*
X101525000Y-59959496D01*
X101525000Y-59880504D01*
X101504556Y-59804204D01*
X101465060Y-59735795D01*
X101409205Y-59679940D01*
X101391988Y-59670000D01*
X102194862Y-59670000D01*
X103485138Y-59670000D01*
X104288012Y-59670000D01*
X104270795Y-59679940D01*
X104214940Y-59735795D01*
X104175444Y-59804204D01*
X104155000Y-59880504D01*
X104155000Y-59959496D01*
X104175444Y-60035796D01*
X104214940Y-60104205D01*
X104270795Y-60160060D01*
X104288012Y-60170000D01*
X103485138Y-60170000D01*
X103493430Y-60211690D01*
X103493430Y-60211692D01*
X103568807Y-60393671D01*
X103568814Y-60393684D01*
X103678248Y-60557462D01*
X103678251Y-60557466D01*
X103817533Y-60696748D01*
X103817537Y-60696751D01*
X103981315Y-60806185D01*
X103981328Y-60806192D01*
X104163306Y-60881569D01*
X104163318Y-60881572D01*
X104356504Y-60919999D01*
X104356508Y-60920000D01*
X104755000Y-60920000D01*
X104755000Y-60220000D01*
X105255000Y-60220000D01*
X105255000Y-60920000D01*
X105653492Y-60920000D01*
X105653495Y-60919999D01*
X105846681Y-60881572D01*
X105846693Y-60881569D01*
X106028671Y-60806192D01*
X106028684Y-60806185D01*
X106192462Y-60696751D01*
X106192466Y-60696748D01*
X106331748Y-60557466D01*
X106331751Y-60557462D01*
X106441185Y-60393684D01*
X106441192Y-60393671D01*
X106516569Y-60211692D01*
X106516569Y-60211690D01*
X106524862Y-60170000D01*
X105721988Y-60170000D01*
X105739205Y-60160060D01*
X105795060Y-60104205D01*
X105834556Y-60035796D01*
X105855000Y-59959496D01*
X105855000Y-59880504D01*
X105834556Y-59804204D01*
X105795060Y-59735795D01*
X105739205Y-59679940D01*
X105721988Y-59670000D01*
X106524862Y-59670000D01*
X106516569Y-59628309D01*
X106516569Y-59628307D01*
X106441192Y-59446328D01*
X106441185Y-59446315D01*
X106331751Y-59282537D01*
X106331748Y-59282533D01*
X106192466Y-59143251D01*
X106192462Y-59143248D01*
X106028684Y-59033814D01*
X106028671Y-59033807D01*
X105846693Y-58958430D01*
X105846681Y-58958427D01*
X105653495Y-58920000D01*
X105255000Y-58920000D01*
X105255000Y-59620000D01*
X104755000Y-59620000D01*
X104755000Y-59081784D01*
X104774685Y-59014745D01*
X104817000Y-58974397D01*
X104858365Y-58950515D01*
X104965515Y-58843365D01*
X104967627Y-58839707D01*
X104986721Y-58806637D01*
X105041279Y-58712138D01*
X105041281Y-58712135D01*
X105080500Y-58565766D01*
X105080500Y-58414234D01*
X105042162Y-58271153D01*
X120949500Y-58271153D01*
X120949500Y-58428846D01*
X120980261Y-58583489D01*
X120980264Y-58583501D01*
X121040602Y-58729172D01*
X121040609Y-58729185D01*
X121128210Y-58860288D01*
X121128213Y-58860292D01*
X121239707Y-58971786D01*
X121239711Y-58971789D01*
X121370814Y-59059390D01*
X121370827Y-59059397D01*
X121508683Y-59116498D01*
X121516503Y-59119737D01*
X121671153Y-59150499D01*
X121671156Y-59150500D01*
X121671158Y-59150500D01*
X121828844Y-59150500D01*
X121828845Y-59150499D01*
X121983497Y-59119737D01*
X122129179Y-59059394D01*
X122260289Y-58971789D01*
X122371789Y-58860289D01*
X122459394Y-58729179D01*
X122519737Y-58583497D01*
X122550500Y-58428842D01*
X122550500Y-58271158D01*
X122550500Y-58271155D01*
X122550499Y-58271153D01*
X122546192Y-58249500D01*
X122519737Y-58116503D01*
X122519735Y-58116498D01*
X122488080Y-58040075D01*
X122480611Y-57970606D01*
X122511886Y-57908127D01*
X122533749Y-57889521D01*
X122560289Y-57871789D01*
X122671789Y-57760289D01*
X122759394Y-57629179D01*
X122819737Y-57483497D01*
X122850500Y-57328842D01*
X122850500Y-57171158D01*
X122850500Y-57171155D01*
X122850499Y-57171153D01*
X122829684Y-57066510D01*
X122819737Y-57016503D01*
X122780102Y-56920814D01*
X122759397Y-56870827D01*
X122759390Y-56870814D01*
X122671789Y-56739711D01*
X122671786Y-56739707D01*
X122560292Y-56628213D01*
X122560288Y-56628210D01*
X122429185Y-56540609D01*
X122429172Y-56540602D01*
X122283501Y-56480264D01*
X122283489Y-56480261D01*
X122128845Y-56449500D01*
X122128842Y-56449500D01*
X121971158Y-56449500D01*
X121971155Y-56449500D01*
X121816510Y-56480261D01*
X121816498Y-56480264D01*
X121670827Y-56540602D01*
X121670814Y-56540609D01*
X121539711Y-56628210D01*
X121539707Y-56628213D01*
X121428213Y-56739707D01*
X121428210Y-56739711D01*
X121340609Y-56870814D01*
X121340602Y-56870827D01*
X121280264Y-57016498D01*
X121280261Y-57016510D01*
X121249500Y-57171153D01*
X121249500Y-57328846D01*
X121280261Y-57483489D01*
X121280264Y-57483501D01*
X121311919Y-57559924D01*
X121319388Y-57629394D01*
X121288112Y-57691873D01*
X121266252Y-57710476D01*
X121239709Y-57728212D01*
X121239704Y-57728217D01*
X121128213Y-57839707D01*
X121128210Y-57839711D01*
X121040609Y-57970814D01*
X121040602Y-57970827D01*
X120980264Y-58116498D01*
X120980261Y-58116510D01*
X120949500Y-58271153D01*
X105042162Y-58271153D01*
X105041281Y-58267865D01*
X104965515Y-58136635D01*
X104858365Y-58029485D01*
X104756767Y-57970827D01*
X104727136Y-57953719D01*
X104607969Y-57921789D01*
X104580766Y-57914500D01*
X104429234Y-57914500D01*
X104282863Y-57953719D01*
X104151635Y-58029485D01*
X104151632Y-58029487D01*
X104044487Y-58136632D01*
X104044485Y-58136635D01*
X103968719Y-58267863D01*
X103934226Y-58396596D01*
X103929500Y-58414234D01*
X103929500Y-58565766D01*
X103933385Y-58580264D01*
X103968719Y-58712136D01*
X104008153Y-58780437D01*
X104044485Y-58843365D01*
X104044486Y-58843366D01*
X104048549Y-58850403D01*
X104046346Y-58851674D01*
X104066959Y-58904983D01*
X104052923Y-58973428D01*
X104004112Y-59023420D01*
X103990845Y-59029866D01*
X103981324Y-59033809D01*
X103981315Y-59033814D01*
X103817537Y-59143248D01*
X103817533Y-59143251D01*
X103678251Y-59282533D01*
X103678248Y-59282537D01*
X103568814Y-59446315D01*
X103568807Y-59446328D01*
X103493430Y-59628307D01*
X103493430Y-59628309D01*
X103485138Y-59670000D01*
X102194862Y-59670000D01*
X102186569Y-59628309D01*
X102186569Y-59628307D01*
X102111192Y-59446328D01*
X102111185Y-59446315D01*
X102001751Y-59282537D01*
X102001748Y-59282533D01*
X101862466Y-59143251D01*
X101862462Y-59143248D01*
X101698684Y-59033814D01*
X101698671Y-59033807D01*
X101516693Y-58958430D01*
X101516681Y-58958427D01*
X101323495Y-58920000D01*
X101075000Y-58920000D01*
X101075000Y-59620000D01*
X100575000Y-59620000D01*
X100575000Y-58920000D01*
X100326504Y-58920000D01*
X100133318Y-58958427D01*
X100133306Y-58958430D01*
X99951328Y-59033807D01*
X99951315Y-59033814D01*
X99787537Y-59143248D01*
X99787533Y-59143251D01*
X99648251Y-59282533D01*
X99648248Y-59282537D01*
X99538814Y-59446315D01*
X99538807Y-59446328D01*
X99463430Y-59628307D01*
X99463430Y-59628309D01*
X99455138Y-59670000D01*
X98750500Y-59670000D01*
X98750500Y-57221153D01*
X107599500Y-57221153D01*
X107599500Y-57378846D01*
X107630261Y-57533489D01*
X107630264Y-57533501D01*
X107690602Y-57679172D01*
X107690609Y-57679185D01*
X107778210Y-57810288D01*
X107778213Y-57810292D01*
X107889707Y-57921786D01*
X107889711Y-57921789D01*
X108020814Y-58009390D01*
X108020827Y-58009397D01*
X108166498Y-58069735D01*
X108166503Y-58069737D01*
X108321153Y-58100499D01*
X108321156Y-58100500D01*
X108321158Y-58100500D01*
X108478844Y-58100500D01*
X108478845Y-58100499D01*
X108633497Y-58069737D01*
X108779179Y-58009394D01*
X108910289Y-57921789D01*
X109021789Y-57810289D01*
X109109394Y-57679179D01*
X109169737Y-57533497D01*
X109200500Y-57378842D01*
X109200500Y-57221158D01*
X109200500Y-57221155D01*
X109200499Y-57221153D01*
X109169738Y-57066510D01*
X109169737Y-57066503D01*
X109169735Y-57066498D01*
X109109397Y-56920827D01*
X109109390Y-56920814D01*
X109021789Y-56789711D01*
X109021786Y-56789707D01*
X108910292Y-56678213D01*
X108910288Y-56678210D01*
X108779185Y-56590609D01*
X108779172Y-56590602D01*
X108633501Y-56530264D01*
X108633489Y-56530261D01*
X108478845Y-56499500D01*
X108478842Y-56499500D01*
X108321158Y-56499500D01*
X108321155Y-56499500D01*
X108166510Y-56530261D01*
X108166498Y-56530264D01*
X108020827Y-56590602D01*
X108020814Y-56590609D01*
X107889711Y-56678210D01*
X107889707Y-56678213D01*
X107778213Y-56789707D01*
X107778210Y-56789711D01*
X107690609Y-56920814D01*
X107690602Y-56920827D01*
X107630264Y-57066498D01*
X107630261Y-57066510D01*
X107599500Y-57221153D01*
X98750500Y-57221153D01*
X98750500Y-55921153D01*
X112699500Y-55921153D01*
X112699500Y-56078846D01*
X112730261Y-56233489D01*
X112730264Y-56233501D01*
X112790602Y-56379172D01*
X112790609Y-56379185D01*
X112878210Y-56510288D01*
X112878213Y-56510292D01*
X112989707Y-56621786D01*
X112989711Y-56621789D01*
X113120814Y-56709390D01*
X113120827Y-56709397D01*
X113194013Y-56739711D01*
X113266503Y-56769737D01*
X113421153Y-56800499D01*
X113421156Y-56800500D01*
X113421158Y-56800500D01*
X113578844Y-56800500D01*
X113578845Y-56800499D01*
X113733497Y-56769737D01*
X113879179Y-56709394D01*
X114010289Y-56621789D01*
X114121789Y-56510289D01*
X114209394Y-56379179D01*
X114269737Y-56233497D01*
X114300500Y-56078842D01*
X114300500Y-55921158D01*
X114300500Y-55921155D01*
X114300499Y-55921153D01*
X114286246Y-55849500D01*
X114269737Y-55766503D01*
X114260721Y-55744737D01*
X114209397Y-55620827D01*
X114209390Y-55620814D01*
X114121789Y-55489711D01*
X114121786Y-55489707D01*
X114010292Y-55378213D01*
X114010288Y-55378210D01*
X113879185Y-55290609D01*
X113879172Y-55290602D01*
X113733501Y-55230264D01*
X113733489Y-55230261D01*
X113578845Y-55199500D01*
X113578842Y-55199500D01*
X113421158Y-55199500D01*
X113421155Y-55199500D01*
X113266510Y-55230261D01*
X113266498Y-55230264D01*
X113120827Y-55290602D01*
X113120814Y-55290609D01*
X112989711Y-55378210D01*
X112989707Y-55378213D01*
X112878213Y-55489707D01*
X112878210Y-55489711D01*
X112790609Y-55620814D01*
X112790602Y-55620827D01*
X112730264Y-55766498D01*
X112730261Y-55766510D01*
X112699500Y-55921153D01*
X98750500Y-55921153D01*
X98750500Y-54896153D01*
X102424500Y-54896153D01*
X102424500Y-55053846D01*
X102455261Y-55208489D01*
X102455264Y-55208501D01*
X102515602Y-55354172D01*
X102515609Y-55354185D01*
X102603210Y-55485288D01*
X102603213Y-55485292D01*
X102714707Y-55596786D01*
X102714711Y-55596789D01*
X102845814Y-55684390D01*
X102845827Y-55684397D01*
X102991498Y-55744735D01*
X102991503Y-55744737D01*
X103100963Y-55766510D01*
X103146153Y-55775499D01*
X103146156Y-55775500D01*
X103146158Y-55775500D01*
X103303844Y-55775500D01*
X103303845Y-55775499D01*
X103458497Y-55744737D01*
X103604179Y-55684394D01*
X103735289Y-55596789D01*
X103846789Y-55485289D01*
X103934394Y-55354179D01*
X103994737Y-55208497D01*
X104025500Y-55053842D01*
X104025500Y-54896158D01*
X104025500Y-54896155D01*
X104025499Y-54896153D01*
X103994738Y-54741510D01*
X103994737Y-54741503D01*
X103994735Y-54741498D01*
X103934397Y-54595827D01*
X103934390Y-54595814D01*
X103846789Y-54464711D01*
X103846786Y-54464707D01*
X103735292Y-54353213D01*
X103735288Y-54353210D01*
X103682844Y-54318168D01*
X103604185Y-54265609D01*
X103604172Y-54265602D01*
X103496861Y-54221153D01*
X110099500Y-54221153D01*
X110099500Y-54378846D01*
X110130261Y-54533489D01*
X110130264Y-54533501D01*
X110190602Y-54679172D01*
X110190609Y-54679185D01*
X110278210Y-54810288D01*
X110278213Y-54810292D01*
X110389707Y-54921786D01*
X110389711Y-54921789D01*
X110520814Y-55009390D01*
X110520827Y-55009397D01*
X110628138Y-55053846D01*
X110666503Y-55069737D01*
X110821153Y-55100499D01*
X110821156Y-55100500D01*
X110821158Y-55100500D01*
X110978844Y-55100500D01*
X110978845Y-55100499D01*
X111133497Y-55069737D01*
X111279179Y-55009394D01*
X111410289Y-54921789D01*
X111521789Y-54810289D01*
X111609394Y-54679179D01*
X111669737Y-54533497D01*
X111700500Y-54378842D01*
X111700500Y-54221158D01*
X111700500Y-54221155D01*
X111700499Y-54221153D01*
X111680543Y-54120827D01*
X111669737Y-54066503D01*
X111666749Y-54059289D01*
X111609397Y-53920827D01*
X111609390Y-53920814D01*
X111521789Y-53789711D01*
X111521786Y-53789707D01*
X111410292Y-53678213D01*
X111410288Y-53678210D01*
X111279185Y-53590609D01*
X111279172Y-53590602D01*
X111133501Y-53530264D01*
X111133489Y-53530261D01*
X110978845Y-53499500D01*
X110978842Y-53499500D01*
X110821158Y-53499500D01*
X110821155Y-53499500D01*
X110666510Y-53530261D01*
X110666498Y-53530264D01*
X110520827Y-53590602D01*
X110520814Y-53590609D01*
X110389711Y-53678210D01*
X110389707Y-53678213D01*
X110278213Y-53789707D01*
X110278210Y-53789711D01*
X110190609Y-53920814D01*
X110190602Y-53920827D01*
X110130264Y-54066498D01*
X110130261Y-54066510D01*
X110099500Y-54221153D01*
X103496861Y-54221153D01*
X103458501Y-54205264D01*
X103458489Y-54205261D01*
X103303845Y-54174500D01*
X103303842Y-54174500D01*
X103146158Y-54174500D01*
X103146155Y-54174500D01*
X102991510Y-54205261D01*
X102991498Y-54205264D01*
X102845827Y-54265602D01*
X102845814Y-54265609D01*
X102714711Y-54353210D01*
X102714707Y-54353213D01*
X102603213Y-54464707D01*
X102603210Y-54464711D01*
X102515609Y-54595814D01*
X102515602Y-54595827D01*
X102455264Y-54741498D01*
X102455261Y-54741510D01*
X102424500Y-54896153D01*
X98750500Y-54896153D01*
X98750500Y-51030000D01*
X99455138Y-51030000D01*
X100258012Y-51030000D01*
X100240795Y-51039940D01*
X100184940Y-51095795D01*
X100145444Y-51164204D01*
X100125000Y-51240504D01*
X100125000Y-51319496D01*
X100145444Y-51395796D01*
X100184940Y-51464205D01*
X100240795Y-51520060D01*
X100258012Y-51530000D01*
X99455138Y-51530000D01*
X99463430Y-51571690D01*
X99463430Y-51571692D01*
X99538807Y-51753671D01*
X99538814Y-51753684D01*
X99648248Y-51917462D01*
X99648251Y-51917466D01*
X99787533Y-52056748D01*
X99787537Y-52056751D01*
X99951315Y-52166185D01*
X99951328Y-52166192D01*
X100133306Y-52241569D01*
X100133318Y-52241572D01*
X100326504Y-52279999D01*
X100326508Y-52280000D01*
X100575000Y-52280000D01*
X100575000Y-51580000D01*
X101075000Y-51580000D01*
X101075000Y-52280000D01*
X101323492Y-52280000D01*
X101323495Y-52279999D01*
X101516681Y-52241572D01*
X101516693Y-52241569D01*
X101698671Y-52166192D01*
X101698684Y-52166185D01*
X101862462Y-52056751D01*
X101862466Y-52056748D01*
X102001748Y-51917466D01*
X102001751Y-51917462D01*
X102111185Y-51753684D01*
X102111192Y-51753671D01*
X102186569Y-51571692D01*
X102186569Y-51571690D01*
X102194862Y-51530000D01*
X101391988Y-51530000D01*
X101409205Y-51520060D01*
X101465060Y-51464205D01*
X101504556Y-51395796D01*
X101525000Y-51319496D01*
X101525000Y-51240504D01*
X101504556Y-51164204D01*
X101465060Y-51095795D01*
X101409205Y-51039940D01*
X101391988Y-51030000D01*
X102194862Y-51030000D01*
X103485138Y-51030000D01*
X104288012Y-51030000D01*
X104270795Y-51039940D01*
X104214940Y-51095795D01*
X104175444Y-51164204D01*
X104155000Y-51240504D01*
X104155000Y-51319496D01*
X104175444Y-51395796D01*
X104214940Y-51464205D01*
X104270795Y-51520060D01*
X104288012Y-51530000D01*
X103485138Y-51530000D01*
X103493430Y-51571690D01*
X103493430Y-51571692D01*
X103568807Y-51753671D01*
X103568814Y-51753684D01*
X103678248Y-51917462D01*
X103678251Y-51917466D01*
X103817533Y-52056748D01*
X103817537Y-52056751D01*
X103981315Y-52166185D01*
X103981328Y-52166192D01*
X103990838Y-52170131D01*
X104045243Y-52213970D01*
X104067310Y-52280264D01*
X104050033Y-52347963D01*
X104046350Y-52353405D01*
X103968719Y-52487863D01*
X103929500Y-52634234D01*
X103929500Y-52785765D01*
X103968719Y-52932136D01*
X103998368Y-52983489D01*
X104044485Y-53063365D01*
X104151635Y-53170515D01*
X104282865Y-53246281D01*
X104429234Y-53285500D01*
X104429236Y-53285500D01*
X104580764Y-53285500D01*
X104580766Y-53285500D01*
X104727135Y-53246281D01*
X104858365Y-53170515D01*
X104965515Y-53063365D01*
X105041281Y-52932135D01*
X105057621Y-52871153D01*
X113849500Y-52871153D01*
X113849500Y-53028846D01*
X113880261Y-53183489D01*
X113880264Y-53183501D01*
X113940602Y-53329172D01*
X113940609Y-53329185D01*
X114028210Y-53460288D01*
X114028213Y-53460292D01*
X114139707Y-53571786D01*
X114139711Y-53571789D01*
X114270814Y-53659390D01*
X114270827Y-53659397D01*
X114416498Y-53719735D01*
X114416503Y-53719737D01*
X114571153Y-53750499D01*
X114571156Y-53750500D01*
X114571158Y-53750500D01*
X114728844Y-53750500D01*
X114728845Y-53750499D01*
X114883497Y-53719737D01*
X115029179Y-53659394D01*
X115160289Y-53571789D01*
X115261925Y-53470153D01*
X123099500Y-53470153D01*
X123099500Y-53627846D01*
X123130261Y-53782489D01*
X123130264Y-53782501D01*
X123190602Y-53928172D01*
X123190609Y-53928185D01*
X123278210Y-54059288D01*
X123278213Y-54059292D01*
X123389707Y-54170786D01*
X123389711Y-54170789D01*
X123520814Y-54258390D01*
X123520827Y-54258397D01*
X123665129Y-54318168D01*
X123666503Y-54318737D01*
X123821153Y-54349499D01*
X123821156Y-54349500D01*
X123821158Y-54349500D01*
X123978844Y-54349500D01*
X123978845Y-54349499D01*
X124133497Y-54318737D01*
X124279179Y-54258394D01*
X124410289Y-54170789D01*
X124521789Y-54059289D01*
X124609394Y-53928179D01*
X124669737Y-53782497D01*
X124700500Y-53627842D01*
X124700500Y-53470158D01*
X124700500Y-53470155D01*
X124700499Y-53470153D01*
X124698666Y-53460938D01*
X124669737Y-53315503D01*
X124664282Y-53302334D01*
X124609397Y-53169827D01*
X124609390Y-53169814D01*
X124521789Y-53038711D01*
X124521786Y-53038707D01*
X124410292Y-52927213D01*
X124410288Y-52927210D01*
X124279185Y-52839609D01*
X124279172Y-52839602D01*
X124133501Y-52779264D01*
X124133489Y-52779261D01*
X123978845Y-52748500D01*
X123978842Y-52748500D01*
X123821158Y-52748500D01*
X123821155Y-52748500D01*
X123666510Y-52779261D01*
X123666498Y-52779264D01*
X123520827Y-52839602D01*
X123520814Y-52839609D01*
X123389711Y-52927210D01*
X123389707Y-52927213D01*
X123278213Y-53038707D01*
X123278210Y-53038711D01*
X123190609Y-53169814D01*
X123190602Y-53169827D01*
X123130264Y-53315498D01*
X123130261Y-53315510D01*
X123099500Y-53470153D01*
X115261925Y-53470153D01*
X115271789Y-53460289D01*
X115272390Y-53459390D01*
X115315297Y-53395175D01*
X115330925Y-53371786D01*
X115359394Y-53329179D01*
X115419737Y-53183497D01*
X115450500Y-53028842D01*
X115450500Y-52871158D01*
X115450500Y-52871155D01*
X115450499Y-52871153D01*
X115442904Y-52832971D01*
X115419737Y-52716503D01*
X115400955Y-52671158D01*
X115359397Y-52570827D01*
X115359390Y-52570814D01*
X115271789Y-52439711D01*
X115271786Y-52439707D01*
X115160292Y-52328213D01*
X115160288Y-52328210D01*
X115029185Y-52240609D01*
X115029172Y-52240602D01*
X114883501Y-52180264D01*
X114883489Y-52180261D01*
X114728845Y-52149500D01*
X114728842Y-52149500D01*
X114571158Y-52149500D01*
X114571155Y-52149500D01*
X114416510Y-52180261D01*
X114416498Y-52180264D01*
X114270827Y-52240602D01*
X114270814Y-52240609D01*
X114139711Y-52328210D01*
X114139707Y-52328213D01*
X114028213Y-52439707D01*
X114028210Y-52439711D01*
X113940609Y-52570814D01*
X113940602Y-52570827D01*
X113880264Y-52716498D01*
X113880261Y-52716510D01*
X113849500Y-52871153D01*
X105057621Y-52871153D01*
X105080500Y-52785766D01*
X105080500Y-52634234D01*
X105041281Y-52487865D01*
X104965515Y-52356635D01*
X104858365Y-52249485D01*
X104841429Y-52239707D01*
X104816998Y-52225601D01*
X104768784Y-52175033D01*
X104755000Y-52118215D01*
X104755000Y-51580000D01*
X105255000Y-51580000D01*
X105255000Y-52280000D01*
X105653492Y-52280000D01*
X105653495Y-52279999D01*
X105846681Y-52241572D01*
X105846693Y-52241569D01*
X106028671Y-52166192D01*
X106028684Y-52166185D01*
X106192462Y-52056751D01*
X106192466Y-52056748D01*
X106331748Y-51917466D01*
X106331751Y-51917462D01*
X106441185Y-51753684D01*
X106441192Y-51753671D01*
X106516569Y-51571692D01*
X106516569Y-51571690D01*
X106524862Y-51530000D01*
X105721988Y-51530000D01*
X105739205Y-51520060D01*
X105795060Y-51464205D01*
X105834556Y-51395796D01*
X105855000Y-51319496D01*
X105855000Y-51240504D01*
X105834556Y-51164204D01*
X105795060Y-51095795D01*
X105739205Y-51039940D01*
X105721988Y-51030000D01*
X106524862Y-51030000D01*
X106516569Y-50988309D01*
X106516569Y-50988307D01*
X106441192Y-50806328D01*
X106441185Y-50806315D01*
X106331751Y-50642537D01*
X106331748Y-50642533D01*
X106192466Y-50503251D01*
X106192462Y-50503248D01*
X106140687Y-50468653D01*
X119352000Y-50468653D01*
X119352000Y-50626346D01*
X119382761Y-50780989D01*
X119382764Y-50781001D01*
X119443102Y-50926672D01*
X119443109Y-50926685D01*
X119530710Y-51057788D01*
X119530713Y-51057792D01*
X119642207Y-51169286D01*
X119642211Y-51169289D01*
X119773314Y-51256890D01*
X119773327Y-51256897D01*
X119918998Y-51317235D01*
X119919003Y-51317237D01*
X120073653Y-51347999D01*
X120073656Y-51348000D01*
X120073658Y-51348000D01*
X120231344Y-51348000D01*
X120231345Y-51347999D01*
X120385997Y-51317237D01*
X120531679Y-51256894D01*
X120662789Y-51169289D01*
X120774289Y-51057789D01*
X120861894Y-50926679D01*
X120863920Y-50921789D01*
X120875567Y-50893666D01*
X120922237Y-50780997D01*
X120953000Y-50626342D01*
X120953000Y-50468658D01*
X120953000Y-50468655D01*
X120952999Y-50468653D01*
X120948042Y-50443735D01*
X120922237Y-50314003D01*
X120883780Y-50221158D01*
X120861897Y-50168327D01*
X120861890Y-50168314D01*
X120774289Y-50037211D01*
X120774286Y-50037207D01*
X120662792Y-49925713D01*
X120662788Y-49925710D01*
X120531685Y-49838109D01*
X120531672Y-49838102D01*
X120386001Y-49777764D01*
X120385989Y-49777761D01*
X120231345Y-49747000D01*
X120231342Y-49747000D01*
X120073658Y-49747000D01*
X120073655Y-49747000D01*
X119919010Y-49777761D01*
X119918998Y-49777764D01*
X119773327Y-49838102D01*
X119773314Y-49838109D01*
X119642211Y-49925710D01*
X119642207Y-49925713D01*
X119530713Y-50037207D01*
X119530710Y-50037211D01*
X119443109Y-50168314D01*
X119443102Y-50168327D01*
X119382764Y-50313998D01*
X119382761Y-50314010D01*
X119352000Y-50468653D01*
X106140687Y-50468653D01*
X106028684Y-50393814D01*
X106028671Y-50393807D01*
X105846693Y-50318430D01*
X105846681Y-50318427D01*
X105653495Y-50280000D01*
X105255000Y-50280000D01*
X105255000Y-50980000D01*
X104755000Y-50980000D01*
X104755000Y-50280000D01*
X104356504Y-50280000D01*
X104163318Y-50318427D01*
X104163306Y-50318430D01*
X103981328Y-50393807D01*
X103981315Y-50393814D01*
X103817537Y-50503248D01*
X103817533Y-50503251D01*
X103678251Y-50642533D01*
X103678248Y-50642537D01*
X103568814Y-50806315D01*
X103568807Y-50806328D01*
X103493430Y-50988307D01*
X103493430Y-50988309D01*
X103485138Y-51030000D01*
X102194862Y-51030000D01*
X102186569Y-50988309D01*
X102186569Y-50988307D01*
X102111192Y-50806328D01*
X102111185Y-50806315D01*
X102001751Y-50642537D01*
X102001748Y-50642533D01*
X101862466Y-50503251D01*
X101862462Y-50503248D01*
X101698684Y-50393814D01*
X101698671Y-50393807D01*
X101516693Y-50318430D01*
X101516681Y-50318427D01*
X101323495Y-50280000D01*
X101075000Y-50280000D01*
X101075000Y-50980000D01*
X100575000Y-50980000D01*
X100575000Y-50280000D01*
X100326504Y-50280000D01*
X100133318Y-50318427D01*
X100133306Y-50318430D01*
X99951328Y-50393807D01*
X99951315Y-50393814D01*
X99787537Y-50503248D01*
X99787533Y-50503251D01*
X99648251Y-50642533D01*
X99648248Y-50642537D01*
X99538814Y-50806315D01*
X99538807Y-50806328D01*
X99463430Y-50988307D01*
X99463430Y-50988309D01*
X99455138Y-51030000D01*
X98750500Y-51030000D01*
X98750500Y-49224500D01*
X98770185Y-49157461D01*
X98822989Y-49111706D01*
X98874500Y-49100500D01*
X148564459Y-49100500D01*
X148631498Y-49120185D01*
G37*
%TD.AperFunction*%
%TD*%
M02*
